<svg xmlns="http://www.w3.org/2000/svg" width="20" height="20" viewBox="0 0 20 20"><g transform="translate(-509 -587.5)"><path d="M511,600.5h-2v4h2Zm.293,4.707A1,1,0,0,1,511,604.5h-2a3,3,0,0,0,.879,2.121Zm.707.293a1,1,0,0,1-.707-.293l-1.414,1.414A3,3,0,0,0,512,607.5Zm14,0H512v2h14Zm.707-.293a1,1,0,0,1-.707.293v2a3,3,0,0,0,2.121-.879ZM527,604.5a1,1,0,0,1-.293.707l1.414,1.414A3,3,0,0,0,529,604.5Zm0,0h2v-4h-2Zm-16-4a1,1,0,0,0-2,0Zm-1,4h0Zm19-4a1,1,0,0,0-2,0Z" fill="#eee"/><path d="M519.707,601.207l5-5-1.414-1.414-5,5Zm-6.414-5,5,5,1.414-1.414-5-5Zm11.414,0a1,1,0,0,0-1.414-1.414ZM519,600.5l-.707.707a1,1,0,0,0,1.414,0Zm-4.293-5.707a1,1,0,0,0-1.414,1.414Z" fill="#eee"/><path d="M520,588.5h-2v12h2Zm0,0a1,1,0,0,0-2,0Zm-2,12a1,1,0,0,0,2,0Z" fill="#eee"/></g></svg>