<svg xmlns="http://www.w3.org/2000/svg" width="386.48" height="301.716" viewBox="0 0 386.48 301.716"><g transform="translate(-798.555 -1530.427)"><path d="M969.864,1674.774c12.756-29.39-28.212-59.373-37.249-65.531-1.161-.791-2.34-1.487-3.569-2.169-23.517-13.061-56.612-14.77-68.659,9.282-21.058,42.042,31.442,85.933,50.833,113.891Z" fill="#eee"/><path d="M967.1,1633.683l-2.582,2.577,20.669,24.012,4.219-4.2a15.8,15.8,0,1,0-22.306-22.391" fill="#f5b9ab"/><path d="M967.6,1634.179a15.1,15.1,0,0,1,19.063-1.862l.778-1.163a16.5,16.5,0,0,0-20.829,2.035Zm19.063-1.862a15.1,15.1,0,0,1,2.256,23.263l.987.991a16.5,16.5,0,0,0-2.465-25.417Zm-.94,27.5L965.051,1635.8l-1.06.912,20.669,24.013Zm3.2-4.237-4.219,4.2.986.992,4.22-4.2Zm-23.9-18.825,2.582-2.576-.988-.99-2.582,2.576Zm22.034-5.019-.389.581Zm-1.859,28.537-.53.456a.7.7,0,0,0,1.023.04Zm4.219-4.2.494.5ZM967.1,1633.684l.494.495Zm-2.582,2.576-.494-.495a.7.7,0,0,0-.036.951Z"/><path d="M831.472,1694.571c.185,13.432,11.2,26.553,25.556,29.362,14.473,2.831,32.077-4.818,45.513-32.323l-1.257-.614c-13.27,27.167-30.356,34.231-43.987,31.564-13.745-2.688-24.251-15.274-24.427-28.009Zm10.272-57.512c2.945,7.02,3.758,12.893,3.349,18.042a38.737,38.737,0,0,1-4.067,13.848c-1.011,2.113-2.114,4.155-3.207,6.193s-2.17,4.061-3.119,6.123a30.318,30.318,0,0,0-3.228,13.306l1.4-.02a28.941,28.941,0,0,1,3.1-12.7c.929-2.018,1.99-4.012,3.081-6.047s2.208-4.1,3.236-6.25a40.1,40.1,0,0,0,4.2-14.341c.429-5.4-.432-11.492-3.453-18.694Zm-9.573,57.5-.7.01Z"/><path d="M947.3,1689.2a24.562,24.562,0,0,1,25.092,24.02l.065,2.983A24.562,24.562,0,0,1,948.44,1741.3l-63.377,1.384a24.562,24.562,0,0,1-25.092-24.02l-.065-2.983a24.562,24.562,0,0,1,24.019-25.092Z" fill="#00adb5"/><path d="M880.738,1676.224l68-3.288s59.816-23.985,87.658,24.085-51.76,108.39-51.76,108.39l-27.989-5.933,16.071-60.28s-68.7,17.039-91.978-62.974" fill="#00adb5"/><path d="M1035.789,1697.371c6.843,11.816,7.1,24.393,3.591,36.672-3.513,12.294-10.8,24.26-18.977,34.769a213.447,213.447,0,0,1-24.238,25.907c-3.5,3.194-6.495,5.729-8.609,7.467-1.057.867-1.9,1.536-2.468,1.986-.286.226-.506.4-.654.512l-.167.128-.042.032-.011.008,0,0s0,0,.422.557.423.558.424.557l0,0,.011-.009.044-.033.173-.133c.151-.117.375-.291.665-.52.579-.456,1.425-1.129,2.49-2,2.13-1.75,5.14-4.3,8.664-7.516a214.7,214.7,0,0,0,24.4-26.08c8.238-10.58,15.636-22.709,19.218-35.244,3.586-12.551,3.352-25.539-3.726-37.758Zm-87.053-24.435.261.648h0l.007,0,.031-.012.124-.049.5-.187c.438-.161,1.087-.393,1.925-.671,1.675-.558,4.1-1.3,7.1-2.045a98.7,98.7,0,0,1,23.438-2.967c18.278.013,39.909,5.972,53.665,29.72l1.21-.7c-14.086-24.32-36.284-30.4-54.874-30.417a100.088,100.088,0,0,0-23.776,3.008c-3.041.754-5.5,1.509-7.209,2.075-.852.283-1.516.52-1.967.686-.226.084-.4.149-.516.195-.058.023-.1.039-.133.052l-.035.013-.009,0h0s0,0,.259.65m23.98,66.262-.168-.678h-.01l-.034.009-.141.033c-.126.029-.316.071-.566.123-.5.1-1.238.244-2.189.4a74.754,74.754,0,0,1-8.025.828,80.264,80.264,0,0,1-25.933-2.868c-19.854-5.676-42.667-21.24-54.24-61.014l-1.344.39c11.709,40.238,34.885,56.162,55.2,61.969a81.681,81.681,0,0,0,26.389,2.921,76.346,76.346,0,0,0,8.176-.844c.973-.158,1.732-.3,2.251-.41.259-.054.458-.1.593-.128l.154-.037a.308.308,0,0,0,.041-.01l.011,0h0s0,0-.167-.679m-15.4,60.459,16.072-60.279-1.352-.359L955.969,1799.3Zm27.459,5.071-27.989-5.936-.29,1.369,27.989,5.934ZM880.772,1676.923l68-3.288-.067-1.4-68,3.287Zm91.944,62.275.676.18.3-1.144-1.149.286Zm-16.071,60.28-.676-.181-.19.712.721.152Zm27.989,5.933-.145.684.312.066.255-.192Zm-35.9-132.475.034.7.118-.007.109-.044Zm-68,3.288-.034-.7a.7.7,0,0,0-.638.894Z"/><path d="M985.916,1804.464l-27.965-8.869-10.778,23.772s23.942,8.265,40.029,8.857l-7.836-8.818Z" fill="#eee"/><path d="M947.81,1819.656l10.778-23.771-1.274-.578-10.778,23.772Zm39.418,7.87c-7.961-.294-17.905-2.49-25.892-4.629-3.987-1.066-7.472-2.115-9.961-2.9-1.244-.39-2.239-.714-2.922-.94-.342-.113-.6-.2-.783-.262l-.2-.069-.051-.017-.012,0h0l-.228.661-.228.662h0l.014.005.053.017c.046.017.115.04.205.071.181.061.448.151.792.265.689.227,1.691.554,2.943.946,2.5.788,6.008,1.842,10.018,2.915,8.006,2.143,18.076,4.375,26.2,4.675Zm-8.385-7.654,7.836,8.818,1.046-.93-7.837-8.818Zm6.432-15.688-6.55,14.941,1.281.563,6.551-14.942Zm-27.535-7.921,27.965,8.869.423-1.334-27.966-8.87Zm-10.567,23.1-.637-.288a.7.7,0,0,0,.409.95Zm40.029,8.858-.026.7a.7.7,0,0,0,.549-1.164Zm-7.836-8.819-.641-.281a.7.7,0,0,0,.118.747Zm6.55-14.941.641.281a.7.7,0,0,0-.429-.948Zm-27.965-8.87.211-.667a.7.7,0,0,0-.848.379Z"/><path d="M877.975,1678.589l89.74-.758s63.113,13.035,59.781,68.485S924.488,1808.1,924.488,1808.1l-20.057-20.4,49.52-47.429s-67.5,15.268-75.976-61.677" fill="#00adb5"/><path d="M1026.8,1746.274c-.819,13.629-7.552,24.257-17.257,32.557s-22.4,14.264-35.021,18.507a213.267,213.267,0,0,1-34.513,8.214c-4.685.728-8.579,1.19-11.3,1.471-1.361.14-2.428.235-3.155.294-.363.03-.641.051-.827.064l-.211.015-.052,0h-.016s0,0,.043.7.045.7.046.7h.018l.056,0,.217-.015c.191-.014.473-.035.841-.065.735-.061,1.812-.156,3.183-.3,2.743-.282,6.661-.748,11.373-1.48a214.726,214.726,0,0,0,34.743-8.27c12.711-4.272,25.577-10.3,35.485-18.77s16.9-19.441,17.744-33.536Zm-59.083-68.443-.141.685h.009l.032.007.131.029c.116.025.289.065.517.118.454.108,1.123.273,1.975.5,1.7.461,4.139,1.181,7.052,2.219a98.651,98.651,0,0,1,21.179,10.469c15.231,10.1,29.975,27.016,28.329,54.412l1.4.084c1.686-28.055-13.46-45.385-28.952-55.661a99.98,99.98,0,0,0-21.483-10.622c-2.951-1.051-5.421-1.782-7.156-2.251-.867-.235-1.55-.4-2.019-.514-.234-.055-.414-.1-.537-.123l-.14-.031-.036-.007-.01,0h0s0,0-.143.685m-13.764,62.435-.154-.682h0l-.007,0-.034.007-.139.029c-.123.026-.309.063-.553.109-.487.091-1.207.216-2.127.348a72.42,72.42,0,0,1-7.688.671,70.351,70.351,0,0,1-23.891-3.134,52.714,52.714,0,0,1-25.389-17.366c-7.422-9.266-13.19-22.606-15.3-41.738l-1.39.154c2.129,19.34,7.976,32.946,15.595,42.458a54.114,54.114,0,0,0,26.05,17.823,71.766,71.766,0,0,0,24.371,3.2,74.107,74.107,0,0,0,7.838-.684c.941-.135,1.68-.263,2.186-.358.253-.047.447-.086.579-.114l.152-.032.039-.008.011,0h0s0,0-.153-.682M904.914,1788.2l49.521-47.43-.968-1.01-49.52,47.429Zm20.073,19.408-20.058-20.4-1,.981,20.057,20.4Zm-47.006-128.321,89.74-.758-.011-1.4-89.741.759Zm75.97,60.978.484.505,1.82-1.743-2.458.556Zm-49.52,47.429-.484-.505-.512.491.5.505Zm20.057,20.4-.5.49.225.228.319-.02Zm43.227-130.268.142-.685-.073-.015h-.074Zm-89.74.758-.006-.7-.774.006.085.77Z"/><path d="M926.081,1808.019l-18.417-22.837-22.113,13.867s15.4,20.111,28.481,29.489l-1.663-11.679Z" fill="#eee"/><path d="M885.923,1799.641l22.113-13.866-.744-1.186-22.112,13.867Zm28.517,28.328c-6.475-4.641-13.552-11.963-19.031-18.156-2.734-3.091-5.061-5.89-6.7-7.916-.822-1.013-1.472-1.832-1.917-2.4-.222-.283-.393-.5-.508-.651l-.13-.168-.033-.043-.008-.01,0,0h0l-.556.425-.555.426h0l0,0,.009.011.034.044c.03.039.074.1.133.172.116.151.289.373.513.658.449.571,1.1,1.4,1.93,2.415,1.653,2.038,3.993,4.853,6.744,7.962,5.491,6.207,12.654,13.629,19.263,18.366Zm-2.764-11.011,1.664,11.678,1.385-.2-1.664-11.679Zm14.026-9.527-13.712,8.84.758,1.176,13.712-8.84Zm-18.582-21.81,18.417,22.837,1.088-.878-18.417-22.837Zm-21.569,13.427-.371-.592a.7.7,0,0,0-.184,1.018Zm28.481,29.49-.407.568a.7.7,0,0,0,1.1-.667Zm-1.663-11.679-.379-.588a.7.7,0,0,0-.314.687Zm13.712-8.84.379.588a.7.7,0,0,0,.165-1.027Zm-18.417-22.837.544-.439a.7.7,0,0,0-.916-.154Z"/><path d="M886.375,1585.666a18.986,18.986,0,0,0,2.929-6.1c4.735-17.23-9.916-28.411-21.841-31.312s-51.532,28.409-8.182,49.93l.356-.022c6.946,5.5,9.168,12.751,11.834,21.454,1.088,3.55,2.249,7.341,3.835,11.352l19.822-15.655a46.383,46.383,0,0,0-8.753-29.649" fill="#f5b9ab" fill-rule="evenodd"/><path d="M885.8,1586.066a45.7,45.7,0,0,1,8.628,29.223l1.4.053a47.084,47.084,0,0,0-8.88-30.075Zm8.893,28.7-19.823,15.654.868,1.1,19.822-15.655Zm-18.739,15.946c-1.573-3.982-2.727-7.747-3.816-11.3l-1.338.409c1.088,3.547,2.256,7.364,3.854,11.405Zm-3.816-11.3c-2.658-8.674-4.927-16.146-12.069-21.8l-.868,1.1c6.75,5.341,8.925,12.378,11.6,21.11Zm-12.549-21.947-.349.021.078,1.4.363-.022Zm0,.093c-10.75-5.338-16.231-11.22-18.341-16.905-2.1-5.668-.914-11.288,2-16.238a36.187,36.187,0,0,1,12.173-12.011,28.539,28.539,0,0,1,6.684-3.048,10.517,10.517,0,0,1,5.193-.421l.331-1.36a11.869,11.869,0,0,0-5.914.437,29.94,29.94,0,0,0-7.019,3.2,37.584,37.584,0,0,0-12.653,12.5c-3.063,5.206-4.393,11.268-2.1,17.434,2.283,6.146,8.109,12.247,19.031,17.671Zm7.706-48.623a33.131,33.131,0,0,1,16.8,10.058,21.323,21.323,0,0,1,4.529,20.389l1.347.37a22.711,22.711,0,0,0-4.816-21.671,34.536,34.536,0,0,0-17.533-10.506Zm21.333,30.447a18.272,18.272,0,0,1-2.823,5.874l1.136.817a19.649,19.649,0,0,0,3.034-6.321Zm6.5,35.931.434.55a.705.705,0,0,0,.266-.523ZM875.3,1630.97l-.649.258a.7.7,0,0,0,1.084.292Zm-3.834-11.352.669-.2Zm-11.833-21.453.433-.549a.7.7,0,0,0-.48-.149Zm-.357.022-.312.626a.709.709,0,0,0,.351.072Zm8.182-49.93.165-.68Zm18.912,37.41-.568-.409a.7.7,0,0,0-.005.808Zm2.929-6.1.673.186Z"/><path d="M841.229,1579.666c-.177,6.752,10.95,15.57,15.445,16.611-29.568,2.679-34.244-33.439-24.288-33.04-5.675-10.672,3.346-21.929,16.832-18.807,8.792-28.986,28.045-2.864,23.938,5.89s-15.093,10.543-17.995,15.59,3.084,19.6-3.125,13.486-10.585-8.171-10.807.27" fill="#00adb5"/><path d="M832.359,1563.936a2.884,2.884,0,0,0-2.457,1.157,7.564,7.564,0,0,0-1.387,3.62,22.743,22.743,0,0,0,1.839,11.629c3.527,8.422,11.836,16.545,26.258,15.238l.126,1.394c-15.146,1.372-23.96-7.224-27.674-16.092a24.113,24.113,0,0,1-1.932-12.379,8.935,8.935,0,0,1,1.684-4.292,4.281,4.281,0,0,1,3.6-1.673Zm16.7-18.825c-6.521-1.509-11.871.469-14.913,4.006s-3.849,8.7-1.143,13.791l-1.235.657c-2.968-5.582-2.107-11.377,1.318-15.36s9.325-6.068,16.289-4.457Zm23.463,4.912c.9-1.913.559-4.948-.782-8.12a20.167,20.167,0,0,0-6.133-8.118c-2.575-1.909-5.392-2.6-8.05-1.268-2.716,1.359-5.491,4.929-7.671,12.116l-1.338-.406c2.216-7.306,5.145-11.34,8.383-12.961,3.3-1.651,6.685-.7,9.509,1.4a21.557,21.557,0,0,1,6.588,8.7c1.389,3.282,1.917,6.8.761,9.259Zm-17.968,15.538a11.508,11.508,0,0,1,3.674-3.565c1.522-1.027,3.342-2.025,5.119-3.091,3.608-2.163,7.217-4.708,9.175-8.882l1.267.6c-2.149,4.58-6.086,7.306-9.723,9.487-1.846,1.107-3.573,2.05-5.055,3.051a10.145,10.145,0,0,0-3.244,3.1Zm-2.027,13.337a5.877,5.877,0,0,0,1.571,1.234c.141.058.164.033.119.044-.067.016-.092.06-.078.038a.992.992,0,0,0,.1-.334,4.781,4.781,0,0,0,.051-.736,22.346,22.346,0,0,0-.146-2.233c-.176-1.721-.464-3.872-.521-5.884a10.769,10.769,0,0,1,.932-5.466l1.213.7a9.479,9.479,0,0,0-.746,4.728c.055,1.945.331,4,.513,5.782a23.263,23.263,0,0,1,.153,2.383,5.972,5.972,0,0,1-.07.959,2.328,2.328,0,0,1-.285.834,1.271,1.271,0,0,1-.786.591,1.6,1.6,0,0,1-.976-.108,7.035,7.035,0,0,1-2.025-1.534Zm-12,.75a10.143,10.143,0,0,1,1.009-4.8,3.051,3.051,0,0,1,1.263-1.213,2.957,2.957,0,0,1,1.668-.253,8.541,8.541,0,0,1,3.7,1.725,38.093,38.093,0,0,1,4.361,3.8l-.982,1a36.959,36.959,0,0,0-4.193-3.655,7.27,7.27,0,0,0-3.046-1.472,1.55,1.55,0,0,0-.89.12,1.656,1.656,0,0,0-.678.675,8.868,8.868,0,0,0-.81,4.122Zm15.987,17.31a15.908,15.908,0,0,1-4.556-2.178,36,36,0,0,1-5.245-4.161,26.9,26.9,0,0,1-4.378-5.292,10.715,10.715,0,0,1-1.808-5.679l1.4.036a9.347,9.347,0,0,0,1.6,4.917,25.522,25.522,0,0,0,4.149,5.007,34.53,34.53,0,0,0,5.036,4,14.64,14.64,0,0,0,4.114,1.992Zm-24.13-33.721.617-.329.573,1.077-1.218-.049Zm16.831-18.807.669.2-.189.626-.638-.148Zm5.944,21.48-.607-.349Zm-3.125,13.486-.491.5Zm-10.807.27.7.018Zm15.445,16.611.158-.681-.1,1.378Z"/><path d="M929.386,1606.463c-11.857-6.585-26.144-10.321-39.023-9.362-12.895.959-24.44,6.639-30.6,18.941l1.251.627c5.886-11.751,16.912-17.241,29.455-18.173,12.56-.935,26.578,2.713,38.239,9.19Zm-.68,1.223c1.219.677,2.378,1.361,3.515,2.136l.788-1.156c-1.186-.809-2.385-1.515-3.623-2.2Zm-16.912,122.163c-4.872-7.025-11.819-15.045-19.124-23.731-7.318-8.7-15.017-18.1-21.45-27.919-12.884-19.671-20.561-40.86-10.208-61.53l-1.251-.627c-10.7,21.373-2.661,43.152,10.289,62.925,6.483,9.9,14.229,19.348,21.55,28.053s14.221,16.67,19.045,23.626Zm57.589-55.583-58.644,55.473.961,1.016,58.644-55.473Zm-37.162-64.444c4.5,3.066,16.936,12.056,26.649,23.918,9.739,11.892,16.565,26.442,10.352,40.756l1.283.556c6.544-15.075-.737-30.212-10.552-42.2-9.841-12.018-22.408-21.1-26.944-24.188Zm-3.175-2.748.34-.611Zm-68.659,9.281-.626-.313Zm50.832,113.892-.574.4a.7.7,0,0,0,1.055.109Zm58.645-55.473.48.508.1-.1.057-.132Zm-37.249-65.531.394-.577Z"/><path d="M985.68,1659.569l-20.341-23.947-29.562,23.026c-4.686-33.747-42.231-60.955-56.758-57.188-39.053,10.129,5.224,97.779,33.472,110.463s73.189-52.354,73.189-52.354" fill="#eee"/><path d="M936.469,1658.551c-2.373-17.089-13.049-32.468-24.915-43.086a72.687,72.687,0,0,0-17.909-12.042c-5.681-2.569-10.935-3.643-14.8-2.64l.351,1.354c3.4-.881,8.284.033,13.875,2.561a71.3,71.3,0,0,1,17.553,11.809c11.71,10.48,22.149,25.579,24.462,42.236Zm-23.691,52.733c-6.894-3.1-14.869-10.83-22.364-20.964a156.78,156.78,0,0,1-19.246-34.843c-4.843-12.339-7.556-24.522-6.671-34.205a24.3,24.3,0,0,1,4.154-12.266,18.185,18.185,0,0,1,10.543-6.869l-.351-1.354a19.581,19.581,0,0,0-11.322,7.4,25.682,25.682,0,0,0-4.417,12.963c-.914,10,1.885,22.418,6.762,34.843a158.155,158.155,0,0,0,19.424,35.164c7.532,10.185,15.684,18.162,22.915,21.408Zm23.428-52.085,29.563-23.026-.86-1.1-29.562,23.026Zm49.474.37-.576-.4v0l-.006.009c-.006.007-.013.019-.024.034-.021.031-.053.077-.1.137-.085.122-.212.3-.379.538-.334.47-.829,1.16-1.469,2.034-1.28,1.748-3.14,4.232-5.462,7.174a237.184,237.184,0,0,1-18.482,20.907c-7.362,7.316-15.571,14.2-23.667,18.468s-15.968,5.851-22.74,2.81l-.573,1.276c7.351,3.3,15.7,1.506,23.965-2.848s16.6-11.357,24-18.714a238.7,238.7,0,0,0,18.594-21.032c2.334-2.958,4.2-5.455,5.493-7.215.644-.879,1.143-1.574,1.48-2.05.169-.238.3-.421.385-.545l.1-.141.025-.036.007-.01v0s0,0-.574-.4m-20.874-23.495,20.341,23.947,1.066-.905-20.341-23.948Zm-85.787-34.614-.176-.677Zm56.757,57.187-.692.1.166,1.2.956-.745Zm49.9.922.575.4.3-.441-.347-.409Zm-20.341-23.948.533-.453-.434-.511-.529.412Z"/><path d="M863.935,1727.665a.524.524,0,0,0-.661.5l.159,91.176H845.188a.5.5,0,0,0-.5.5v11.1a.5.5,0,0,0,.5.5h51.906a.5.5,0,0,0,.5-.5v-11.1a.5.5,0,0,0-.5-.5H877.278v-91.651a.5.5,0,0,0-.557-.5c-.994.114-1.928.231-2.811.342-4.062.512-7.055.889-9.975.133" fill="#00adb5" fill-rule="evenodd"/><path d="M863.76,1728.342c3.074.8,6.211.392,10.238-.115l-.175-1.388c-4.1.516-6.948.865-9.712.149Zm10.238-.115c.883-.111,1.813-.229,2.8-.342l-.159-1.389c-1,.114-1.937.232-2.819.343Zm2.8-.342a.2.2,0,0,1-.222-.2h1.4a1.2,1.2,0,0,0-1.336-1.192Zm-.222,91.455h1.4v-91.651h-1.4Zm.7.7h19.815v-1.4H877.279Zm19.815,0a.2.2,0,0,1-.2-.2h1.4a1.2,1.2,0,0,0-1.2-1.2Zm-.2,10.9h1.4v-11.1h-1.4Zm0,0a.2.2,0,0,1,.2-.2v1.4a1.2,1.2,0,0,0,1.2-1.2Zm.2-.2H845.188v1.4h51.906Zm-51.906,0a.2.2,0,0,1,.2.2h-1.4a1.2,1.2,0,0,0,1.2,1.2Zm.2-10.9h-1.4v11.1h1.4Zm0,0a.2.2,0,0,1-.2.2v-1.4a1.2,1.2,0,0,0-1.2,1.2Zm-.2.2h18.245v-1.4H845.188Zm18.944-.7-.159-91.177-1.4,0,.158,91.177Zm-.159-91.177a.191.191,0,0,1-.074.153.16.16,0,0,1-.139.027l.351-1.354a1.224,1.224,0,0,0-1.536,1.176Zm9.937-.629-.087-.694Zm2.811-.343-.079-.694Zm.558,92.15h-.7v.7h.7Zm-32.593,11.6h0Zm0-11.1h0Zm18.747-.5v.7h.7v-.7Zm.5-91.675.176-.677Zm-.661.5h0Z"/><path d="M800.49,1596.5a15.82,15.82,0,0,1,8.467-20.708l.8-.335a15.817,15.817,0,0,1,20.707,8.467l28.432,67.768a15.82,15.82,0,0,1-8.467,20.708l-.8.336a15.819,15.819,0,0,1-20.707-8.467Z" fill="#00adb5"/><path d="M808.687,1575.151a16.519,16.519,0,0,0-8.842,21.623l1.29-.541a15.12,15.12,0,0,1,8.093-19.792Zm1.342.954a15.119,15.119,0,0,1,19.792,8.093l1.29-.541a16.518,16.518,0,0,0-21.623-8.842Zm48.224,75.861a15.12,15.12,0,0,1-8.093,19.792l.541,1.29a16.519,16.519,0,0,0,8.842-21.623Zm-8.894,20.128A15.12,15.12,0,0,1,829.567,1664l-1.29.542a16.519,16.519,0,0,0,21.623,8.841ZM829.567,1664l-28.432-67.768-1.29.541,28.432,67.769Zm20.593,7.757-.8.336.541,1.29.8-.336Zm-20.339-87.56,28.432,67.768,1.29-.541-28.432-67.768Zm-20.593-7.757.8-.336-.541-1.29-.8.336Z"/><path d="M973.094,1713.2a25.261,25.261,0,0,0-25.807-24.7l.03,1.4a23.862,23.862,0,0,1,24.378,23.335Zm-1.334,3.014a23.862,23.862,0,0,1-23.335,24.378l.03,1.4a25.262,25.262,0,0,0,24.7-25.807Zm-86.712,25.762a23.863,23.863,0,0,1-24.378-23.336l-1.4.031a25.26,25.26,0,0,0,25.806,24.7ZM860.6,1715.661a23.861,23.861,0,0,1,23.336-24.377l-.031-1.4a25.261,25.261,0,0,0-24.7,25.807Zm23.336-24.377,63.376-1.384-.03-1.4-63.377,1.384Zm-23.271,27.36-.065-2.983-1.4.031.065,2.983Zm87.755,21.952-63.377,1.384.03,1.4,63.377-1.384Zm23.27-27.361.065,2.983,1.4-.031-.065-2.983Z"/><rect width="15.562" height="142.132" rx="0.502" transform="translate(1088.189 1689.31)" fill="#00adb5"/><path d="M1088.691,1688.61a1.2,1.2,0,0,0-1.2,1.2h1.4a.2.2,0,0,1-.2.2Zm14.558,1.4a.2.2,0,0,1-.2-.2h1.4a1.2,1.2,0,0,0-1.2-1.2Zm-.2,140.93a.2.2,0,0,1,.2-.2v1.4a1.2,1.2,0,0,0,1.2-1.2Zm-14.36-.2a.2.2,0,0,1,.2.2h-1.4a1.2,1.2,0,0,0,1.2,1.2Zm.2-140.93h-1.4V1830.94h1.4Zm14.361,140.93h-14.558v1.4h14.558Zm-.2.2h1.4V1689.811h-1.4Zm-14.36-140.93h14.558v-1.4h-14.558Z"/><path d="M1168.152,1662.4a15.819,15.819,0,0,1,16.161,15.47l.019.869a15.821,15.821,0,0,1-15.47,16.161l-145.149,3.169a15.819,15.819,0,0,1-16.161-15.469l-.019-.869a15.819,15.819,0,0,1,15.47-16.161Z" fill="#00adb5"/><path d="M1185.012,1677.852a16.519,16.519,0,0,0-16.876-16.154l.031,1.4a15.121,15.121,0,0,1,15.447,14.786Zm-1.38.9a15.122,15.122,0,0,1-14.786,15.447l.031,1.4a16.518,16.518,0,0,0,16.154-16.875ZM1023.7,1697.367a15.118,15.118,0,0,1-15.446-14.785l-1.4.029a16.521,16.521,0,0,0,16.877,16.155Zm-15.466-15.655a15.121,15.121,0,0,1,14.786-15.446l-.031-1.4a16.52,16.52,0,0,0-16.154,16.875Zm14.786-15.446,145.149-3.17-.031-1.4-145.149,3.17Zm-14.766,16.316-.02-.87-1.4.031.019.868Zm160.594,11.616-145.148,3.169.031,1.4,145.148-3.171Zm14.768-16.316.018.869,1.4-.031-.019-.868Z"/><path d="M1156.485,1576.384a2.007,2.007,0,0,1,1.42,2.46l-20.441,76.288a2.009,2.009,0,0,1-2.46,1.421l-11.151-2.988a2.009,2.009,0,0,1-1.421-2.46l20.442-76.289a2.009,2.009,0,0,1,2.46-1.42Z" fill="#00adb5"/><path d="M1158.58,1579.025a2.708,2.708,0,0,0-1.915-3.317l-.362,1.351a1.31,1.31,0,0,1,.926,1.6Zm-21.792,75.926a1.309,1.309,0,0,1-1.6.926l-.362,1.351a2.708,2.708,0,0,0,3.317-1.915Zm-12.755-2.062a1.31,1.31,0,0,1-.926-1.6l-1.351-.362a2.708,2.708,0,0,0,1.915,3.317ZM1143.549,1575a1.309,1.309,0,0,1,1.6-.926l.362-1.351a2.708,2.708,0,0,0-3.317,1.915Zm1.6-.926,11.151,2.988.362-1.351-11.151-2.988Zm-22.045,77.214L1143.549,1575l-1.352-.362-20.441,76.288Zm12.077,4.592-11.151-2.988-.362,1.351,11.151,2.988Zm22.045-77.214-20.441,76.288,1.351.362,20.441-76.288Z"/><rect width="82.997" height="15.562" rx="2.009" transform="translate(1057.245 1648.956)" fill="#eee"/><path d="M1059.253,1648.256a2.709,2.709,0,0,0-2.708,2.709h1.4a1.309,1.309,0,0,1,1.309-1.31Zm78.98,1.4a1.309,1.309,0,0,1,1.309,1.31h1.4a2.709,2.709,0,0,0-2.708-2.709Zm1.309,12.854a1.309,1.309,0,0,1-1.309,1.309v1.4a2.708,2.708,0,0,0,2.708-2.708Zm-80.289,1.309a1.309,1.309,0,0,1-1.309-1.309h-1.4a2.708,2.708,0,0,0,2.708,2.708Zm-1.309-12.853h-1.4v11.544h1.4Zm80.289,12.853h-78.979v1.4h78.979Zm1.309-1.309h1.4v-11.544h-1.4Zm-80.289-12.854h78.979v-1.4h-78.979Z"/></g></svg>