<?xml version="1.0" encoding="UTF-8"?>
<svg id="Layer_2" data-name="Layer 2" xmlns="http://www.w3.org/2000/svg" viewBox="0 0 621.59 153.8">
  <defs>
    <style>
      .cls-1 {
        fill: #f47c6f;
      }
    </style>
  </defs>
  <g id="Layer_1-2" data-name="Layer 1">
    <g>
      <path d="m54.4,153.6c-9.2,0-17.23-1.57-24.1-4.7-6.87-3.13-12.54-7.4-17-12.8-4.47-5.4-7.8-11.4-10-18-2.2-6.6-3.3-13.3-3.3-20.1v-3.6c0-7.07,1.13-13.9,3.4-20.5,2.27-6.6,5.67-12.57,10.2-17.9,4.53-5.33,10.17-9.57,16.9-12.7,6.73-3.13,14.63-4.7,23.7-4.7s17.43,1.73,24.7,5.2c7.27,3.47,13.1,8.37,17.5,14.7,4.4,6.33,6.87,13.7,7.4,22.1h-22.6c-.8-6-3.5-11.07-8.1-15.2-4.6-4.13-10.9-6.2-18.9-6.2-6.93,0-12.67,1.6-17.2,4.8-4.53,3.2-7.93,7.57-10.2,13.1-2.27,5.53-3.4,11.9-3.4,19.1s1.1,13.2,3.3,18.8,5.6,10,10.2,13.2c4.6,3.2,10.43,4.8,17.5,4.8,5.47,0,10.17-.97,14.1-2.9,3.93-1.93,7.1-4.53,9.5-7.8,2.4-3.27,3.8-7.03,4.2-11.3h22.8c-.4,8.67-2.87,16.17-7.4,22.5-4.53,6.33-10.53,11.27-18,14.8-7.47,3.53-15.87,5.3-25.2,5.3Z"/>
      <path d="m121.2,150V42.2h18.6v45h-.8c0-15.47,3.4-27.03,10.2-34.7,6.8-7.67,16.87-11.5,30.2-11.5h3.8v20.6h-7.2c-10.13,0-17.9,2.7-23.3,8.1-5.4,5.4-8.1,13.1-8.1,23.1v57.2h-23.4Z"/>
      <path d="m293,92c0-9.33-1.93-18.03-5.8-26.1-3.87-8.07-9.67-14.63-17.4-19.7-7.73-5.07-17.4-7.6-29-7.6-8.93,0-16.77,1.57-23.5,4.7-6.73,3.13-12.3,7.33-16.7,12.6-4.4,5.27-7.7,11.2-9.9,17.8-2.2,6.6-3.3,13.43-3.3,20.5v3.8c0,6.93,1.1,13.7,3.3,20.3,2.2,6.6,5.5,12.53,9.9,17.8,4.4,5.27,10.07,9.5,17,12.7,6.93,3.2,15.07,4.8,24.4,4.8,8.67,0,16.4-1.47,23.2-4.4,6.8-2.93,12.43-7.13,16.9-12.6,4.47-5.47,7.43-11.87,8.9-19.2h-21.8c-1.07,4.4-4,8.23-8.8,11.5-4.8,3.27-10.93,4.9-18.4,4.9s-13.6-1.63-18.4-4.9c-4.8-3.27-8.33-7.73-10.6-13.4-1.71-4.26-2.77-8.97-3.19-14.1h83.19v-9.4Zm-69.6-28.8c4.67-3.2,10.47-4.8,17.4-4.8s12.2,1.43,16.6,4.3c4.4,2.87,7.73,6.93,10,12.2,1.38,3.21,2.33,6.78,2.87,10.7h-59.83c.57-3.32,1.42-6.39,2.56-9.2,2.27-5.6,5.73-10,10.4-13.2Z"/>
      <path class="cls-1" d="m357.6,153.8c-10.8,0-20.37-1.83-28.7-5.5-8.33-3.67-14.83-8.83-19.5-15.5-4.67-6.67-7-14.53-7-23.6,0-5.87,1.1-11.17,3.3-15.9,2.2-4.73,5.23-8.83,9.1-12.3,3.87-3.47,8.33-6.13,13.4-8v-2.2c-4-1.6-7.6-3.83-10.8-6.7-3.2-2.87-5.73-6.3-7.6-10.3-1.87-4-2.8-8.6-2.8-13.8,0-8.67,2.3-15.93,6.9-21.8,4.6-5.87,10.73-10.33,18.4-13.4,7.67-3.07,16.1-4.6,25.3-4.6s18,1.53,25.6,4.6c7.6,3.07,13.67,7.53,18.2,13.4,4.53,5.87,6.8,13.13,6.8,21.8,0,5.2-.9,9.8-2.7,13.8s-4.3,7.43-7.5,10.3c-3.2,2.87-6.87,5.1-11,6.7v2.2c5.2,1.87,9.73,4.53,13.6,8,3.87,3.47,6.9,7.57,9.1,12.3,2.2,4.73,3.3,10.03,3.3,15.9,0,9.07-2.33,16.93-7,23.6-4.67,6.67-11.17,11.83-19.5,15.5-8.33,3.67-17.97,5.5-28.9,5.5Zm0-20c6.67,0,12.4-1.03,17.2-3.1,4.8-2.07,8.53-5.1,11.2-9.1,2.67-4,4-8.73,4-14.2s-1.3-10.13-3.9-14c-2.6-3.87-6.3-6.87-11.1-9-4.8-2.13-10.6-3.2-17.4-3.2s-12.4,1.07-17.2,3.2c-4.8,2.13-8.47,5.13-11,9-2.54,3.87-3.8,8.53-3.8,14s1.27,10.2,3.8,14.2c2.53,4,6.2,7.03,11,9.1,4.8,2.07,10.53,3.1,17.2,3.1Zm0-70.8c8.4,0,15.07-1.77,20-5.3,4.93-3.53,7.4-8.97,7.4-16.3s-2.5-12.73-7.5-16.2c-5-3.47-11.63-5.2-19.9-5.2s-14.9,1.77-19.9,5.3c-5,3.53-7.5,8.9-7.5,16.1s2.5,12.77,7.5,16.3c5,3.53,11.63,5.3,19.9,5.3Z"/>
      <path d="m491.99,59.6v-17.4h-35.2V10.8h-22.2v31.4h-17.8v17.4h17.8v51.8c0,10,1.57,17.93,4.7,23.8,3.13,5.87,7.77,10,13.9,12.4,6.13,2.4,13.67,3.6,22.6,3.6h16.2v-20.4h-18c-5.47,0-9.7-1.5-12.7-4.5s-4.5-7.3-4.5-12.9v-53.8h35.2Z"/>
      <g>
        <polygon points="514.59 42.2 498.79 42.2 498.79 60.2 514.59 60.2 514.59 150 537.99 150 537.99 60.2 537.99 42.2 514.59 42.2"/>
        <path d="m522.19,27.2c4.93,0,8.57-1.27,10.9-3.8,2.33-2.53,3.5-5.8,3.5-9.8s-1.17-7.1-3.5-9.7c-2.33-2.6-5.97-3.9-10.9-3.9s-8.37,1.3-10.7,3.9c-2.33,2.6-3.5,5.83-3.5,9.7s1.17,7.27,3.5,9.8c2.33,2.53,5.9,3.8,10.7,3.8Z"/>
      </g>
      <path d="m621.59,43.8h-32v-8.2c0-4.4,1.23-7.87,3.7-10.4,2.47-2.53,5.9-3.8,10.3-3.8h16.2V2.8h-13.6c-12.67,0-22.3,2.9-28.9,8.7-6.6,5.8-9.9,14.77-9.9,26.9v5.4h-14.2v17.4h14.2v88.8h22.2V61.2h32v-17.4Z"/>
    </g>
  </g>
</svg>