<?xml version="1.0" encoding="UTF-8"?>
<svg id="Layer_2" data-name="Layer 2" xmlns="http://www.w3.org/2000/svg" viewBox="0 0 385.08 300.32">
  <defs>
    <style>
      .cls-1, .cls-2 {
        fill: #f5b9ab;
      }

      .cls-1, .cls-3 {
        fill-rule: evenodd;
      }

      .cls-4, .cls-3 {
        fill: #f47c6f;
      }

      .cls-5 {
        fill: #eee;
      }
    </style>
  </defs>
  <g id="Layer_1-2" data-name="Layer 1">
    <g>
      <g>
        <path class="cls-4" d="m105.71,256.58l50.22-48.1-1.32.3c-.05.01-5.51,1.22-13.36,1.22-20.59,0-55.99-8.08-62.11-62.16l89.32-.75c.08.02,15.82,3.36,30.95,13.4,13.92,9.24,30.17,26.23,28.46,54.69-1.71,28.43-29.49,43.62-52.49,51.35-23.91,8.04-47.76,9.91-50,10.07l-19.67-20.01Z"/>
        <path d="m168.39,147.45c1.2.26,16.27,3.69,30.8,13.32,8.83,5.85,15.72,12.82,20.48,20.71,5.95,9.84,8.58,21.17,7.83,33.66-.75,12.43-6.54,23.37-17.23,32.51-8.6,7.36-20.38,13.58-34.99,18.5-23.37,7.86-46.68,9.81-49.75,10.04l-19.28-19.61,48.97-46.9,1.95-1.87-2.63.59c-.05.01-5.47,1.21-13.28,1.21-20.41,0-55.46-8.01-61.69-61.42l88.83-.75m.08-.75l-89.74.76c6.07,55.09,42.39,62.91,62.53,62.91,7.99,0,13.44-1.23,13.44-1.23l-49.52,47.43,20.06,20.4s99.68-6.33,103.01-61.78-59.78-68.49-59.78-68.49h0Z"/>
      </g>
      <g>
        <path class="cls-4" d="m157.85,268.07l16.13-60.51-.62.15c-.06.02-6.2,1.51-15.25,1.51-21.45,0-59.8-8.3-76.14-63.77l67.58-3.27.06-.02c.15-.06,15.07-5.96,33.19-5.96,16.74,0,39.7,5.18,54,29.88,14.28,24.65-.5,52.65-15.4,71.79-15.5,19.91-34.34,34.63-36.12,36.01l-27.43-5.82Z"/>
        <path d="m182.81,136.58c10.6,0,20.2,2,28.53,5.94,10.4,4.92,18.86,12.91,25.14,23.75,6.24,10.78,7.45,23.1,3.59,36.62-3.11,10.89-9.49,22.58-18.95,34.74-15.14,19.46-33.5,33.96-35.93,35.85l-26.88-5.7,15.87-59.52.33-1.23-1.23.3c-.06.02-6.16,1.5-15.16,1.5-21.28,0-59.3-8.22-75.64-63.04l67.05-3.24h.13s.12-.05.12-.05c.15-.06,15-5.93,33.05-5.93m0-.75c-18.41,0-33.33,5.98-33.33,5.98l-68,3.29c16.33,56.12,54.99,64.49,76.63,64.49,9.21,0,15.34-1.52,15.34-1.52l-16.07,60.28,27.99,5.93s79.6-60.32,51.76-108.39c-13.94-24.06-35.88-30.07-54.33-30.07h0Z"/>
      </g>
      <g>
        <path class="cls-5" d="m112.02,198.55c-4.15-5.92-9.79-12.61-15.76-19.68-22.82-27.03-51.22-60.67-34.79-93.47,5.98-11.93,17.95-18.5,33.71-18.5,11.15,0,23.7,3.42,34.43,9.38,1.43.79,2.52,1.46,3.54,2.15,8.42,5.74,49.73,35.81,37.15,65l-58.27,55.12Z"/>
        <path d="m95.18,67.27c11.09,0,23.58,3.4,34.25,9.33,1.42.79,2.5,1.45,3.51,2.13,8.37,5.7,49.42,35.57,37.04,64.47l-57.9,54.77c-4.13-5.85-9.68-12.41-15.53-19.35-22.75-26.94-51.06-60.48-34.74-93.06,5.91-11.79,17.76-18.29,33.37-18.29m0-.75c-14.33,0-27.39,5.43-34.04,18.7-21.06,42.04,31.44,85.93,50.83,113.89l58.64-55.47c12.76-29.39-28.21-59.37-37.25-65.53-1.16-.79-2.34-1.49-3.57-2.17-10.53-5.85-22.99-9.42-34.62-9.42h0Z"/>
      </g>
      <g>
        <path class="cls-4" d="m85.26,211.18c-13.04,0-23.88-10.61-24.17-23.66l-.07-2.98c-.29-13.33,10.32-24.42,23.65-24.71l63.38-1.38c.18,0,.36,0,.54,0,13.04,0,23.89,10.61,24.17,23.66l.07,2.98c.14,6.46-2.24,12.59-6.71,17.25-4.47,4.67-10.49,7.32-16.94,7.46l-63.38,1.38c-.18,0-.36,0-.54,0Z"/>
        <path d="m148.6,158.82c6.25,0,12.16,2.41,16.63,6.78,4.48,4.38,7.03,10.24,7.16,16.51l.07,2.98c.14,6.36-2.21,12.39-6.61,16.99-4.4,4.59-10.32,7.2-16.68,7.34l-63.38,1.38c-.18,0-.35,0-.53,0-6.25,0-12.16-2.41-16.63-6.78-4.48-4.38-7.03-10.24-7.16-16.51l-.07-2.98c-.14-6.36,2.21-12.39,6.61-16.99,4.4-4.59,10.32-7.2,16.68-7.34l63.38-1.38c.18,0,.35,0,.53,0h0m0-.75c-.18,0-.36,0-.55,0l-63.38,1.38c-13.56.3-24.32,11.53-24.02,25.09l.07,2.98c.29,13.38,11.23,24.03,24.54,24.03.18,0,.36,0,.55,0l63.38-1.38c13.56-.3,24.32-11.53,24.02-25.09l-.07-2.98c-.29-13.38-11.23-24.03-24.55-24.03h0Z"/>
      </g>
      <g>
        <path class="cls-5" d="m187.08,296.68c-14.7-.78-35.54-7.62-38.65-8.67l10.47-23.09,27.25,8.64-6.48,14.78,7.41,8.33Z"/>
        <path d="m159.1,265.38l26.54,8.42-6.22,14.18-.19.44.32.36,6.64,7.48c-14.06-.96-33.18-7.11-37.25-8.46l10.16-22.41m-.41-.92l-10.78,23.77s23.94,8.26,40.03,8.86l-7.84-8.82,6.55-14.94-27.96-8.87h0Z"/>
      </g>
      <g>
        <path class="cls-5" d="m114.28,296.58c-11.82-8.77-25.42-25.98-27.44-28.56l21.48-13.47,17.95,22.25-13.56,8.74,1.57,11.04Z"/>
        <path d="m108.24,255.04l17.48,21.67-13.01,8.39-.4.26.07.48,1.41,9.9c-11.19-8.57-23.73-24.25-26.38-27.62l20.85-13.07m.17-.99l-22.11,13.87s15.4,20.11,28.48,29.49l-1.66-11.68,13.71-8.84-18.42-22.84h0Z"/>
      </g>
      <g>
        <path class="cls-1" d="m76.22,99.24c-1.48-3.81-2.58-7.38-3.63-10.83-2.65-8.64-4.93-16.09-11.97-21.66l-.11-.09-.4.03c-18.78-9.35-20.71-19.94-19.01-27.18,2.82-12.03,17.61-22.19,25.4-22.19.59,0,1.14.06,1.62.18,6.46,1.57,14.98,5.99,19.51,13.7,3.06,5.2,3.75,10.97,2.06,17.15-.59,2.14-1.55,4.15-2.87,5.98l-.16.21.15.22c6.31,9.05,9.07,18.35,8.69,29.25l-19.29,15.23Z"/>
        <path d="m66.5,17.69c.56,0,1.08.06,1.53.17,6.39,1.55,14.8,5.92,19.28,13.52,3.01,5.11,3.69,10.79,2.02,16.86-.58,2.09-1.52,4.06-2.81,5.86l-.31.43.3.44c6.23,8.93,8.97,18.11,8.63,28.85l-18.75,14.81c-1.39-3.63-2.43-7.04-3.45-10.36-2.66-8.68-4.96-16.18-12.09-21.82l-.23-.18-.29.02h-.15c-14.63-7.3-21.11-16.54-18.72-26.7,2.79-11.88,17.36-21.9,25.04-21.9m0-.75c-13.51,0-47.93,29.53-6.47,50.12.12,0,.24-.01.36-.02,6.95,5.5,9.17,12.75,11.83,21.45,1.09,3.55,2.25,7.34,3.83,11.35l19.82-15.66c.44-11.67-2.71-20.98-8.75-29.65,1.29-1.79,2.3-3.82,2.93-6.1,4.74-17.23-9.92-28.41-21.84-31.31-.52-.13-1.09-.19-1.71-.19h0Z"/>
      </g>
      <g>
        <path class="cls-4" d="m54.34,64.92c-12.88,0-19.3-7.79-21.98-12.43-4.02-6.96-4.39-14.65-2.42-18.07.74-1.29,1.76-1.94,3.03-1.94l.8.03-.31-.58c-2.24-4.22-2.25-8.78,0-12.51,2.36-3.93,6.85-6.27,12.03-6.27,1.43,0,2.9.17,4.39.52l.34.08.1-.34C52.91,4.88,56.66.38,61.17.38c3.41,0,7.12,2.64,9.93,7.06,2.72,4.29,3.72,8.95,2.47,11.6-2.33,4.96-6.94,7.65-11,10.02-3.06,1.79-5.71,3.33-6.98,5.54-1.34,2.33-.88,6.52-.51,9.88.24,2.14.48,4.35.05,4.84-.03.04-.07.06-.14.06-.21,0-.73-.18-1.94-1.37-3.78-3.72-6.4-5.45-8.25-5.45-2.05,0-3.09,1.96-3.2,5.98-.16,6.19,8.85,13.98,14.01,16.36-.43.02-.85.02-1.27.02h0Z"/>
        <path d="m61.17.75c3.23,0,6.91,2.64,9.61,6.88,2.66,4.18,3.64,8.7,2.45,11.24-2.28,4.86-6.83,7.52-10.85,9.86-3.11,1.81-5.79,3.38-7.11,5.68-1.4,2.44-.93,6.69-.56,10.11.18,1.64.42,3.84.19,4.45-.18-.07-.65-.32-1.58-1.23-3.9-3.85-6.53-5.56-8.51-5.56-2.26,0-3.46,2.13-3.57,6.34-.16,6.03,7.58,13.05,12.89,16.02-9.84-.07-15.77-4.79-19.01-8.75-4.39-5.35-5.95-11.72-5.95-15.9,0-3.25,1-7.04,3.82-7.04.04,0,.09,0,.13,0l1.31.05-.61-1.15c-2.18-4.1-2.19-8.53-.01-12.14,2.29-3.81,6.67-6.09,11.7-6.09,1.4,0,2.85.17,4.31.51l.68.16.2-.67c2.53-8.35,6.16-12.77,10.48-12.77m0-.75c-4.06,0-8.23,3.5-11.2,13.3-1.56-.36-3.05-.53-4.48-.53-10.89,0-17.37,9.9-12.35,19.34-.06,0-.11,0-.16,0-9.39,0-5.28,33.19,21.37,33.19.99,0,2.02-.05,3.08-.14-4.5-1.04-15.62-9.86-15.45-16.61.1-3.97,1.13-5.61,2.82-5.61,1.92,0,4.69,2.1,7.98,5.34,1.05,1.03,1.75,1.48,2.2,1.48,2.24,0-1.49-10.77.92-14.96,2.9-5.05,13.89-6.84,17.99-15.59,2.72-5.79-4.79-19.19-12.74-19.19h0Z"/>
      </g>
      <g>
        <path class="cls-3" d="m45.93,299.94c-.07,0-.13-.06-.13-.13v-11.1c0-.07.06-.13.13-.13h18.62l-.16-91.55.04-.09s.07-.05.11-.05c1.18.3,2.41.45,3.8.45,1.89,0,3.96-.26,6.36-.56l.32-.04c.79-.1,1.61-.2,2.48-.3h0c.08,0,.14.06.14.13v92.03h20.19c.07,0,.13.06.13.13v11.1c0,.07-.06.13-.13.13h-51.91Z"/>
        <path d="m77.55,196.81h0,0m-.28.03v92.12h20.32v10.6h-51.41v-10.6h18.75v-.75s-.16-90.88-.16-90.88c1.09.26,2.27.38,3.57.38,1.91,0,4-.26,6.41-.57h.06c.78-.11,1.6-.21,2.47-.31m.25-.78s-.04,0-.06,0c-.99.11-1.93.23-2.81.34-2.41.3-4.45.56-6.31.56-1.28,0-2.48-.12-3.66-.43-.05-.01-.09-.02-.13-.02-.28,0-.53.22-.53.52l.16,91.18h-18.24c-.28,0-.5.22-.5.5v11.1c0,.28.22.5.5.5h51.91c.28,0,.5-.22.5-.5v-11.1c0-.28-.22-.5-.5-.5h-19.82v-91.65c0-.28-.23-.5-.5-.5h0Z"/>
      </g>
      <g>
        <path class="cls-4" d="m44.26,142.47c-6.24,0-11.83-3.72-14.25-9.47L1.58,65.23c-3.29-7.85.41-16.92,8.27-20.22l.8-.34c1.91-.8,3.92-1.21,5.97-1.21,6.24,0,11.83,3.72,14.25,9.47l28.43,67.77c1.6,3.8,1.62,8,.05,11.82-1.56,3.82-4.52,6.8-8.32,8.4l-.8.34c-1.91.8-3.92,1.21-5.97,1.21Z"/>
        <path d="m16.62,43.1v.75c6.09,0,11.55,3.63,13.9,9.24l28.43,67.77c3.21,7.66-.4,16.51-8.07,19.73l-.8.34c-1.86.78-3.82,1.18-5.82,1.18-6.09,0-11.55-3.63-13.9-9.24L1.93,65.09c-3.21-7.66.4-16.51,8.07-19.73l.8-.34c1.86-.78,3.82-1.18,5.82-1.18v-.75m0,0c-2.04,0-4.11.4-6.11,1.24l-.8.34c-8.06,3.38-11.85,12.65-8.47,20.71l28.43,67.77c2.54,6.06,8.41,9.7,14.59,9.7,2.04,0,4.11-.4,6.11-1.24l.8-.34c8.06-3.38,11.85-12.65,8.47-20.71L31.21,52.8c-2.54-6.06-8.41-9.7-14.59-9.7h0Z"/>
      </g>
      <g>
        <rect class="cls-4" x="289.31" y="158.56" width="14.81" height="141.38" rx=".13" ry=".13"/>
        <path d="m303.75,158.93v140.63h-14.06v-140.63h14.06m.25-.75h-14.56c-.28,0-.5.22-.5.5v141.13c0,.28.22.5.5.5h14.56c.28,0,.5-.22.5-.5v-141.13c0-.28-.22-.5-.5-.5h0Z"/>
      </g>
      <g>
        <path class="cls-4" d="m224.1,166.57c-8.33,0-15.25-6.78-15.43-15.11l-.02-.87c-.09-4.12,1.43-8.04,4.28-11.02,2.85-2.98,6.69-4.67,10.82-4.76l145.15-3.17h.34c8.33,0,15.25,6.77,15.43,15.1l.02.87c.19,8.51-6.59,15.59-15.1,15.78l-145.15,3.17h-.35Z"/>
        <path d="m369.25,132.02c8.13,0,14.88,6.61,15.06,14.74l.02.87c.18,8.31-6.43,15.21-14.74,15.39l-145.15,3.17c-.11,0-.22,0-.34,0-8.13,0-14.88-6.61-15.06-14.74l-.02-.87c-.09-4.02,1.4-7.84,4.18-10.75,2.78-2.91,6.53-4.56,10.56-4.65l145.15-3.17c.11,0,.22,0,.34,0m0-.75c-.12,0-.23,0-.35,0l-145.15,3.17c-8.73.19-15.66,7.43-15.47,16.16l.02.87c.19,8.62,7.23,15.47,15.81,15.47.12,0,.24,0,.35,0l145.15-3.17c8.73-.19,15.66-7.43,15.47-16.16l-.02-.87c-.19-8.62-7.23-15.47-15.81-15.47h0Z"/>
      </g>
      <g>
        <path class="cls-4" d="m336.27,125.12c-.14,0-.28-.02-.42-.06l-11.15-2.99c-.87-.23-1.39-1.13-1.16-2l20.44-76.29c.19-.71.84-1.21,1.58-1.21.14,0,.29.02.42.06l11.15,2.99c.87.23,1.39,1.13,1.16,2l-20.44,76.29c-.19.71-.84,1.21-1.58,1.21Z"/>
        <path d="m345.56,42.95h0c.11,0,.22.01.33.04l11.15,2.99c.67.18,1.07.87.89,1.54l-20.44,76.29c-.15.55-.65.93-1.21.93-.11,0-.22-.01-.33-.04l-11.15-2.99c-.32-.09-.6-.3-.76-.59-.17-.29-.21-.63-.13-.96l20.44-76.29c.15-.55.65-.93,1.21-.93m0-.75c-.89,0-1.7.59-1.94,1.49l-20.44,76.29c-.29,1.07.35,2.17,1.42,2.46l11.15,2.99c.17.05.35.07.52.07.89,0,1.7-.59,1.94-1.49l20.44-76.29c.29-1.07-.35-2.17-1.42-2.46l-11.15-2.99c-.17-.05-.35-.07-.52-.07h0Z"/>
      </g>
      <g>
        <rect class="cls-5" x="258.36" y="118.2" width="82.25" height="14.81" rx="1.63" ry="1.63"/>
        <path d="m338.98,118.58c.69,0,1.26.56,1.26,1.26v11.54c0,.69-.56,1.26-1.26,1.26h-78.98c-.69,0-1.26-.56-1.26-1.26v-11.54c0-.69.56-1.26,1.26-1.26h78.98m0-.75h-78.98c-1.11,0-2.01.9-2.01,2.01v11.54c0,1.11.9,2.01,2.01,2.01h78.98c1.11,0,2.01-.9,2.01-2.01v-11.54c0-1.11-.9-2.01-2.01-2.01h0Z"/>
      </g>
      <g>
        <path class="cls-5" d="m121.12,182.06c-2.75,0-5.35-.54-7.73-1.61-20.85-9.36-51.01-60.2-48.49-90.07.9-10.72,5.94-17.34,14.96-19.68.86-.22,1.83-.34,2.88-.34,15.17,0,48.9,24.74,53.41,57.21l.09.64,29.79-23.21,19.92,23.45c-2.73,3.88-38.29,53.6-64.83,53.6h0Z"/>
        <path d="m82.74,70.73c7.98,0,20.35,6.71,30.77,16.69,7.19,6.89,19.65,21.28,22.28,40.2l.18,1.29,1.03-.8,29-22.58,19.5,22.96c-3.75,5.3-38.45,53.2-64.36,53.2-2.7,0-5.25-.53-7.57-1.57-9.95-4.47-22.54-18.79-32.86-37.37-10.78-19.4-16.54-38.96-15.41-52.33.89-10.55,5.83-17.06,14.68-19.35.83-.22,1.77-.33,2.78-.33m0-.75c-1.07,0-2.07.11-2.97.35-39.05,10.13,5.22,97.78,33.47,110.46,2.51,1.13,5.15,1.64,7.88,1.64,28,0,65.31-53.99,65.31-53.99l-20.34-23.95-29.56,23.03c-4.39-31.64-37.68-57.54-53.79-57.54h0Z"/>
      </g>
      <g>
        <path class="cls-2" d="m165.78,105.15l2.33-2.33c2.91-2.91,6.78-4.51,10.9-4.51,3.06,0,6.02.9,8.57,2.6,3.86,2.58,6.33,6.71,6.78,11.34s-1.18,9.15-4.48,12.43l-3.93,3.91-20.18-23.44Z"/>
        <path d="m179.01,98.69c2.99,0,5.88.88,8.36,2.54,3.77,2.52,6.18,6.55,6.61,11.06.44,4.51-1.15,8.93-4.37,12.12l-3.65,3.63-19.69-22.87,2.09-2.08c2.84-2.84,6.62-4.4,10.64-4.4m0-.75c-4.07,0-8.11,1.57-11.17,4.62l-2.58,2.58,20.67,24.01,4.22-4.2c7.08-7.04,5.94-18.79-2.36-24.34-2.68-1.79-5.74-2.67-8.78-2.67h0Z"/>
      </g>
    </g>
  </g>
</svg>