<?xml version="1.0" encoding="UTF-8"?>
<svg id="Layer_2" data-name="Layer 2" xmlns="http://www.w3.org/2000/svg" viewBox="0 0 398.37 361.61">
  <defs>
    <style>
      .cls-1 {
        opacity: .5;
      }

      .cls-2, .cls-3 {
        fill: #f5b9ab;
      }

      .cls-2, .cls-4 {
        fill-rule: evenodd;
      }

      .cls-5, .cls-4 {
        fill: #f47c6f;
      }

      .cls-6 {
        fill: #eee;
      }
    </style>
  </defs>
  <g id="Layer_1-2" data-name="Layer 1">
    <g>
      <ellipse class="cls-1" cx="174.26" cy="349.61" rx="174" ry="12"/>
      <path class="cls-2" d="m289.87,72.47c-2.44-.89-4.77-2.19-6.89-4-16.02-13.65-9.15-34.25.54-44.97,9.7-10.72,69.02-6.45,41.04,43.23-.12.07-.24.14-.36.21-3.13,9.96-.49,18.49,2.68,28.74,1.29,4.18,2.67,8.64,3.78,13.6l-29.68-2.13c-8.16-11.08-11.25-22.24-11.1-34.68Z"/>
      <path d="m290.57,72.47c-.14,12.3,2.91,23.32,10.97,34.26l-1.13.83c-8.25-11.21-11.39-22.53-11.24-35.11l1.4.02Zm10.46,33.98l29.68,2.13-.1,1.4-29.68-2.13.1-1.4Zm28.95,2.98c-1.1-4.93-2.48-9.37-3.77-13.55l1.34-.41c1.29,4.18,2.68,8.66,3.8,13.65l-1.36.31Zm-3.77-13.55c-3.16-10.22-5.88-18.96-2.67-29.16l1.33.42c-3.05,9.72-.5,18.05,2.68,28.32l-1.34.41Zm-2.36-29.55c.12-.07.24-.14.35-.21l.72,1.2c-.12.07-.24.15-.37.22l-.71-1.21Zm.11.05c6.95-12.33,8.41-21.73,6.69-28.71-1.71-6.96-6.63-11.67-12.76-14.58-6.15-2.91-13.48-3.98-19.88-3.65-3.2.16-6.14.67-8.56,1.46-2.44.79-4.3,1.85-5.39,3.06l-1.04-.94c1.33-1.47,3.45-2.62,6-3.45,2.56-.83,5.63-1.36,8.92-1.53,6.58-.34,14.15.76,20.54,3.79,6.41,3.03,11.68,8.03,13.52,15.51,1.84,7.46.22,17.23-6.83,29.73l-1.22-.69Zm-39.91-42.42c-4.77,5.27-8.83,12.97-9.74,21-.9,7.99,1.32,16.32,9.13,22.97l-.91,1.06c-8.21-7-10.56-15.8-9.61-24.19.95-8.36,5.16-16.33,10.09-21.78l1.04.94Zm-.61,43.97c2.06,1.75,4.31,3.01,6.68,3.88l-.48,1.31c-2.52-.92-4.92-2.26-7.11-4.13l.91-1.06Zm17.54,39.22l-.05.7c-.2-.01-.39-.12-.51-.28l.56-.41Zm29.68,2.13l.68-.15c.05.22,0,.44-.15.61-.14.17-.36.26-.58.24l.05-.7Zm-3.78-13.6l-.67.21.67-.21Zm-2.68-28.74l-.67-.21c.05-.17.16-.31.31-.39l.35.6Zm.36-.21l.61.34c-.06.11-.15.19-.25.26l-.36-.6Zm-41.04-43.23l.52.47-.52-.47Zm6.35,48.97l.24-.66c.28.1.46.37.46.67h-.7Zm-6.89-4l-.45.53.45-.53Z"/>
      <path class="cls-5" d="m329.88,36.73c4.64,6.46-.36,22.42-4.05,26.41,30.58-16.97,11.22-55.26,1.78-48.27-1.54-14.16-17.78-19.15-28.85-7.18-27.76-22.42-29.22,15.78-19.42,21.59,9.8,5.81,21.69.28,27.86,3.27s9.98,21.14,11.97,11.07c2-10.07,4.9-14.97,10.71-6.89Z"/>
      <path d="m328.03,15.43c.98-.73,2.09-.87,3.27-.52,1.21.36,2.52,1.26,3.8,2.64,2.56,2.76,4.86,7.3,5.94,12.61,2.15,10.58-.58,24.06-15.55,32.37l.68,1.22c15.61-8.66,18.49-22.81,16.25-33.87-1.12-5.51-3.52-10.3-6.28-13.28-1.38-1.49-2.89-2.57-4.43-3.03-1.56-.47-3.13-.28-4.5.73l.83,1.12Zm-28.76-7.27c5.38-5.82,11.95-7.45,17.31-6.01,5.35,1.44,9.6,5.99,10.34,12.79l1.39-.15c-.8-7.35-5.44-12.39-11.36-13.99-5.92-1.6-13.01.26-18.7,6.41l1.03.95Zm-19.58,20.51c-2.19-1.3-3.88-4.52-4.67-8.51-.79-3.95-.65-8.44.6-12.04,1.25-3.59,3.57-6.18,7.1-6.65,3.6-.48,8.7,1.19,15.59,6.75l.88-1.09c-6.99-5.64-12.48-7.61-16.66-7.05-4.24.57-6.88,3.69-8.24,7.57-1.35,3.88-1.48,8.63-.66,12.77.82,4.11,2.62,7.83,5.33,9.44l.71-1.2Zm27.8,3.25c-1.69-.82-3.72-1.04-5.88-1.03-2.16,0-4.58.24-7.03.38-4.95.28-10.19.2-14.89-2.59l-.71,1.2c5.09,3.02,10.7,3.07,15.68,2.79,2.52-.14,4.84-.37,6.95-.38,2.1,0,3.87.21,5.27.89l.61-1.26Zm10.98,11.56c-.25,1.25-.51,1.95-.73,2.29-.11.16-.17.18-.15.17.04-.01.06,0,0-.02-.07-.03-.19-.11-.36-.29-.16-.17-.35-.4-.55-.7-.41-.59-.85-1.37-1.34-2.28-.97-1.8-2.11-4.08-3.38-6.07-1.26-1.98-2.75-3.82-4.48-4.66l-.61,1.26c1.35.66,2.66,2.2,3.91,4.16,1.24,1.94,2.33,4.13,3.33,5.98.49.92.97,1.75,1.42,2.41.23.33.46.63.69.87.23.24.49.46.79.6.32.14.69.19,1.06.05.36-.13.62-.4.82-.7.39-.58.69-1.52.94-2.79l-1.37-.27Zm11.96-7.17c-1.47-2.05-2.83-3.38-4.12-3.97-.66-.31-1.32-.43-1.96-.33-.65.09-1.22.39-1.73.83-.99.86-1.77,2.3-2.43,4.08-.66,1.8-1.23,4.03-1.73,6.57l1.37.27c.5-2.5,1.04-4.66,1.67-6.36.63-1.72,1.32-2.89,2.03-3.5.34-.3.68-.45,1.01-.5.33-.05.72,0,1.18.22.95.44,2.14,1.53,3.57,3.52l1.14-.82Zm-4.1,27.29c1-1.09,2.05-2.92,2.97-5.1.93-2.2,1.77-4.81,2.35-7.5.57-2.69.89-5.48.76-8.02-.13-2.54-.71-4.9-1.98-6.66l-1.14.82c1.05,1.46,1.59,3.52,1.72,5.92.12,2.39-.17,5.05-.73,7.66-.56,2.61-1.37,5.13-2.27,7.25-.9,2.13-1.87,3.79-2.71,4.7l1.03.95Zm1.27-48.75l-.7.08.13,1.21.98-.72-.42-.56Zm-28.85-7.18l-.44.54.51.41.44-.48-.51-.48Zm-19.42,21.59l.36-.6-.36.6Zm27.86,3.27l-.31.63.31-.63Zm11.97,11.07l.69.14-.69-.14Zm10.71-6.89l-.57.41.57-.41Zm-4.05,26.41l-.51-.47.85,1.09-.34-.61Z"/>
      <path class="cls-6" d="m357.33,318.59l-43.05-3.12,10.36-115.88s-49.95-118.36-7.07-118.36c60.58,0,80.84,93.34,80.08,118.36-.76,25.02-40.32,119-40.32,119Z"/>
      <path d="m398.35,199.62c-.19,6.36-2.84,17.02-6.65,29.34-3.82,12.35-8.84,26.46-13.84,39.77-5,13.32-9.97,25.85-13.69,35.06-1.86,4.6-3.41,8.37-4.49,10.99-.54,1.31-.97,2.33-1.26,3.03-.15.35-.26.61-.33.79-.04.09-.07.16-.08.2,0,.02-.02.04-.02.05,0,0,0,.01,0,.01,0,0,0,0,0,0t-.65-.27q-.64-.27-.64-.27s0,0,0,0c0,0,0,0,0-.01,0-.01.01-.03.02-.05.02-.05.05-.11.08-.2.07-.18.19-.44.33-.79.29-.69.71-1.71,1.26-3.02,1.08-2.62,2.63-6.38,4.49-10.98,3.72-9.2,8.69-21.72,13.68-35.03,4.99-13.31,10-27.38,13.81-39.69,3.82-12.34,6.4-22.82,6.59-28.96l1.4.04Zm-1.4-.04c.37-12.39-4.47-41.87-16.97-68.24-12.51-26.39-32.54-49.4-62.41-49.4v-1.4c30.71,0,51.1,23.66,63.68,50.2,12.58,26.55,17.49,56.25,17.11,68.88l-1.4-.04Zm-72.31.02q-.64.27-.65.27s0,0,0,0c0,0,0,0,0-.02,0-.01-.02-.04-.03-.06-.02-.06-.06-.14-.11-.26-.09-.23-.23-.56-.41-.99-.36-.87-.87-2.14-1.52-3.76-1.28-3.24-3.07-7.87-5.08-13.43-4.02-11.11-8.93-25.93-12.5-40.76-3.57-14.81-5.82-29.71-4.45-40.93.68-5.62,2.28-10.39,5.14-13.78,2.89-3.41,7-5.33,12.54-5.33v1.4c-5.18,0-8.88,1.78-11.47,4.84-2.61,3.09-4.15,7.56-4.82,13.04-1.33,10.97.87,25.66,4.43,40.44,3.56,14.76,8.45,29.53,12.46,40.61,2,5.54,3.78,10.16,5.06,13.39.64,1.62,1.15,2.88,1.51,3.75.18.43.31.76.41.99.05.11.08.2.11.25.01.03.02.05.03.06,0,0,0,.01,0,.02,0,0,0,0,0,0t-.64.27Zm.7.06l-10.36,115.88-1.39-.12,10.36-115.88,1.39.12Zm-11.01,115.12l43.05,3.12-.1,1.4-43.05-3.12.1-1.4Zm83.32-115.18l.7.02-.7-.02Zm-80.08-118.36v-.7.7Zm7.07,118.36l.64-.27.07.16-.02.17-.7-.06Zm32.69,119l.64.27-.19.46-.5-.04.05-.7Zm-43.05-3.12l-.05.7-.71-.05.06-.71.7.06Z"/>
      <path class="cls-3" d="m313.96,320.48l.6-5.23,43.35,1.74-.96,8.41c-1.55,13.59-15.16,22.36-28.18,18.14-9.8-3.18-16-12.82-14.82-23.06Z"/>
      <path d="m314.65,320.56c-1.14,9.9,4.86,19.24,14.34,22.31l-.43,1.33c-10.12-3.28-16.52-13.24-15.3-23.8l1.39.16Zm14.34,22.31c12.59,4.08,25.77-4.4,27.27-17.55l1.39.16c-1.6,14.03-15.65,23.08-29.09,18.73l.43-1.33Zm28.89-25.18l-43.35-1.74.06-1.4,43.35,1.74-.06,1.4Zm-1.62,7.63l.96-8.41,1.39.16-.96,8.41-1.39-.16Zm-41.01-9.99l-.6,5.23-1.39-.16.6-5.23,1.39.16Zm13.53,28.21l.22-.67-.22.67Zm29.13-26.55l.03-.7c.19,0,.38.1.5.24.13.15.19.34.16.53l-.7-.08Zm-.96,8.41l.69.08-.69-.08Zm-43-4.92l-.69-.08.69.08Zm.6-5.23l-.69-.08c.04-.36.36-.63.72-.62l-.03.7Z"/>
      <path class="cls-6" d="m251.47,235.21c-28-27.15,6.8-117.09,12.47-127.79,8.26-15.25,33.07-41.79,66.17-25.9,50.06,24.02,27.18,142.87,18.19,184.07l-96.83-30.38Z"/>
      <path d="m263.33,107.09c4.18-7.71,12.53-18.27,24.04-24.9,11.54-6.65,26.26-9.35,43.05-1.3l-.61,1.26c-16.31-7.83-30.55-5.21-41.75,1.25-11.23,6.48-19.42,16.81-23.5,24.35l-1.23-.67Zm84.29,158.35c4.5-20.59,12.45-60.55,13.04-98.34.29-18.9-1.26-37.21-5.98-52.27-4.72-15.06-12.59-26.79-24.86-32.68l.61-1.26c12.75,6.12,20.8,18.26,25.59,33.52,4.79,15.26,6.34,33.74,6.05,52.71-.59,37.94-8.57,78.01-13.07,98.61l-1.37-.3Zm-95.93-30.89l96.83,30.38-.42,1.33-96.83-30.38.42-1.33Zm12.88-126.79c-2.8,5.28-12.9,30.38-18.8,57.55-2.95,13.58-4.84,27.63-4.25,39.96.58,12.35,3.64,22.84,10.45,29.45l-.97,1c-7.19-6.97-10.28-17.9-10.87-30.39-.59-12.5,1.32-26.69,4.29-40.33,5.92-27.26,16.06-52.49,18.93-57.91l1.24.66Zm65.55-26.23l.3-.63-.3.63Zm18.18,184.07l.68.15-.16.75-.73-.23.21-.67Zm-96.83-30.38l-.21.67-.16-.05-.12-.12.49-.5Zm12.47-127.79l-.62-.33h0s.61.33.61.33Z"/>
      <path class="cls-5" d="m33.41,329.46l-4.51-40.79s104.77-33.95,191.12-46.69l118.56,10.24c17.81,42.08,9.03,119.43-123.06,83.87l-182.1-6.62Z"/>
      <path d="m339.22,251.94c8.95,21.16,11.29,51.33-5.42,71.77-16.75,20.48-52.35,30.85-118.46,13.05l.36-1.35c65.97,17.76,100.81,7.23,117.02-12.59,16.25-19.86,14.07-49.41,5.22-70.33l1.29-.55Zm-119.14-10.67l118.56,10.24-.12,1.39-118.56-10.24.12-1.39Zm.04,1.39c-43.13,6.36-90.88,18.03-127.86,28.11-18.49,5.04-34.27,9.68-45.44,13.06-5.58,1.69-10.01,3.07-13.04,4.02-1.52.48-2.68.85-3.47,1.1-.39.13-.69.22-.89.29-.1.03-.18.06-.23.07-.03,0-.04.01-.06.02,0,0-.01,0-.01,0,0,0,0,0,0,0t-.22-.67q-.22-.67-.21-.67s0,0,0,0c0,0,0,0,.01,0,.01,0,.03-.01.06-.02.05-.02.13-.04.23-.07.2-.06.5-.16.9-.29.79-.25,1.96-.62,3.48-1.1,3.04-.95,7.47-2.33,13.06-4.02,11.18-3.38,26.98-8.03,45.48-13.07,37-10.08,84.81-21.77,128.02-28.14l.2,1.38Zm-186.68,86.1l182.1,6.62-.05,1.4-182.1-6.62.05-1.4Zm-3.84-40.17l4.51,40.79-1.39.15-4.51-40.79,1.39-.15Zm308.98-36.38l.06-.7.42.04.16.39-.64.27Zm-118.56-10.24l-.1-.69h.08s.08,0,.08,0l-.06.7Zm-4.5,94.11l.03-.7h.08s.08.02.08.02l-.18.68Zm-182.1-6.62l-.03.7-.6-.02-.07-.6.7-.08Zm-4.51-40.79l-.7.08-.06-.57.54-.18.22.67Z"/>
      <path class="cls-4" d="m160.37,257.99l-18.62,57.9-39.06-1.91-17.82-108.01c-2.95-17.89,10.85-34.16,28.99-34.16h24.16l1.67-2.61,8.11,2.61c6.48,0,12.35,2.07,17.11,5.5l164.13,52.8c25.38,8.16,36.8,37.63,23.54,60.77l-25.11,43.81c-13.03,22.74-43.5,28.09-63.5,11.14l-103.61-87.84Z"/>
      <path d="m264.43,345.3l-103.61-87.84-.9,1.07,103.61,87.84.9-1.07Zm62.44-10.95c-12.82,22.36-42.78,27.62-62.44,10.95l-.9,1.07c20.33,17.23,51.31,11.8,64.56-11.32l-1.21-.7Zm25.11-43.81l-25.11,43.81,1.21.7,25.11-43.81-1.21-.7Zm-23.15-59.75c24.96,8.03,36.19,37.01,23.15,59.75l1.21.7c13.48-23.52,1.87-53.48-23.93-61.78l-.43,1.33Zm-164.13-52.8l164.13,52.8.43-1.33-164.13-52.8-.43,1.33Zm-16.9-5.47c6.33,0,12.06,2.02,16.7,5.37l.82-1.13c-4.87-3.52-10.88-5.63-17.52-5.64v1.4Zm-8.33-2.64l8.11,2.61.43-1.33-8.11-2.61-.43,1.33Zm-.87,2.32l1.67-2.61-1.18-.75-1.67,2.61,1.18.75Zm-24.75.32h24.16v-1.4h-24.16v1.4Zm-28.3,33.35c-2.88-17.47,10.59-33.35,28.3-33.35v-1.4c-18.57,0-32.7,16.66-29.68,34.97l1.38-.23Zm17.82,108.01l-17.82-108.01-1.38.23,17.82,108.01,1.38-.23Zm38.4,1.32l-39.06-1.91-.07,1.4,39.06,1.91.07-1.4Zm17.92-57.41l-18.62,57.9,1.33.43,18.62-57.9-1.33-.43Zm104.28,88.05l.45-.53-.45.53Zm63.5-11.14l-.61-.35.61.35Zm25.11-43.81l.61.35-.61-.35Zm-23.54-60.77l.21-.67-.21.67Zm-164.13-52.8l-.41.57.09.06.11.03.21-.67Zm-17.11-5.5l-.21.67.1.03h.11v-.7Zm-8.11-2.61l.21-.67-.51-.17-.29.45.59.38Zm-1.67,2.61v.7h.38l.21-.32-.59-.38Zm-24.16,0v.7-.7Zm-28.99,34.16l.69-.11-.69.11Zm17.82,108.01l-.69.11.09.56.56.03.03-.7Zm39.06,1.91l-.03.7.54.03.16-.51-.67-.21Zm18.62-57.9l.45-.53-.8-.68-.32,1,.67.21Z"/>
      <path class="cls-6" d="m102.25,313.54l39.94,2.36,3.1,33.53s-35.04-1.02-56.29-7.66l14.29-7.02-1.03-21.2Z"/>
      <path d="m144.58,349.49l-3.1-33.53,1.39-.13,3.1,33.53-1.39.13Zm-55.39-8.4c10.55,3.3,24.57,5.21,35.97,6.3,5.7.54,10.73.88,14.34,1.07,1.8.1,3.25.16,4.25.21.5.02.88.03,1.14.04.13,0,.23,0,.3,0,.03,0,.06,0,.07,0,0,0,.01,0,.02,0h0s0,0-.02.7-.02.7-.02.7h0s0,0,0,0c0,0-.01,0-.02,0-.02,0-.04,0-.08,0-.07,0-.17,0-.3-.01-.26,0-.65-.02-1.15-.04-1-.04-2.46-.11-4.27-.21-3.62-.2-8.68-.53-14.4-1.08-11.42-1.09-25.56-3.01-36.26-6.35l.42-1.33Zm14.39-5.73l-14.29,7.02-.62-1.26,14.29-7.02.62,1.26Zm-.64-21.87l1.03,21.2-1.4.07-1.03-21.2,1.4-.07Zm39.2,3.09l-39.94-2.36.08-1.4,39.94,2.36-.08,1.4Zm3.14,32.83l.7-.06c.02.2-.05.4-.19.54s-.33.23-.53.22l.02-.7Zm-56.29-7.66l-.21.67c-.27-.09-.47-.33-.49-.61-.02-.29.13-.56.39-.68l.31.63Zm14.29-7.02l.7-.03c.01.28-.14.54-.39.66l-.31-.63Zm-1.03-21.2l-.7.03c0-.2.07-.39.21-.53.14-.14.34-.21.53-.2l-.04.7Zm39.94,2.36l.04-.7c.35.02.62.29.66.63l-.7.06Z"/>
      <rect class="cls-6" x="101.13" y="65.1" width="18.33" height="97.77" rx="2.01" ry="2.01" transform="translate(-25.74 32.43) rotate(-15)"/>
      <path d="m88.63,71.26c-.39-1.44.47-2.93,1.91-3.32l.36,1.35c-.7.19-1.11.91-.93,1.6l-1.35.36Zm25.62,90.2c.19.7.91,1.11,1.6.93l.36,1.35c-1.44.39-2.93-.47-3.32-1.92l1.35-.36Zm15.43-2.78c.7-.19,1.11-.91.93-1.6l1.35-.36c.39,1.44-.47,2.93-1.91,3.32l-.36-1.35Zm-23.34-92.16c-.19-.7-.91-1.11-1.6-.93l-.36-1.35c1.44-.39,2.93.47,3.32,1.92l-1.35.36Zm-1.6-.93l-13.83,3.7-.36-1.35,13.83-3.71.36,1.35Zm25.87,91.49l-24.27-90.56,1.35-.36,24.27,90.56-1.35.36Zm-14.75,5.31l13.83-3.71.36,1.35-13.83,3.71-.36-1.35Zm-25.87-91.49l24.27,90.56-1.35.36-24.27-90.56,1.35-.36Z"/>
      <rect class="cls-5" x="110.21" y="154.02" width="97.77" height="18.33" rx="2.01" ry="2.01"/>
      <path d="m205.97,153.32c1.5,0,2.71,1.21,2.71,2.71h-1.4c0-.72-.59-1.31-1.31-1.31v-1.4Zm-93.76,1.4c-.72,0-1.31.59-1.31,1.31h-1.4c0-1.5,1.21-2.71,2.71-2.71v1.4Zm-1.31,15.62c0,.72.59,1.31,1.31,1.31v1.4c-1.5,0-2.71-1.21-2.71-2.71h1.4Zm95.06,1.31c.72,0,1.31-.59,1.31-1.31h1.4c0,1.5-1.21,2.71-2.71,2.71v-1.4Zm1.31-1.31v-14.31h1.4v14.31h-1.4Zm-95.06,1.31h93.76v1.4h-93.76v-1.4Zm-1.31-15.62v14.31h-1.4v-14.31h1.4Zm95.06-1.31h-93.76v-1.4h93.76v1.4Z"/>
      <path class="cls-6" d="m29.21,288.7l4.94,40.78-29.81,8.23s-5.62-35.14-2.89-57.58l9.85,12.93,17.92-4.36Z"/>
      <path d="m4.15,337.04l29.81-8.23.37,1.35-29.81,8.23-.37-1.35Zm-2.01-56.82c-1.35,11.14-.63,25.48.43,37.06.53,5.78,1.15,10.87,1.63,14.51.24,1.82.45,3.28.6,4.28.07.5.13.89.17,1.15.02.13.04.23.05.3,0,.03,0,.06.01.07,0,0,0,.01,0,.02,0,0,0,0,0,0,0,0,0,0,0,0t-.69.11q-.69.11-.69.11h0s0,0,0,0c0,0,0-.01,0-.02,0-.02,0-.04-.01-.08-.01-.07-.03-.17-.05-.3-.04-.26-.1-.65-.17-1.16-.15-1.01-.36-2.47-.6-4.3-.48-3.65-1.1-8.76-1.64-14.56-1.06-11.6-1.79-26.06-.42-37.36l1.39.17Zm8.59,13.27l-9.85-12.93,1.11-.85,9.85,12.93-1.11.85Zm18.64-4.11l-17.92,4.36-.33-1.36,17.92-4.36.33,1.36Zm4.08,40.19l-4.94-40.78,1.39-.17,4.94,40.78-1.39.17Zm-29.12,8.14l.19.67c-.19.05-.4.02-.56-.09s-.28-.28-.31-.48l.69-.11Zm-2.89-57.58l-.69-.08c.03-.28.24-.52.51-.59.27-.07.57.02.74.25l-.56.42Zm9.85,12.93l.17.68c-.27.07-.55-.03-.72-.26l.56-.42Zm17.92-4.36l-.17-.68c.19-.05.4,0,.56.1s.27.29.3.49l-.69.08Zm4.94,40.78l.69-.08c.04.34-.17.67-.51.76l-.19-.67Z"/>
      <path class="cls-6" d="m177.25,183.22l22.37-37.28,68.59,37.35c-3.14-43.11,26.44-105.14,57.51-101.36,54.51,6.63,14.35,140.98-21.36,164.66-35.71,23.68-127.12-63.37-127.12-63.37Z"/>
      <path d="m267.57,183.04l23.31-58.49,1.3.52-23.31,58.49-1.3-.52Zm36.42,62.97c8.26-5.48,16.84-17.06,24.44-31.77,7.58-14.69,14.12-32.4,18.33-50.02l1.36.32c-4.23,17.73-10.81,35.54-18.44,50.33-7.62,14.77-16.34,26.61-24.91,32.29l-.77-1.17Zm-36.1-62.1l-68.59-37.35.67-1.23,68.59,37.35-.67,1.23Zm-90.63-.69q.48-.51.48-.51s0,0,0,0c0,0,0,0,.01.01.01.01.03.03.05.05.04.04.11.1.2.18.17.16.43.41.77.72.68.63,1.67,1.55,2.96,2.72,2.56,2.33,6.27,5.63,10.83,9.52,9.12,7.78,21.64,17.91,35.27,27.29,13.64,9.39,28.35,18.01,41.86,22.81,13.54,4.81,25.67,5.72,34.31-.01l.77,1.17c-9.21,6.11-21.91,5.01-35.55.17-13.68-4.86-28.51-13.56-42.19-22.98-13.69-9.42-26.25-19.58-35.39-27.38-4.57-3.9-8.29-7.21-10.86-9.55-1.29-1.17-2.29-2.09-2.97-2.73-.34-.32-.6-.56-.77-.73-.09-.08-.15-.15-.2-.19-.02-.02-.04-.04-.05-.05,0,0,0,0-.01-.01,0,0,0,0,0,0t.48-.51Zm22.97-36.92l-22.37,37.28-1.2-.72,22.37-37.28,1.2.72Zm67.99,36.99l.65.26-.29.73-.69-.38.33-.61Zm36.16,63.29l-.39-.58.39.58Zm-127.12-63.37l-.48.51-.41-.39.29-.48.6.36Zm22.37-37.28l-.6-.36.35-.58.59.32-.33.61Z"/>
      <path class="cls-3" d="m195.55,143.12l4.28,3.06-22.54,37.07-6.89-4.91c-11.14-7.94-12.21-24.1-2.21-33.44,7.53-7.03,18.97-7.78,27.35-1.79Z"/>
      <path d="m195.14,143.68c-8.11-5.8-19.18-5.07-26.47,1.73l-.95-1.02c7.77-7.26,19.59-8.03,28.24-1.84l-.81,1.14Zm-26.47,1.73c-9.68,9.04-8.65,24.67,2.14,32.36l-.81,1.14c-11.5-8.2-12.6-24.88-2.28-34.52l.95,1.02Zm8.02,37.47l22.54-37.07,1.2.73-22.54,37.07-1.2-.73Zm-5.89-5.12l6.89,4.91-.81,1.14-6.89-4.91.81-1.14Zm28.62-31.02l-4.28-3.06.81-1.14,4.28,3.06-.81,1.14Zm-31.23-1.85l.48.51-.48-.51Zm9.1,38.35l.6.36c-.1.17-.27.28-.46.32-.19.04-.39,0-.55-.12l.41-.57Zm-6.89-4.91l-.41.57.41-.57Zm25.15-35.22l.41-.57-.41.57Zm4.28,3.06l.41-.57c.3.21.38.62.19.93l-.6-.36Z"/>
    </g>
  </g>
</svg>