<?xml version="1.0" encoding="utf-8"?>
<!-- Generator: Adobe Illustrator 27.3.1, SVG Export Plug-In . SVG Version: 6.00 Build 0)  -->
<svg version="1.1" id="Layer_1" xmlns="http://www.w3.org/2000/svg" xmlns:xlink="http://www.w3.org/1999/xlink" x="0px" y="0px"
	 viewBox="0 0 1688.2 1688.2" style="enable-background:new 0 0 1688.2 1688.2;" xml:space="preserve">
<style type="text/css">
	.st0{fill:#402326;}
	.st1{fill:#FFE2E1;}
	.st2{fill:#FEADAB;}
	.st3{fill:#FD7C79;}
	.st4{fill:#FECAC9;}
	.st5{fill:#FD6B6B;}
	.st6{fill:#FEB3B1;}
	.st7{fill:#5D3136;}
	.st8{fill:#AD6359;}
	.st9{opacity:0.1;}
	.st10{fill:#753E44;}
	.st11{fill:#FFFFFF;}
	.st12{clip-path:url(#SVGID_00000165218161920426414030000007298662011314610858_);}
	.st13{clip-path:url(#SVGID_00000138534135512391365170000004024648072544177823_);}
	.st14{fill:#FF6B6B;}
</style>
<g id="freepik--Floor--inject-77">
	<polygon class="st0" points="106.9,1476 299.6,1475 492.3,1474.6 877.8,1473.9 1263.2,1474.6 1455.9,1475 1648.7,1476 1455.9,1477 
		1263.2,1477.4 877.8,1478.1 492.3,1477.4 299.6,1477 	"/>
</g>
<g id="freepik--Shadows--inject-77">
	<ellipse class="st1" cx="188.3" cy="1624.8" rx="186.3" ry="35.8"/>
	<ellipse class="st1" cx="877.8" cy="1622" rx="674.9" ry="66.2"/>
</g>
<g id="freepik--Character--inject-77">
	<polygon class="st2" points="825.9,1070.8 836.8,1136.1 910.4,1534 922.3,1534 868.7,1136.1 860.8,1070.8 	"/>
	<polygon class="st3" points="860.8,1070.8 825.9,1070.8 836.8,1136.1 868.7,1136.1 	"/>
	<polygon class="st2" points="594.4,1534 606.3,1534 680,1136.1 690.9,1070.8 656,1070.8 648,1136.1 	"/>
	<polygon class="st3" points="656,1070.8 648,1136.1 680,1136.1 690.9,1070.8 	"/>
	<polygon class="st2" points="373.4,1534 385.3,1534 459,1136.1 469.9,1070.8 434.9,1070.8 427,1136.1 	"/>
	<polygon class="st3" points="427,1136.1 459,1136.1 469.9,1070.8 434.9,1070.8 	"/>
	<polygon class="st2" points="392.3,1101.5 932.2,1101.5 932.2,1044.6 730.1,1044.6 662.1,565.2 412.8,565.2 	"/>
	<polygon class="st4" points="423.7,1044.6 932.2,1044.6 932.2,1101.5 421.7,1101.5 	"/>
	<polygon class="st4" points="392.3,1101.5 421.7,1101.5 440.9,565.2 412.8,565.2 	"/>
	<path class="st5" d="M904.5,1609.8c-10.5,1-296.4-67.1-305.4-76.3c-1.1-1.1,4.5-27,12.6-62.5v-0.7c5.2-22.5,88.3-204.2,88.3-204.2
		l185.3,51.7l-84.1,168.6c0,0,34.9,25.2,64.8,49.1l0,0c18.5,14.7,34.4,27.9,37.9,32.1C912.9,1578.9,915,1608.9,904.5,1609.8z"/>
	<path class="st1" d="M904.5,1609.8c-10.5,1-296.4-67.1-305.4-76.3c-1.1-1.1,4.5-27,12.6-62.5v-0.7c1.9-8.4,14.7-38.9,30-73.9
		c30.5,8.4,139.8,37.9,179.5,50l-19.9,40c0,0,34.9,25.2,64.8,49.1l0,0c18.5,14.7,34.4,27.9,37.9,32.1
		C912.9,1578.9,915,1608.9,904.5,1609.8z"/>
	<path class="st6" d="M905.4,1611.2c-10.8,1-296.9-67.9-306.2-77.4c-3.5-3.6,2.8-48.8,18.5-96.7l184.3,44.8
		c0,0,94.2,74.5,103.2,86.1C914.3,1579.4,916.2,1610.2,905.4,1611.2z"/>
	<path class="st0" d="M904.1,1598.8c-47.7-12.6-241.2-59.6-289.3-68.5c-0.4,0-0.5,0.2,0,0.3c47,13.6,240.9,58.9,289.1,69
		C904.9,1599.8,905.1,1599,904.1,1598.8z"/>
	<path class="st0" d="M889.4,1553.1c-10.7-2.9-22.1-1.1-31.5,4.8c-8.4,5.2-14.4,13.5-16.8,23c0,0.3,0.5,0.4,0.6,0
		c8.1-18.7,27.5-29.8,47.7-27.3C889.5,1553.5,889.6,1553.3,889.4,1553.1C889.4,1553.1,889.4,1553.1,889.4,1553.1z"/>
	<path class="st0" d="M816,1490.2c-19.1-4.9-43-3.4-58.9,9.4c-0.6,0.5,0,1.3,0.8,1.2c18.9-4.7,38.3-7.5,57.8-8.1
		c0.7,0.1,1.3-0.4,1.4-1C817.2,1490.9,816.7,1490.3,816,1490.2L816,1490.2z"/>
	<path class="st0" d="M829.4,1499.5c-19.1-4.9-43-3.4-58.9,9.4c-0.6,0.5,0,1.3,0.8,1.2c18.9-4.7,38.3-7.5,57.8-8.1
		c0.7,0.1,1.3-0.4,1.4-1C830.6,1500.3,830.1,1499.6,829.4,1499.5z"/>
	<path class="st0" d="M842.9,1508.9c-19.1-4.9-43-3.5-58.9,9.3c-0.6,0.5,0,1.3,0.8,1.2c18.9-4.8,38.3-7.5,57.8-8.1
		c0.7,0,1.2-0.6,1.2-1.3C843.7,1509.5,843.4,1509.1,842.9,1508.9z"/>
	<path class="st0" d="M856.3,1518.3c-19.1-4.9-43-3.5-58.9,9.3c-0.6,0.5,0,1.3,0.7,1.2c18.9-4.8,38.3-7.5,57.8-8.1
		c0.7,0,1.2-0.6,1.2-1.3C857.1,1518.9,856.8,1518.4,856.3,1518.3z"/>
	<path class="st0" d="M638,1487.6c-21.6-5.1-29.4,28.4-8,33.7C651.5,1526.5,659.6,1492.8,638,1487.6z"/>
	<path class="st0" d="M849.1,1444c-7.8-10.4-21.9-5.5-29.9,1.5c-13.5,12.1-23.6,27.6-29.2,44.9c-0.1,0.3,0,0.6,0.3,0.6
		c0,0,0.1,0,0.2,0c0,1.5,1.4,3,3.1,2.4c15.9-6.2,33.7-10.8,47.3-21.7C848.7,1465.4,856.4,1453.8,849.1,1444z M815.7,1479.1
		c-7.8,3.2-15.6,6.1-23.3,9.5c5.8-8.7,11.1-17.7,17.7-25.8c3.1-4,6.5-7.7,10.1-11.3c5.7-5.3,28.4-16.8,25.2,4.5
		C843.8,1467.8,825,1475.3,815.7,1479.1L815.7,1479.1z"/>
	<path class="st0" d="M740.5,1485.9c16.1,6.6,34.5,6,51.5,7.4c1.3,0,2.4-1.1,2.4-2.4c0-0.3,0-0.5-0.1-0.8c0.3,0,0.5-0.5,0.3-0.8
		c-10.3-15-24.4-27-40.8-34.8c-9.6-4.2-24.6-5.1-29.1,7.1C720.4,1473.2,731.1,1482.1,740.5,1485.9z M731.6,1472.2
		c-9-19.6,16-15,23-11.4c4.5,2.3,8.8,5,12.9,7.9c8.7,6,16.3,13,24.3,19.8c-8.4-1.2-16.8-1.7-25.2-2.6
		C756.7,1484.9,736.5,1483,731.6,1472.2L731.6,1472.2z"/>
	<path class="st7" d="M818,1464.4l-196.8-52.7c0,0,172.9-358.6,159-378.6c-7-9.8-191.4-18.2-248.6-69.7
		c-74.3-66.9-20.2-164-20.2-164h206.1c0,0-3.7,43,4.2,49.8c5.2,4.5,250.1,32.4,274.6,116.1C1026.3,1067.9,818,1464.4,818,1464.4z"/>
	<path class="st0" d="M821.4,1435.6c-5.2-2.4-10.6-4.4-16.2-6.1c-5.7-2-11.4-4-17.2-5.8c-11.3-3.7-22.7-7.2-34.1-10.5
		c-23.1-6.6-46.3-13.2-69.3-19.2c-12.1-3.2-37.9-10-39.6-9.8c-0.8,0-1,1.4-0.3,1.7c22.4,8.1,45.1,15.1,67.8,22.2
		c22.7,7.1,45.5,14,68.5,19.9c6.4,1.6,12.6,3.1,19.2,4.7c6.7,2,13.5,3.5,20.4,4.5C821.5,1437.2,822.1,1435.9,821.4,1435.6z"/>
	<path class="st0" d="M815.9,1017.4c-4.2-3.7-10.2-4.2-15.4-5.3l-88.8-17.6c-27.7-5.5-55.5-10.5-83.1-16.8
		c-22.8-5.1-46-11.8-65.5-24.8c-18.9-12.9-32.7-32.1-38.7-54.1c-5.6-22.3-6.7-45.4-3.2-68.1c0.7-5.5,1.9-11,3.1-16.4
		c0-0.4-0.6-0.6-0.7,0c-8.8,42.1-10.9,91.1,19.7,125.7c14.9,16.8,35.8,27.1,57.3,34c24.2,7.8,49.6,11.9,74.5,16.8l88.8,17.5
		c14.3,2.8,28.7,5.1,42.8,8.4c2.9,0.4,5.5,1.7,7.7,3.7c2,3.1,2.4,7,1,10.3c-1.6,7-3.7,13.9-6,20.7c-17.9,55-143.4,315.5-146.8,321.5
		c-0.3,0.6,0.6,1.1,1,0.5c28.7-47.9,122.2-249,141.8-300.9c5.2-13.2,9.5-26.7,12.9-40.5C819.4,1026.9,820.1,1021.2,815.9,1017.4z"/>
	<path class="st0" d="M880.2,1338.2l-130.4-209.5c21-50.5,34.5-89.1,30.2-95.2c-3.4-4.8-48.7-9.3-101-18.5L545.5,799.5h172.3
		c0,0-3.7,43,4.2,49.8c5.2,4.5,250.1,32.4,274.6,116.1C1015.2,1030.2,938.8,1212.7,880.2,1338.2z"/>
	<path class="st5" d="M1198.9,1631.1c-10.1,3.1-303.8-6.7-314.5-14c-1.3-0.8-1-27.4,0-63.8v-0.5c0.6-23-0.6-220.1-0.6-220.1l183.9,4
		l5.7,194.2c0,0,39.2,17.7,73.2,35.2l0,0c21,10.7,39.2,20.4,43.4,24C1201,1599,1209,1628.1,1198.9,1631.1z"/>
	<path class="st1" d="M1198.9,1631.1c-10.1,3.1-303.8-6.7-314.5-14c-1.3-0.8-1-27.3,0-63.7v-0.6c0-1.6,0-3.2,0-4.9s0-2.4,0-3.5
		c0-1.2,0-3.5,0-5.3c0-15.4,0-40.2,0-67.3l187.4,4.2l1.6,54.7c0,0,39.2,17.8,73.2,35.2l0,0c21,10.7,39.3,20.4,43.4,24
		C1200.9,1599,1209,1628.1,1198.9,1631.1z"/>
	<path class="st6" d="M1200.1,1632.2c-10.4,3.1-304.5-7.5-315.5-15c-4.2-2.8-7-48.3-1.1-98.3l189.6,7c0,0,107.1,54.3,118.3,63.8
		C1202.5,1599.3,1210.5,1629.2,1200.1,1632.2z"/>
	<path class="st0" d="M1196.3,1620.3c-49.3-2.9-248.2-10.3-297.1-9.5c-0.4,0-0.4,0.3,0,0.3c48.8,4.2,247.8,9.8,297.1,10.1
		C1197.5,1621.1,1197.5,1620.4,1196.3,1620.3z"/>
	<path class="st0" d="M1172.8,1578.5c-11.1-0.7-21.9,3.3-29.9,11c-7.2,6.8-11.5,16.1-12,25.9c0,0.3,0.5,0.3,0.6,0
		c4.1-19.9,21-34.7,41.3-36.3c0.2-0.1,0.2-0.3,0.1-0.5C1172.9,1578.6,1172.9,1578.6,1172.8,1578.5z"/>
	<path class="st0" d="M1088.3,1531.5c-19.7-1-42.8,5.2-55.7,21c-0.5,0.6,0.4,1.3,1,1.1c17.6-8.4,36-15,54.9-19.5
		c0.7-0.1,1.2-0.7,1.2-1.4C1089.7,1531.9,1089.1,1531.4,1088.3,1531.5z"/>
	<path class="st0" d="M1103.4,1537.9c-19.7-1-42.8,5.2-55.7,21c-0.5,0.6,0.3,1.3,1,1.1c17.6-8.4,36-15,54.9-19.5
		c0.7-0.1,1.2-0.7,1.2-1.4C1104.7,1538.4,1104.1,1537.9,1103.4,1537.9L1103.4,1537.9z"/>
	<path class="st0" d="M1118.4,1544.3c-19.7-1-42.9,5.2-55.7,21c-0.5,0.6,0.4,1.3,1,1.1c17.6-8.4,36-15,55-19.4
		c0.7-0.1,1.3-0.7,1.2-1.5C1119.8,1544.8,1119.1,1544.3,1118.4,1544.3z"/>
	<path class="st0" d="M1133.4,1550.9c-19.7-1-42.9,5.1-55.7,21c-0.5,0.6,0.4,1.3,1,1c17.6-8.4,36-14.9,55-19.4
		c0.7-0.1,1.2-0.7,1.2-1.4C1134.8,1551.4,1134.2,1550.9,1133.4,1550.9z"/>
	<path class="st0" d="M913.4,1564.4c-22.2-0.7-23.3,33.7-1.1,34.4C934.5,1599.6,935.6,1565.4,913.4,1564.4z"/>
	<path class="st0" d="M1111.6,1479.6c-9.7-8.7-22.5-1-29,7.4c-10.8,14.6-17.6,31.8-19.7,49.8c-0.1,0.3,0.1,0.5,0.4,0.6
		c0.1,0,0.1,0,0.2,0c0.2,1.3,1.5,2.2,2.8,2c0.3,0,0.5-0.1,0.7-0.2c14.4-9.2,30.9-17.3,42.1-30.6
		C1115.5,1500.6,1120.7,1487.8,1111.6,1479.6z M1085.9,1520.7c-7,4.7-14.1,9-21,14c3.6-9.8,7.6-19.4,12.2-28.9
		c2.3-4.5,4.8-8.9,7.7-13c4.5-6.4,24.5-22.2,25.7-0.6C1111.1,1504,1094.1,1514.9,1085.9,1520.7z"/>
	<path class="st0" d="M1013.5,1542.4c17.1,3.2,35-1,51.9-3c1.3-0.3,2.1-1.6,1.8-2.9c0-0.2-0.1-0.4-0.2-0.5c0.2-0.2,0.3-0.5,0.1-0.7
		c0-0.1-0.1-0.1-0.1-0.1c-13.1-12.6-29.3-21.6-46.9-26c-10.3-2.4-25.2,0-27.1,12.6C991.3,1533.8,1003.5,1540.4,1013.5,1542.4z
		 M1002,1530.7c-12.6-17.4,12.6-17.8,20.3-15.8c4.8,1.4,9.6,3.1,14.2,5.2c9.5,4.4,18.7,9.3,27.7,14.6c-8.4,0.5-16.8,1.7-25,2.4
		C1029.2,1538.1,1009,1540.1,1002,1530.7z"/>
	<path class="st7" d="M1084.5,1503.1l-207.4-6.1c0,0,13.2-353.3-2.5-374.7c-21-28.4-323.9-36.7-386.4-129
		c-56-82.9-3.3-196.3-3.3-196.3h229.8c-5.9,24.4-13.7,48.3-23.4,71.5c0,0,275.1,59.3,350.1,146.4
		C1091.9,1073.9,1084.5,1503.1,1084.5,1503.1z"/>
	<path class="st0" d="M732.1,854.1c-6.7,1.3-13.3,3.2-19.6,5.6c-6.6,2.3-13.3,5-19.6,7.9c-12.7,5.8-25,12.3-37,19.5
		c-0.3,0.2,0,0.7,0.4,0.5c12.6-6.1,25.6-11.5,38.6-16.8l18.8-7.4c6.5-2.3,12.8-4.8,19-7.7C733.4,855.5,733.1,854,732.1,854.1z"/>
	<path class="st0" d="M720.1,797.1c-2.9,10.4-5.6,21-8.9,31.2c-1.5,4.7-3,9.5-4.9,14.1c-1.6,3.9-4.2,8.4-8.4,9
		c-5.3,0.8-6.6-3.7-6.1-8c0.5-4.3,2-9.5,3.1-14.2c1.3-5.4,2.5-10.8,3.7-16.3c0.5-2.7,1.1-5.4,1.7-8.1c0-0.7,0.8-5.9,1.2-7.4
		c0,0,0,0.3,0.3,0.2l0,0c0,0,0.3,0,0.3-0.3s0-0.5-0.3-0.8c-0.1-0.1-0.3-0.1-0.5,0c-1,0.5-1.1,1.9-1.5,2.9c-0.9,2.6-1.9,5.3-2.7,7.9
		c-1.6,5-3.2,9.9-4.5,14.9c-1.4,5-2.8,10.1-4.2,15.1c-1.4,3.7-1.9,7.7-1.4,11.6c0.8,3.8,4.1,6.7,8,6.9c0,0.3-0.4,0.7-0.6,1
		c-0.5,1-0.8,2.1-1.3,3.2c-0.4,1.1-0.8,2.1-1.2,3.2c-0.1,0.5-0.3,1.1-0.3,1.6c0,0.6,0,1.2,0,1.8c-0.1,0.5,0.3,0.9,0.7,1
		c0.3,0,0.7-0.1,0.8-0.4c0.3-0.5,0.7-0.9,1.1-1.4c0.3-0.5,0.6-1.1,0.8-1.7c0.4-1.1,0.7-2.1,1-3.2s0.7-2.1,0.9-3.2s0-1.3,0.3-1.9
		c2.2-0.1,4.3-0.8,6.1-2.1c3-2.4,5.3-5.7,6.6-9.4c1.7-4.2,3.1-8.8,4.2-13.3c3.6-11,6.1-22.2,7.7-33.7c0-0.5-0.5-0.9-1-0.9
		C720.5,796.6,720.2,796.8,720.1,797.1z"/>
	<path class="st0" d="M582.8,818.6c-1.1,5.2-1.9,10.4-3.2,15.5c-1.4,5.1-2.8,10-4.6,14.9c-1.6,4.7-3.9,9.2-6.8,13.3
		c-3,3.9-6.5,7.3-10.5,10.1c-7.6,5.7-16,10-25,13c-4.5,1.5-9.1,2.7-13.8,3.6c-2.4,0.5-4.9,0.8-7.4,1.1c-2,0-4,0.4-5.9,1.2
		c-0.6,0.4-0.7,1.1-0.4,1.7c0.1,0.2,0.2,0.3,0.4,0.4c3.5,1.2,7.3,1.4,10.9,0.7c3.9-0.3,7.8-0.9,11.7-1.7c7.8-1.7,15.3-4.6,22.3-8.4
		c7.1-3.7,13.4-8.6,18.8-14.5c5.1-6.2,8.7-13.5,10.5-21.2c2.7-9.5,4.2-19.3,4.2-29.2c0.1-0.3-0.1-0.6-0.4-0.7
		C583.2,818.2,582.9,818.3,582.8,818.6L582.8,818.6z"/>
	<path class="st0" d="M914,1259.1c-1-32.6-2.8-65.3-5.2-97.9c-0.6-8-1.1-16.1-1.9-24.1c-0.4-6.2-1.6-12.4-3.5-18.4
		c-4.4-12.4-14.4-18.8-26.6-22.3c-14.4-4.2-29.4-6.7-44-9.6c-14.6-2.9-30.1-5.5-45.1-8.1c-30.5-5.2-61.2-10.1-91.5-16.1
		c-30.3-5.8-60.2-13.6-89.6-23.1c-26.9-9-54.4-19.9-75.7-39.4c-45.5-42.1-45.2-109.8-37.9-166.4c1.1-8,2.3-16,3.5-23.9
		c0-0.4-0.6-0.6-0.6,0c-4.7,31.9-9.9,63.9-7.7,96.2c1.3,26.7,9.5,52.7,23.6,75.4c15.1,23.2,38.1,38.5,63.1,49.5
		c27.6,11.6,56.1,20.7,85.3,27.3c60.2,14.5,122,21.7,182.6,33.9c7.5,1.5,15,3.1,22.4,4.8c6.9,1.2,13.7,3.3,20.1,6
		c13.6,6.6,16.8,20.2,18.3,34.2c3,32.5,4.8,65.1,6.1,97.7c2.8,65.7,3.3,131.6,1.3,197.3c-0.3,8.1-0.5,16.2-0.9,24.3
		c0,0.7,1.1,0.7,1.1,0C915.1,1390.7,916.2,1324.9,914,1259.1z"/>
	<path class="st0" d="M1075.5,1477.9c-5.7-1.1-11.4-1.7-17.2-2c-6-0.5-12.1-1.1-18.1-1.5c-11.9-0.8-23.8-1.5-35.6-1.9
		c-23.9-0.8-47.9-1.5-71.8-1.6c-12.6,0-39.3-0.4-40.8,0.3c-0.7,0.3-0.5,1.6,0,1.7c23.7,2.4,47.5,3.6,71.3,4.9s47.5,2.5,71.3,2.6
		c6.6,0,13.2,0,19.7,0c7,0.3,14,0.1,21-0.6C1076,1479.5,1076.3,1478.1,1075.5,1477.9z"/>
	<path class="st8" d="M709.5,603.3c20.7,88.7,26.2,152.9,51.4,169.4c20.3,13.3,48.8,22.7,78.2,29.2c31.4,6.6,63.1,11.2,95.1,13.6
		c9.8,0.8,18,1.3,23.9,1.8c14.4,0.9,37.9-94.1,27.7-105.6c-2.4-2.7-11.8-4.7-25.2-6.4c-44.8-5.6-132.9-6.9-138.1-11.9
		c-5.3-5-42.1-65.6-74.3-122.2C717.5,516.9,696.5,546.9,709.5,603.3z"/>
	<path class="st8" d="M929.3,807.7c13.9,6.2,28.2,11.5,42.8,15.8c11.6,2.9,45.3,10.4,49.8-2.1c3.1-8.4-16.2-15.3-29.8-20.3
		c-7.2-2.7-16.1-9.7-14.2-14.3c3.3-8,21.7-0.8,33.9,5.7c23.5,12.6,55,35.4,68.6,23.3c5.2-4.6-1.3-12.6-10.6-20
		c15,8.7,30.9,15.6,36.8,10.7c3.2-2.6,3.8-7.2,1.3-10.6c3.8,1.6,8.3,0.8,11.2-2.2c4.6-5.1,2-12.4-3.5-19.8c1.8-0.3,3.4-1.4,4.2-3
		c9.5-15.7-42.6-58-60.2-61.5c-51.8-10.3-106.2-3.8-106.2-3.8C933.9,722.5,929.2,807.7,929.3,807.7z"/>
	<path class="st0" d="M1002.9,757.1c12.3,1.4,24.2,5.5,34.7,11.9c12.3,7.8,22.2,18.6,33.7,27.6c0.3,0.3,0,0.7-0.4,0.5
		c-5.4-4.6-11.3-8.7-16.8-13.1c-5.6-4.4-10.8-8.8-16.5-12.6c-10.3-7.2-22.2-12-34.7-13.9C1002.9,757.4,1002.8,757.1,1002.9,757.1z"
		/>
	<path class="st0" d="M1011.7,734.9c13.8,2.7,27.3,6.9,40.3,12.3c14,6.5,25.2,17.5,36,28.1c6.6,6.3,13.1,12.8,19.3,19.4
		c0.3,0.3,0,0.8-0.4,0.5c-11.2-10.9-22.7-21.5-34.3-31.8c-10.8-9.6-23.5-16.9-37.2-21.5c-7.8-2.7-15.8-4.7-23.9-6.8
		C1011.5,735.2,1011.6,734.9,1011.7,734.9z"/>
	<path class="st0" d="M1025.4,715.4c13.2,2.2,24.7,4.2,36.6,10.7c13.4,8.2,25.6,18,36.5,29.2c6,5.9,11.8,12,17.5,18.3
		c0.2,0.3-0.2,0.7-0.5,0.4c-13-13.6-26.8-26.3-41.4-38.1c-6.9-5.7-14.6-10.4-22.9-13.7c-8.4-2.9-17-5-25.8-6.4
		C1025.4,715.7,1025.4,715.4,1025.4,715.4z"/>
	<path class="st6" d="M910.9,819.2l41.6-117.3c0,0-120.1-5-127.8-10.1c-7.7-5-47.4-77.9-77.3-126.8c-23.6-38.4-52.9-35.7-39.5,41.8
		c14.1,81.6,25.9,145.9,46.3,164.6C788.6,803.1,910.9,819.2,910.9,819.2z"/>
	<g class="st9">
		<path d="M726.3,542.8l-12.6-0.3C717.7,540.3,722.5,540.4,726.3,542.8z"/>
		<path d="M750.9,571l-46.5-0.8c0.1-4.4,0.5-8.9,1.4-13.2l36.4,0.6c1.8,2.4,3.5,4.9,5,7.5L750.9,571z"/>
		<path d="M767.6,599.1l-61.2-1.2c-0.7-4.8-1.1-9.2-1.5-13.3l54.7,1L767.6,599.1z"/>
		<path d="M784,627.3L711,626c-0.8-4.2-1.6-8.8-2.4-13.3l67.3,1.2L784,627.3z"/>
		<path d="M800.4,655.3l-84.4-1.6c-0.8-4.2-1.6-8.8-2.4-13.3l79,1.5C795.3,646.6,797.8,651,800.4,655.3z"/>
		<path d="M817.8,683.4l-96.3-1.8c-0.9-4.2-1.8-8.7-2.7-13.3l90.4,1.6C812.5,675.3,815.4,679.8,817.8,683.4z"/>
		<path d="M952.5,701.9l-4.2,11.6l-220.6-4.2c-1.1-4.2-2.1-8.7-3.2-13.3l178.4,3.2l0,0C929.5,701,952.5,701.9,952.5,701.9z"/>
		<path d="M943.2,728l-4.6,13.1l-202.9-3.7c-1.4-4.2-2.8-8.4-4.2-13.3L943.2,728z"/>
		<path d="M933.5,755.6l-4.7,13.2l-179.9-3.3c-2.9-4.2-5.4-8.7-7.4-13.4L933.5,755.6z"/>
		<path d="M923.7,783.2l-4.6,13.2l-120.6-2.2c-11-3.6-21.7-8.2-31.9-13.8L923.7,783.2z"/>
		<path d="M913.9,810.8l-3,8.4c0,0-24.1-3.2-53.9-9.5L913.9,810.8z"/>
	</g>
	<path class="st0" d="M908.6,758c3.3-9.2,6.5-18.4,9.6-27.7c3.1-9.3,5.6-19.4,9.1-28.9c0-0.4-0.5-0.5-0.6,0
		c-3.4,9.5-7.7,18.6-11.3,28c-3.6,9.4-6.9,18.2-10.2,27.4c-6.6,18.5-13.4,37.1-18.8,56c0,0.5,0.7,0.9,1,0.4
		C895.4,795.1,902,776.5,908.6,758z"/>
	<path class="st0" d="M815.3,799.4c-25.2-7.3-48.9-16.8-61.2-28c-20.4-18.8-32.2-83-46.3-164.6c-10.9-62,5.9-76.2,25-59.4
		L815.3,799.4z"/>
	<path class="st6" d="M739.5,849.1c-7.1,5.3-280-2.4-281.1-4.2c-2.9-5.4,80.8-251.7,200.2-324.5c21-12.6,51.9-2.2,65,9
		c6.6,5.6,24.7,46.7,26.1,79.9S744,845.7,739.5,849.1z"/>
	<g class="st9">
		<path d="M732,542.9l-101.5-1.9c5.3-4.7,10.8-9,16.3-13l77.1,1.4C727.2,533.6,730,538.1,732,542.9z"/>
		<path d="M742.6,570.9L603,568.3c4-4.5,8.1-8.8,12.3-13l122.9,2.2C739.7,561.8,741.2,566.3,742.6,570.9z"/>
		<path d="M748.8,598.8l-168.3-3.1c3.4-4.5,6.8-8.8,10.3-13.1l155.6,2.9C747.4,589.9,748.2,594.4,748.8,598.8z"/>
		<path d="M749.9,626.5l-188.7-3.4c2.9-4.4,5.9-8.8,8.9-13.1l179.8,3.2C749.9,616.8,749.9,621.3,749.9,626.5z"/>
		<path d="M749.7,641.1c0,4.2,0,8.4-0.2,13.3l-205.7-3.7c2.6-4.4,5.3-8.8,8-13.1L749.7,641.1z"/>
		<path d="M749.1,668.9c0,4.3-0.1,8.7-0.4,13.3l-220.6-4.2c2.4-4.2,4.8-8.7,7.3-13.1L749.1,668.9z"/>
		<path d="M748.3,696.6c0,4.2-0.3,8.8-0.4,13.3l-234.1-4.2c2.1-4.2,4.2-8.7,6.6-13.1L748.3,696.6z"/>
		<path d="M747.4,724.4l-0.5,13.3l-246.4-4.5c2-4.2,4.2-8.7,6.2-13.1L747.4,724.4z"/>
		<path d="M746.3,752.1c0,4.5-0.3,8.9-0.5,13.3l-257.6-4.7c1.9-4.2,3.8-8.7,5.8-13.1L746.3,752.1z"/>
		<path d="M745.1,779.9c-0.2,4.5-0.4,9-0.7,13.2l-267.5-4.8c1.6-4.2,3.4-8.4,5.3-13.2L745.1,779.9z"/>
		<path d="M743.6,807.7c-0.3,4.7-0.5,9.2-0.8,13.3l-276.1-5.1c1.4-4.2,3-8.4,4.8-13.2L743.6,807.7z"/>
		<path d="M741.7,835.4c-0.2,4.4-0.8,8.9-1.9,13.2l-281.4-5.2c0.9-4.5,2.1-8.9,3.5-13.2L741.7,835.4z"/>
	</g>
	<path class="st6" d="M747.8,435.5c0,16.4,11.7,29.7,26,29.7c14.4,0,26-13.3,26-29.7s-11.7-29.4-26-29.4
		C759.5,406,747.8,419.1,747.8,435.5z"/>
	<ellipse class="st2" cx="768.4" cy="436.5" rx="29" ry="33"/>
	<path class="st8" d="M717.9,569.1c-15.8,2.8-41.2-22.5-50.5-42.4c-0.6-1.3,7.9-53.9,8.4-64.5c0-2.2,65.5,19.9,65.5,19.9
		c-4.6,13-7.5,26.6-8.7,40.3C732.6,523.9,733.2,566.4,717.9,569.1z"/>
	<path class="st0" d="M732.9,526.7c0,0,0,0.5,0,0.7h-0.3c-2.2,0.2-4.4,0.2-6.5,0c-36.1-2.9-45.7-48-48.1-65.3
		c11.1,2.2,63.5,19.9,63.5,19.9c-4.5,13-7.5,26.4-8.7,40.1c0,0.5,0,1,0,1.5C732.6,524.7,732.7,525.7,732.9,526.7z"/>
	<path class="st8" d="M685.5,378.6c-12.2,21.5-14.9,90.7-1.9,109.4c18.9,26.8,57.3,37.6,82,13.2c23.9-23.7,25.9-114,10.6-131.6
		C753.8,343.5,703.5,346.9,685.5,378.6z"/>
	<path class="st0" d="M742.6,433.8c0,0-0.4,0.2-0.4,0.4c0,4.7-0.9,10-5.2,11.4 M737,445.9c5.2-0.6,6.2-7.8,5.6-12L737,445.9z"/>
	<path class="st0" d="M733.8,434.8c-0.8,7.5,6.6,9.1,7.3,2.2C741.9,430.1,734.6,428.6,733.8,434.8z"/>
	<path class="st0" d="M770.2,434.8c-0.8,7.5,6.6,9.1,7.3,2.2C778.3,430.1,771,428.6,770.2,434.8z"/>
	<path class="st0" d="M768.4,436.6c0,0,0.3,0.3,0.3,0.4c-0.5,4.7-0.4,10.1,3.7,11.9c0,0,0,0.3,0,0.3
		C767.1,448.1,766.9,440.9,768.4,436.6z"/>
	<path class="st0" d="M733.3,421.2c2.1-0.4,4-1,6-1.6c2.2-0.3,4.2-1.2,5.8-2.8c0.9-1.1,0.9-2.7,0-3.9c-2.2-1.9-5.2-2.5-7.9-1.5
		c-2.8,0.6-5.4,2.1-7.1,4.5c-1,1.6-0.6,3.7,1,4.7C731.7,421.1,732.5,421.3,733.3,421.2z"/>
	<path class="st0" d="M779.2,425c-2-0.6-3.9-1.2-5.8-2c-2.1-0.5-4.1-1.6-5.6-3.2c-0.7-1.3-0.5-2.8,0.5-3.9c2.3-1.7,5.4-2,8-0.8
		c2.8,0.8,5.2,2.5,6.7,5c0.9,1.6,0.3,3.7-1.3,4.6C780.9,425.1,780,425.2,779.2,425z"/>
	<path class="st0" d="M721.2,483c0.5,1.5,0.8,3.3,2.2,4.2c1.5,0.8,3.2,1.2,5,1.3c0,0,0.3,0.1-0.1,0.2c-2.1,1-4.5,0.8-6.4-0.5
		c-1.4-1.3-2-3.3-1.4-5.2C720.8,482.7,721.1,482.8,721.2,483z"/>
	<path class="st0" d="M739.5,462.8c2.1,3.9,5.7,6.8,10,8c1.8,0.5,3.8,0.8,5.7,0.8h1.1h1.1c0.5-0.1,0.9-0.5,1-1l0,0
		c0-0.2,0-0.3,0-0.5l0,0v-0.4c0.4-3.5,0.5-9,0.5-9c1.3,0.8,7.7,4.2,7.7,2.5c0.9-16.2,0.2-32.4-2.1-48.5c0-0.2-0.2-0.4-0.4-0.4
		c-0.2,0-0.4,0.2-0.4,0.4c-1,14.9,0.7,29.9,0,45c-2.3-1.3-4.7-2.3-7.3-2.9c-0.5,0,0,10.6-0.3,12.2l0,0c-6,0.1-11.8-2.2-16-6.5
		C739.6,462.2,739.2,462.5,739.5,462.8z"/>
	<g>
		<path class="st0" d="M753.1,476.7c-4.2,4.6-9.4,8-15.3,10c-3.2,1-6.6,1-9.8,0c-7-2.4-6.6-9-4.8-14.4c1-2.8,2.3-5.5,3.9-8
			C734.2,471,743.3,475.4,753.1,476.7z"/>
		<path class="st5" d="M737.8,486.7c-3.2,1-6.6,1-9.8,0c-7-2.4-6.6-9-4.8-14.4C730.8,473.1,736.8,479.1,737.8,486.7z"/>
	</g>
	<path class="st0" d="M680.9,429.6c16.1,0,19.5-29,19.5-29s27.6-4.2,31.8-25c0,0,26,16.8,46.7,9.8c20.7-7.1,18-32.9,15.8-37.9
		c-5.3-11.4-22.5,3-22.5,3s-25.8-15.9-55.3-13.3c-24,2.1-36.3,24.6-36.3,24.6s-12.9,2.6-17.1,11.6S670.7,429.6,680.9,429.6z"/>
	<path class="st10" d="M664.1,433.1l-2.2-1.4c0.7-1.1,6.7-10.3,12.6-10.7c5.9-0.4,41,6.3,42.5,6.6l-0.5,2.6
		c-10.1-1.9-37.4-6.8-41.8-6.5S665.7,430.6,664.1,433.1z"/>
	<path class="st5" d="M687.6,436c0,0-10.7-24.7-21.6-21.3s-5.9,37,4.8,43.6c5.3,3.8,12.8,2.6,16.6-2.8c0.1-0.1,0.1-0.2,0.2-0.3
		L687.6,436z"/>
	<path class="st0" d="M667.7,424.3c0,0-0.3,0,0,0.3c7.4,4.9,10.1,13.3,11.5,21.6c-1.2-3.5-4.9-5.3-8.4-4.1c-0.3,0.1-0.6,0.2-0.9,0.4
		c-0.1,0-0.3,0.1-0.3,0.3c0,0.1,0.1,0.2,0.3,0.3c3.1-0.3,6.1,1.4,7.4,4.2c1.1,2.3,1.9,4.7,2.5,7.2c0.3,0.8,1.6,0.7,1.5-0.2l0,0
		C683.6,443.6,678.5,427.6,667.7,424.3z"/>
	<path class="st2" d="M671.9,418.1c0,0-2-35.8,8.7-55.4c11.9-21.9,58.9-36,91.6-12.1c0,0-52.1-16.4-77.5,13.8
		c-10.7,12.6-10.9,54.7-10.9,54.7L671.9,418.1z"/>
	<ellipse class="st2" cx="676.3" cy="436.5" rx="29" ry="33"/>
	<path class="st6" d="M696.9,435.5c0,16.4-11.7,29.7-26,29.7c-14.4,0-26-13.3-26-29.7s11.7-29.4,26-29.4
		C685.2,406,696.9,419.1,696.9,435.5z"/>
	<path class="st0" d="M781.5,624c-2.9,1.3-13.1,7.6-16.8,7.9c-3.4,0-6.6-1.3-9-3.7c-2.8-2.2-5.6-4.5-8.4-6.6l-10.6-8l-0.5-0.7
		c-0.5-0.8-1.1-1.5-1.6-2.2l-3.4-4.2c-2.3-2.8-4.6-5.5-6.9-8.2c-0.3-0.3-0.8,0-0.5,0.5c2.3,2.8,4.5,5.8,6.6,8.8l2.1,2.9l-1.7-1.3
		c-2.8-2.1-11.6-8.4-16.8-12.6c-0.4-0.3-0.8,0-0.4,0.5c4.9,3.8,15.8,13.4,18.8,15.9c5.9,5,11.8,10,17.9,14.8
		c4.6,3.6,9.5,8.4,15.9,6.9c5.7-2.6,11-5.8,15.9-9.7C782.7,624.4,782,623.8,781.5,624z"/>
	<g>
		<g>
			<path class="st8" d="M1049.3,725.7c-4,14.1-38,1.4-38,1.4c4.1,4.8,6.3,10.9,6.4,17.2c-0.2,11.2-18,15.5-18,15.5
				c3.2,5.9,4.6,12.6,4,19.3c-1.4,10.6-18.6,17.5-18.6,17.5c0,7-2.6,13.8-7.2,19.2c-12.9,13.7-41.1,8.1-59,4.7
				c-17.9-3.4-65.8-29.8-75.3-33.9L864.2,671c0,0,84.9-7.7,105.5-0.9C987,676.3,1055.4,704.1,1049.3,725.7z"/>
			<path class="st0" d="M1011.1,726.6c-16.9-10.7-36.4-17.3-55.2-23.4c-0.2-0.1-0.4,0-0.4,0.2c-0.1,0.2,0,0.4,0.2,0.4
				c18.8,5.9,36.4,17,54.9,23.7c0.3,0.1,0.5-0.1,0.6-0.4C1011.3,726.9,1011.3,726.7,1011.1,726.6z"/>
			<path class="st0" d="M999.8,758.2c-4.1-2-8.4-3.5-12.9-4.5c-4.7-1.3-9.4-2.5-14.1-3.6c-9.4-2.2-18.8-4.3-28.3-6
				c-0.4-0.2-0.6,0.5-0.3,0.7c9.4,2.2,18.7,4.6,28,7.3c4.7,1.3,9.2,2.7,13.9,4.1c4.3,1.6,8.7,2.7,13.2,3.3c0.4,0,0.7-0.2,0.8-0.6
				C1000.1,758.6,1000,758.4,999.8,758.2z"/>
			<path class="st0" d="M984.8,796.5c-3.7-1.8-7.7-2.9-11.8-3.4c-4.3-0.9-8.6-1.9-12.9-2.9c-8.6-2-17.2-3.9-25.6-6.3
				c-0.4-0.2-0.6,0.5-0.3,0.6c8.6,2.3,17.2,4.8,25.9,7.1l12.8,3.2c3.8,1.3,7.8,2,11.8,1.9C984.8,796.7,984.8,796.6,984.8,796.5z"/>
			<g>
				<path class="st8" d="M613.9,581.4c-4.6,77.2,14.9,166.1,52.4,189.8c37.5,23.7,160.3,23,198.4,21.4
					c14.7-0.6,18.3-123.1,2.6-122.3c-26.7,1.4-146,15.7-152.8,10.2c-4.3-3.4-33-53.4-54.3-102.1
					C632.3,515.2,615.3,557.4,613.9,581.4z"/>
				<g>
					<path class="st6" d="M831.8,668.1l-1.1,134.8c0,0-139.1-4-171.2-30.6c-32.2-26.6-51.4-122.4-49.1-173.6
						c2.3-51.2,22.4-86.8,57.6-13c35.2,73.7,46.1,90.9,49.9,91.8C721.6,678.2,831.8,668.1,831.8,668.1z"/>
					<g class="st9">
						<path d="M668.8,587.5l-53.2-23.8c1.2-4.3,2.9-8.4,5.2-12.2l38.1,17c2.9,4.8,5.9,10.5,9,17L668.8,587.5z"/>
						<path d="M678.5,607.8c3.2,6.8,6.3,12.9,9.2,18.6l-77-34.4c0.4-4.8,0.9-9.4,1.6-13.8L678.5,607.8z"/>
						<path d="M831.6,690.7l-42-18.8l27.1-2.4l15.1,6.7L831.6,690.7z"/>
						<path d="M698.2,647c4.4,8.5,7.9,14.8,10.7,19.3l-98.3-43.9c-0.3-5.1-0.3-10-0.5-14.7L698.2,647z"/>
						<path d="M831.3,721l-99.1-44.3c7.4-0.5,17.1-1.4,27.5-2.2l71.7,32L831.3,721z"/>
						<path d="M831.1,751.3l-217.2-96.9c-0.8-5.2-1.4-10.4-2-15.4l219.4,97.8L831.1,751.3z"/>
						<path d="M830.8,781.6l-210.7-94.1c-1.3-5.1-2.4-10.7-3.4-16L831,767.1L830.8,781.6z"/>
						<path d="M830.6,802.9c0,0-9-0.3-22.4-1l-177.8-79.4c-2-5.4-3.7-11.1-5.4-16.9l205.8,92L830.6,802.9z"/>
						<path d="M764.7,798.4c-15.3-1.6-31.5-3.6-46.9-6.2l-68.4-30.6c-4.4-6.2-8.2-12.7-11.3-19.6L764.7,798.4z"/>
					</g>
					<path class="st0" d="M829.4,802.3c-20.8-1-41.5-2.3-62.3-4.7c-20.7-2.4-72.9-10.6-92.5-18.2c-9-3.9-16.8-10.2-22.4-18.2
						c-5.7-8-10.4-16.7-13.8-25.9c-3.8-9.4-7.1-19-10.3-28.5c-3.8-10.7-7-21.9-10.3-33c-3.3-11-6.9-23.3-9.6-35.1
						c-0.1-0.4-0.7-0.3-0.7,0.1c2.3,10.5,4.2,21,6.7,31.4c1,4.3,2.1,8.5,3.3,12.8c-0.9-1.5-1.8-3.1-2.6-4.5
						c-3.6-5.6-7.3-11.2-10.6-17c-0.2-0.4-0.8-0.1-0.6,0.3c3.5,5.6,6.3,11.6,9.3,17.4c1.5,2.9,2.9,5.8,4.5,8.5l2.3,3.9l0.3,0.5
						l2.4,8.6c2.9,10.4,6.2,20.3,9.7,30.3c3.1,9.5,7.2,18.6,12.4,27.1c4.8,8.5,11.6,15.7,19.9,21c17.2,9.8,71,18.4,92.4,21
						c23.9,3.2,48.1,4.7,72.2,4.6C830.6,804.6,830.9,802.3,829.4,802.3z"/>
					<path class="st0" d="M809.4,736c0.2-9.8,0.3-19.6,0.4-29.3c0-10-0.6-20.1-0.5-30.3c0.1-0.3-0.7-0.3-0.7,0
						c-0.2,10-1.4,20.1-1.9,30.1s-0.8,19.5-1,29.2c-0.4,19.7-1,39.5,0,59.1c0.1,0.3,0.4,0.5,0.7,0.4c0.2,0,0.3-0.2,0.4-0.3
						C808.6,775.5,808.9,755.7,809.4,736z"/>
				</g>
			</g>
		</g>
	</g>
</g>
<g id="freepik--Table--inject-77">
	<rect x="123.7" y="800.6" class="st7" width="1508.2" height="53.6"/>
	<rect x="123.7" y="833.3" class="st10" width="1508.2" height="20.9"/>
	<polygon class="st10" points="177.8,1606.8 156.1,1606.8 219.2,854.3 274.5,854.3 	"/>
	<polygon class="st0" points="274.5,854.3 268.1,904.6 215,904.6 219.2,854.3 	"/>
	<polygon class="st10" points="1577.8,1606.8 1599.4,1606.8 1536.3,854.3 1481,854.3 	"/>
	<polygon class="st0" points="1481,854.3 1487.5,904.6 1540.5,904.6 1536.3,854.3 	"/>
</g>
<g id="freepik--Device--inject-77">
	<polygon class="st0" points="1302.7,800.6 928,800.6 1019,550.7 1393.7,550.7 	"/>
	<polygon class="st7" points="1315.9,800.6 941.3,800.6 1032.3,550.7 1406.9,550.7 	"/>
	<polygon class="st0" points="1406.9,550.7 1315.9,800.6 1164.4,800.6 1371.9,550.7 	"/>
</g>
<g id="freepik--Coffee--inject-77">
	<polygon class="st6" points="1049.2,683.7 1039.9,800.6 975.5,800.6 966.2,683.7 	"/>
	<rect x="960.1" y="673.1" class="st10" width="94.6" height="17"/>
	<polygon class="st7" points="1048.3,673.1 966.6,673.1 971.4,653.9 1043.5,653.9 	"/>
	<path class="st11" d="M1030,743.2c0,15.2-10,27.5-22.3,27.5c-12.3,0-22.3-12.3-22.3-27.5s10.2-27.5,22.3-27.5
		C1019.9,715.7,1030,728,1030,743.2z"/>
</g>
<g>
	<defs>
		<rect id="SVGID_1_" x="2085.7" y="-44.2" width="291.3" height="206"/>
	</defs>
	<clipPath id="SVGID_00000061465763340658513410000009178496361952218811_">
		<use xlink:href="#SVGID_1_"  style="overflow:visible;"/>
	</clipPath>
	<g style="clip-path:url(#SVGID_00000061465763340658513410000009178496361952218811_);">
		<g>
			<defs>
				<rect id="SVGID_00000004519110696224950870000004460003751767110279_" x="1942.8" y="-104.4" width="452.8" height="452.8"/>
			</defs>
			<clipPath id="SVGID_00000134222647387784511750000013999522425222567082_">
				<use xlink:href="#SVGID_00000004519110696224950870000004460003751767110279_"  style="overflow:visible;"/>
			</clipPath>
			<g style="clip-path:url(#SVGID_00000134222647387784511750000013999522425222567082_);">
				<g>
					<path class="st14" d="M1984.6,57.1l96.3-4.6c12.7-0.6,24-0.6,33,5.3c5.3,3.5,9.1,10.1,9.5,16.6c0.3,4.8-1.4,8.9-4.6,11.6
						c-4.4,3.7-10.5,4-16.5,4.4c-1.6,0.1-3.2,0.2-4.8,0.3c-8.4,0.8-16.8,5.7-16.6,13.2c0.1,4,2.5,7.4,6.9,9.7
						c3.4,1.8,8.2,3,13.1,3.2c8.1,0.4,15.1,0.1,21.4-1c7.6-1.3,14.3-3.8,19.8-7.4c6.1-3.9,10.9-9.8,13.7-16.5
						c3-7.1,3.2-14.4,0.7-20.7c-2.3-5.8-6.6-10.4-10.8-14.8c-2.8-3-5.6-6-7.9-9.4c-0.8-1.2-1.4-2.4-2-3.8c-1.4-3.5,0.6-6.2,3.1-7.3
						c2.5-1.1,5.9-0.6,7.5,2.8c9.3,19.8,27.9,34.7,48.6,38.7c3.9,0.8,7.9,1.1,11.9,1.1c9.5,0,19.2-2.1,28.3-6.1
						c12.9-5.7,23.7-15.2,30.6-26.6l0.4-0.6c2-3.4,4.2-6.9,7.7-7.8c2.8-0.7,4.9,0.6,6.1,1.9c3,3,4.5,8.7,3.4,13.2
						c-0.7,2.7-1.8,5.4-2.9,8.1c-1.8,4.4-3.7,8.9-3.5,13.7c0.3,4.9,2.8,9.4,7.2,12.8c4,3.1,9.2,4.9,14.2,4.9c0.1,0,0.2,0,0.2,0
						c8.8-0.1,17.8-4.4,26.8-12.9c3.3-3.1,6.3-6.5,9.3-9.7c3.6-4,7.4-8.2,11.5-11.7c5.7-5,12.6-8.7,19.2-10.5
						c7.5-2,14.7-1.6,20.7,1.2c6.9,3.2,11.9,11,12.4,19.4c0.4,6.6-2.2,12.1-7,15.1c-7.3,4.5-16,2.4-25.2,0.3
						c-8.8-2.1-17.9-4.2-25.7,0c-4.6,2.5-7.8,7.2-8.9,13c-1.3,6.9,0.6,14.3,4.8,19.4c3.7,4.4,9.1,7.6,15.4,9.3
						c5.8,1.5,12.2,1.6,18.4,0.4c12.3-2.5,23.2-9.3,32.8-15.4c15.3-9.6,26.4-11.5,33.9-5.6c3.1,2.5,5.2,6.3,5.7,10.8
						c0.5,4.3-0.4,8.9-2.5,12.6c-4.7,8.4-13.7,12.9-20.5,15.2c-14,4.8-29.4,5.2-47,1.1c-13.6-3.1-28.2-8.8-45.8-17.8
						c-3.7-1.9-7.5-3.9-11.2-5.8c-25.2-13.2-51.3-26.9-79.7-27.4c-6.7-0.1-12.8,0.7-18.1,2.3c-6.3,2-11.4,5.1-15.2,9.3
						c-4.6,5.1-6.7,12.6-5.6,19.6c0.9,5.6,3.8,10.1,8.1,12.6c4.3,2.5,9.2,3.1,14.9,1.7c5.1-1.2,10.3-3.8,15.5-6.2
						c9.2-4.5,18.8-9.1,27.9-6.3c10,3.1,14.7,13.5,19.2,23.6c1.5,3.5,3.1,7,4.9,10.3c4.6,8.2,11.4,15.1,19.9,20.1
						c8.3,4.8,17.5,7.3,26.6,7.3c0.2,0,0.5,0,0.7,0c8.3-0.1,16.4-2.2,24.3-4.2c4.1-1,8.3-2.1,12.4-2.9c19-3.6,29.6,1.4,35,6.2
						c4.5,4,7.3,10.1,7.4,16.4c0.1,5.3-1.7,9.9-5.1,13.1c-4.6,4.3-11.6,4.2-16.5,2.1c-5-2.2-8-6.2-8.1-10.8c0-2.6,0.8-5,1.6-7.5
						c0.4-1.2,0.8-2.5,1.1-3.8c1.2-5,0.2-9.3-2.7-11.6c-1.8-1.4-4.1-1.9-6-1.1c-2.7,1.1-3.6,4.1-3.9,6.5c-0.2,1-3.5,22.7,1.5,32.4
						c4,7.6,12.1,13.6,22.3,16.4c7.7,2.1,15.8,2.4,23.7,2.4c1.4,0,2.8,0,4.2,0c0.3,0,0.6-0.3,0.6-0.6c0-0.3-0.3-0.6-0.6-0.6h0
						c-9.2,0.1-18.6,0.1-27.6-2.3c-9.9-2.7-17.7-8.5-21.5-15.8c-4.8-9.3-1.4-31.4-1.4-31.6c0,0,0,0,0,0c0.3-2.9,1.4-4.8,3.1-5.5
						c1.4-0.6,3.2-0.2,4.7,0.9c3.6,2.9,2.6,8.6,2.2,10.3c-0.3,1.3-0.7,2.5-1.1,3.7c-0.8,2.5-1.6,5.2-1.6,7.9c0,5.1,3.3,9.6,8.8,11.9
						c5.2,2.3,12.8,2.4,17.8-2.3c3.6-3.4,5.6-8.4,5.5-14.1c-0.1-6.7-3-13.1-7.8-17.3c-4.4-3.9-10.1-6.3-17-7.3
						c-5.7-0.8-12.1-0.5-19.1,0.8c-4.2,0.8-8.4,1.9-12.5,2.9c-7.8,2-15.9,4-24,4.2c-9.2,0.1-18.4-2.3-26.7-7.1
						c-8.3-4.8-15-11.6-19.5-19.6c-1.8-3.2-3.3-6.7-4.9-10.2c-4.6-10.3-9.4-21-19.9-24.2c-9.5-2.9-19.3,1.8-28.8,6.4
						c-10.4,5-20.3,9.8-29.2,4.6c-4-2.4-6.7-6.5-7.5-11.8c-1-6.6,1-13.8,5.3-18.6c3.6-4.1,8.6-7.1,14.7-9c5.2-1.6,11.2-2.4,17.7-2.3
						c28.2,0.5,54.1,14.1,79.2,27.2c3.7,1.9,7.5,3.9,11.2,5.8c17.7,9.1,32.4,14.8,46.1,17.9c8.4,1.9,16.5,2.9,24,2.8
						c8.3-0.1,16.3-1.4,23.7-4c12.7-4.4,18.5-11,21.2-15.8c2.2-3.9,3.1-8.8,2.6-13.3c-0.6-4.8-2.8-9-6.2-11.7
						c-7.9-6.2-19.5-4.4-35.3,5.5c-9.5,6-20.3,12.8-32.4,15.2c-6,1.2-12.2,1.1-17.9-0.3c-6.1-1.6-11.2-4.6-14.8-8.9
						c-4-4.8-5.8-11.8-4.6-18.3c1-5.5,4-9.8,8.3-12.2c7.3-4,16.2-1.9,24.8,0.1c9,2.1,18.3,4.3,26.1-0.4c5.3-3.2,8-9.1,7.6-16.2
						c-0.5-8.9-5.8-17.1-13.1-20.4c-6.3-2.9-13.8-3.4-21.6-1.3c-6.8,1.8-13.8,5.7-19.7,10.7c-4.2,3.6-8,7.8-11.7,11.9
						c-2.9,3.2-6,6.6-9.2,9.7c-8.7,8.2-17.5,12.5-25.9,12.6c-4.8,0.1-9.8-1.6-13.7-4.7c-4.1-3.2-6.5-7.4-6.7-11.9
						c-0.2-4.5,1.5-8.7,3.4-13.2c1.1-2.7,2.3-5.4,2.9-8.2c1.2-4.9-0.4-11-3.7-14.3c-2.1-2.1-4.6-2.9-7.3-2.2c-4.1,1-6.4,4.9-8.5,8.4
						l-0.4,0.6c-6.7,11.2-17.4,20.5-30,26.1c-12.6,5.6-26.6,7.4-39.5,4.9c-20.3-3.9-38.6-18.5-47.7-38c-2-4.2-6.1-4.7-9.1-3.4
						c-3,1.3-5.4,4.6-3.7,8.9c0.6,1.5,1.3,2.8,2.1,4.1c2.3,3.5,5.2,6.5,8,9.5c4.3,4.6,8.3,8.9,10.5,14.4c2.4,6,2.1,13-0.7,19.8
						c-2.7,6.4-7.5,12.2-13.3,15.9c-9.8,6.4-23.1,9.1-40.5,8.2c-4.7-0.2-9.3-1.4-12.5-3.1c-4.1-2.1-6.2-5.1-6.2-8.7
						c-0.1-4,2.6-6.7,4.9-8.3c2.8-1.9,6.7-3.3,10.6-3.7c1.5-0.2,3.2-0.3,4.7-0.3c6.1-0.4,12.5-0.7,17.2-4.7c3.6-2.9,5.3-7.4,5-12.6
						c-0.4-6.9-4.4-13.8-10.1-17.5c-9.4-6.1-20.8-6.1-33.8-5.5l-96.3,4.6c-17.6,0.8-37.3,0.7-48.9-12c-5.1-5.5-7.8-13.1-7.7-21.4
						c0.1-8,3-16,7.9-21.9c4.8-5.8,11.6-10.2,19.5-12.5c7.7-2.3,15.8-2.5,23.6-0.8c13.8,3.1,25.7,11.8,37.1,20.2
						c2.9,2.2,6,4.4,9,6.5c14.3,9.9,27.4,14.9,39,14.9c4.1,0,8.1-0.6,11.9-1.9c7.7-2.6,14.1-7.8,20.3-12.7c2-1.6,4-3.2,6-4.7
						c10.7-8,20.3-10.9,28.6-8.6c9.9,2.7,15.8,12.2,21.4,21.3c1.7,2.7,3.4,5.4,5.1,8c12.8,18.2,35.2,28.5,57.3,28.5
						c11.3,0,22.5-2.6,32.3-8.2c6.6-3.7,10.9-7.9,13.3-12.6c2.6-5.3,2.7-13-2.2-17.6c-6.4-6.1-16.7-3.3-24.9-1.1l-0.1,0
						c-15.5,4.2-29.3,4.4-41.1,0.6c-6.7-2.2-12.8-5.8-17.7-10.6c-5.2-5-8.7-11.1-10.2-17.5c-1.5-6.5-0.6-13.8,2.5-20.1
						c3.2-6.5,8.4-11.2,14.5-13.3c5-1.7,10.7-1.4,16,0.6c5.3,2,9.7,5.7,12.3,10.3c1.7,3,2.8,6.4,3.8,9.7c1.2,3.8,2.4,7.7,4.6,11.1
						c3.2,5,8.4,8.6,15,10.3c5.9,1.6,12.6,1.6,18.9,0.1c9.9-2.5,18.8-7.9,27.3-13.2c1.9-1.2,3.9-2.4,5.8-3.6
						c7.3-4.3,16.9-9.5,27.2-10.5c2.1-0.2,3.4,1.2,3.8,2.7c0.3,1.5-0.2,3.4-2.2,4.1l-0.1,0c-2,0.7-4.2,0.9-6.5,1.1
						c-1.4,0.1-2.8,0.2-4.1,0.5c-6.9,1.3-13,6.1-16.5,13.3c-4.2,8.6-4.4,18.9-0.3,26.8c3.6,7,9.8,12.7,17.8,16.5
						c7.4,3.4,16.1,5.1,24.5,4.6c16.4-0.9,32.5-9.4,44-23.4c11.5-14,16.9-31.4,14.6-47.7c-0.8-5.7-2.3-11.5-3.8-17.2
						c-1.8-6.6-3.6-13.5-4.1-20c-0.6-7.2,0.5-13.2,3.3-18.4c2.5-4.7,6.6-8.5,10.4-12.2c4.4-4.2,8.9-8.6,11.4-14.2
						c2.6-5.8,2.6-13-0.1-19.5c-2.7-6.5-7.6-11.8-13.5-14.6c-11.8-5.6-27.4-2.4-37.2,7.6c-4.5,4.6-7.9,10.6-9.7,17.3
						c-1.8,6.4-2.1,13.3-1,20c1.9,11.4,7.5,21.7,13,31.7c5,9.2,10.2,18.7,12.5,28.9c4.2,19.5-3.3,41-18.8,53.6
						c-4.2,3.4-8.8,5.9-13.4,7.4c-5.2,1.6-10.1,1.9-14.7,0.8c-5.2-1.3-10.2-5.2-12.9-10.1c-2.2-4.1-2.8-8.5-1.5-12.4
						c2.5-7.6,9.9-11.3,17.8-15.1c3.1-1.5,6.3-3.1,9.1-4.9c14.1-9.2,20.9-28.1,15.8-44.2c-5.1-16-21.6-27.6-38.4-26.9
						c-6.4,0.3-12.8,2.3-18.6,5.9c-3.9,2.5-5.6,6.9-4.3,11.3c1.3,4.5,5.2,7.4,9.9,7.4c0,0,0,0,0.1,0c0.2,0,0.4,0,0.7,0
						c10.2,0.2,16.8,6.2,18.6,11.7c1.2,3.6,0.9,7.7-1,11.7c-1.7,3.7-4.6,7-8.1,9.3c-7.1,4.6-15.8,5.7-24,6.5
						c-7.4,0.7-15.2,1.1-22.2-1.6c-8.9-3.4-12.7-10.9-12.6-16.4c0.2-6.1,4.2-10.8,8.5-15.8c2.3-2.7,4.8-5.5,6.5-8.6
						c3.7-6.5,4.3-14.5,1.6-22.5c-3.3-9.8-11.1-18.3-20.3-22.3c-7.8-3.3-16.7-4.4-26.4-3.2c-8.4,1-17.1,3.7-26,8
						c-5.1,2.5-10.9,5.7-14.4,10.9c-3.3,4.9-4.5,12.4-0.3,17.5c2.9,3.6,7.5,5,13.1,4.2c4.5-0.7,9.7-2.9,14.2-6
						c0.4-0.3,0.8-0.5,1.2-0.8c7.7-5.3,16.4-11.4,24.8-8.2c3.3,1.2,6,4,7.6,7.7c1.9,4.5,1.8,10.1-0.2,14.4
						c-3.2,7.1-10.8,12.6-20.7,15.3c-9.1,2.4-18.9,2.3-28.4-0.4c-9.5-2.7-17.9-7.8-24.4-14.6c-1.9-2-3.6-4.1-5.3-6.3
						c-4.1-5-8.3-10.3-14.2-13.2c-5.1-2.6-12-2.2-16.8,0.8c-3.4,2.1-5.2,5.2-5.1,8.8c0.1,5.5,4.3,9.2,8.3,12.9
						c2.3,2.1,4.8,4.3,6.4,6.8c5.4,8.3,1.6,19.8-5.2,26.2c-7.1,6.7-17,9.7-26.7,11.9c-30,6.9-60.8,8.8-91.4,5.7
						c-14-1.4-18.1-6.7-19-10.9c-0.6-2.7-0.1-5.3,1.6-7.6c3.8-5.6,12.7-8.7,19.2-9.7c22.8-3.4,45.9-3.7,68.7-0.7
						c10.2,1.3,22.9,0.9,25.7-8.5c0.9-3,0.5-5.9-1.2-8.7c-3.7-6.1-12.6-9.8-19.1-11c-18.2-3.4-37-3.8-55.7-1.1
						c-18.7,2.7-36.5,8.4-53,16.9c-0.8,0.4-1.6,0.8-2.4,1.3c-6.2,3.2-12.6,6.6-19.5,6.9c-4.6,0.2-9.4-1.6-12.7-4.6
						c-2.4-2.2-3.7-4.9-3.7-7.8c-0.2-7.3,6.9-12.6,12.9-15.7c28.2-14.8,61.4-15.1,93.5-15.4c3,0,6-0.1,9-0.1c15-0.2,34.5-0.9,52.9-5
						c19.2-4.3,34.5-11.4,46.7-22c0.3-0.2,0.3-0.6,0.1-0.9c-0.2-0.3-0.6-0.3-0.9-0.1c-12,10.4-27.1,17.5-46.2,21.7
						c-18.3,4.1-37.8,4.8-52.7,5c-3,0-6,0.1-9,0.1c-32.2,0.3-65.6,0.6-94.1,15.5c-6.3,3.3-13.8,8.9-13.6,16.8
						c0.1,3.2,1.5,6.2,4.1,8.7c3.5,3.2,8.7,5.1,13.6,4.9c7.2-0.3,13.7-3.7,20.1-7c0.8-0.4,1.6-0.8,2.4-1.3
						c16.4-8.4,34.1-14.1,52.6-16.8c18.6-2.7,37.1-2.3,55.2,1.1c6.7,1.3,14.9,5,18.2,10.4c1.5,2.5,1.9,5,1.1,7.7
						c-2.6,8.6-14.7,8.9-24.3,7.6c-22.9-3-46.2-2.8-69,0.7c-6.7,1-16,4.3-20,10.2c-1.8,2.7-2.4,5.6-1.7,8.6
						c1,4.6,5.3,10.4,20.1,11.9c30.8,3.1,61.7,1.2,91.8-5.7c9.8-2.2,19.9-5.3,27.2-12.2c3.7-3.5,6.4-8.3,7.5-13.3
						c1.2-5.3,0.4-10.5-2.2-14.5c-1.7-2.7-4.2-4.9-6.6-7.1c-4-3.6-7.8-7.1-7.9-12c-0.1-3.1,1.6-5.9,4.5-7.7c4.4-2.8,11-3.1,15.6-0.8
						c5.6,2.9,9.8,8,13.8,12.9c1.7,2.1,3.5,4.3,5.4,6.3c6.6,7,15.3,12.2,25,15c9.7,2.8,19.8,2.9,29.1,0.4c4.7-1.3,9.1-3.2,12.6-5.7
						c4.1-2.8,7.1-6.3,8.9-10.3c2.1-4.7,2.2-10.5,0.2-15.4c-1.7-4-4.6-7-8.3-8.4c-9-3.4-18,2.9-25.9,8.4c-0.4,0.3-0.8,0.5-1.2,0.8
						c-4.4,3-9.4,5.1-13.7,5.8c-6.6,1-10.1-1.5-12-3.7c-3.8-4.6-2.7-11.6,0.4-16c3.4-5,9-8.1,14-10.5c8.8-4.2,17.4-6.9,25.6-7.9
						c9.5-1.2,18.2-0.1,25.8,3.1c8.9,3.8,16.4,12.1,19.6,21.5c2.6,7.6,2.1,15.3-1.5,21.5c-1.7,3-4.1,5.8-6.4,8.4
						c-4.2,4.9-8.6,10-8.8,16.5c-0.3,8.4,6.7,15,13.3,17.6c7.3,2.8,15.2,2.3,22.8,1.7c8.4-0.8,17.3-1.9,24.6-6.7
						c3.7-2.4,6.8-5.9,8.6-9.8c2-4.3,2.4-8.6,1-12.6c-2.8-8.4-12.2-12.4-19.7-12.5c-0.2,0-0.5,0-0.7,0c0,0,0,0-0.1,0
						c-4.1,0-7.5-2.5-8.7-6.5c-1.1-3.9,0.3-7.8,3.8-9.9c5.6-3.5,11.8-5.5,18-5.7c16.3-0.7,32.3,10.5,37.2,26
						c4.9,15.5-1.6,33.9-15.3,42.8c-2.8,1.8-5.9,3.4-9,4.9c-7.7,3.8-15.7,7.8-18.4,15.9c-1.4,4.2-0.9,9,1.6,13.4
						c2.9,5.3,8,9.3,13.7,10.7c4.8,1.2,10,0.9,15.4-0.8c4.7-1.5,9.5-4.1,13.8-7.6c15.8-12.9,23.5-34.9,19.2-54.8
						c-2.3-10.4-7.5-20-12.6-29.3c-5.4-9.9-11-20.1-12.9-31.3c-2.2-13.5,1.7-27.4,10.4-36.3c9.4-9.6,24.4-12.7,35.7-7.4
						c5.6,2.7,10.3,7.8,12.9,13.9c2.6,6.3,2.6,13,0.2,18.6c-2.4,5.4-6.9,9.7-11.2,13.8c-3.9,3.8-8,7.7-10.7,12.5
						c-6.6,12-2.9,25.9,0.7,39.3c1.5,5.6,3,11.4,3.8,17c2.2,16-3,33-14.4,46.7c-11.3,13.7-27.1,22.1-43.2,23
						c-8.2,0.5-16.7-1.1-23.9-4.5c-7.8-3.6-13.8-9.1-17.3-15.9c-3.9-7.6-3.8-17.4,0.3-25.7c3.4-6.8,9.1-11.4,15.6-12.6
						c1.3-0.2,2.7-0.4,4-0.5c2.2-0.2,4.6-0.4,6.8-1.2l0.1,0c2.7-1,3.5-3.6,3-5.5c-0.5-2-2.2-4-5.1-3.7c-10.5,1.1-20.3,6.3-27.7,10.7
						c-2,1.2-3.9,2.4-5.8,3.6c-8.5,5.2-17.3,10.7-27,13.1c-6.1,1.5-12.6,1.5-18.3-0.1c-6.3-1.7-11.2-5.1-14.3-9.8
						c-2.1-3.2-3.3-7.1-4.5-10.8c-1-3.3-2.1-6.8-3.9-9.9c-5.7-10.1-18.8-15.1-29.8-11.5c-6.5,2.1-11.9,7.1-15.3,13.9
						c-3.2,6.5-4.2,14.2-2.6,20.9c1.5,6.6,5.2,12.9,10.5,18.1c5,4.9,11.3,8.7,18.2,10.9c12,3.9,26.1,3.7,41.8-0.5l0.1,0
						c7.9-2.1,17.8-4.8,23.8,0.8c4.4,4.2,4.3,11.3,1.9,16.2c-2.2,4.5-6.4,8.5-12.8,12.1c-7,4-14.8,6.5-23.2,7.5
						c-8.1,1-16.3,0.6-24.5-1.3c-8.2-1.8-15.8-5-22.7-9.4c-7.1-4.5-13.1-10.2-17.7-16.8c-1.8-2.5-3.5-5.2-5.1-7.9
						c-5.8-9.3-11.7-18.9-22.1-21.8c-8.7-2.4-18.7,0.6-29.7,8.8c-2,1.5-4.1,3.2-6,4.7c-6.1,4.9-12.5,10-19.9,12.5
						c-13.9,4.7-30.7,0.4-49.8-12.9c-3-2.1-6.1-4.3-9-6.5c-11.6-8.5-23.5-17.3-37.6-20.4c-8-1.8-16.3-1.5-24.2,0.8
						c-8.2,2.4-15.1,6.9-20.1,12.9c-5.1,6.1-8,14.3-8.1,22.6c-0.1,8.6,2.7,16.5,8,22.3C1946.8,57.8,1966.8,58,1984.6,57.1
						L1984.6,57.1z"/>
					<path class="st14" d="M2462.2,375.2c-0.1-0.3-0.4-0.5-0.7-0.5c-14.9,3.3-31.2,3.2-48.6-0.1c-14.8-2.9-30.2-8-47.1-15.7
						c-12.8-5.8-25.4-12.6-37.6-19.1c-16.5-8.8-33.5-18-51.2-25c-19.5-7.7-40-12.9-61-15.5c-21-2.6-42.2-2.5-62.9,0.3
						c-1.6,0.2-3.2,0.4-4.7,0.7c-9.2,1.3-18.7,2.7-27.8,1c-5.4-1-10.7-3.4-14.8-6.7c-4.5-3.6-7.3-8.1-8.2-13
						c-1.6-9.2,3.2-17.3,8.4-25.8c3.6-6.1,7.4-12.3,8.8-19.1c1.6-8.1-1-17.1-7-24.2c-6-7-14.5-11-22.8-10.6
						c-5.7,0.3-11.8,4-14.2,8.7c-1.5,3-1.5,5.9,0.2,8.5c1.7,2.7,4.6,4,7.4,5.3c0.8,0.4,1.5,0.7,2.3,1.1c6.8,3.6,11.7,10.9,13,19.5
						c1.3,8.6-1.2,17-6.7,22.5c-3.6,3.6-8.2,6.1-12.7,8.5c-2.6,1.4-5.2,2.8-7.6,4.4c-3.7,2.4-6.9,5.6-8.9,8.9
						c-2.4,3.9-3.2,8-2.4,11.7c1.3,5.6,5.5,9.5,12.5,11.6c6.5,1.9,14.2,1.8,19.5,1.4c56.8-4.5,114.1-2.1,170.3,7.2
						c11.7,1.9,24,4.3,34.7,10.1c5.5,3,10.3,6.9,14,11.4c4.1,4.9,6.6,10.3,7.6,15.9c1.1,6.7-0.1,13.9-3.5,20.7
						c-3.2,6.3-8.2,12.1-14.2,16.4c-12.6,9-28.5,12.2-41,13.9c-34.3,4.7-69.4,2.5-103.3,0.3c-59.4-3.8-120.8-7.7-178.6-25.8
						c-9.1-2.9-19.5-6.6-26.3-14.2c-8.1-9.2-7.4-21.1-2.1-27c6.1-6.7,16.5-6.8,25.8-6.3c59.9,3,121.8,6,181.3,19.5
						c5.2,1.2,10.6,2.5,15.8,3.7c22.6,5.4,45.7,11,68.3,11c12.4,0,24.6-1.7,36.5-6c5.1-1.9,11.3-5.3,11.6-11.3
						c0.2-4.4-3-8.5-9.4-12.2c-17.4-9.9-37.9-15.5-62.6-17.1c-22.4-1.5-45.2,0.5-66.5,2.9c-1.7,0.2-3.5,0.4-5.2,0.6
						c-42.2,4.7-85.7,9.5-124.7-6.4c-11.5-4.7-22.4-11.2-32.9-17.5c-7.3-4.4-14.9-8.9-22.7-12.8c-4-2-8.2-3.9-12.2-5.8
						c-9-4.1-18.2-8.3-26.4-14.1c-6.2-4.4-11.5-9.7-15.2-15.4c-4.2-6.4-6.5-13.1-6.6-19.8c-0.3-12.7,7.7-25.2,19.3-30.3
						c11.7-5.1,26.2-2.4,35.3,6.4c2.4,2.4,5.5,6.2,6.1,10.9c0.5,3.8-0.5,7.5-1.7,11.3c-0.5,1.6-0.9,3.2-1.3,4.8
						c-1.7,8-0.1,17,4.4,24.7c4.5,7.7,11.6,13.4,19.5,15.8c6.4,1.9,12.6,1.6,17.3-1c2.6-1.4,4.8-3.7,6.2-6.4c1.4-2.9,1.8-6,1-8.7
						c-2.1-7.5-10.5-10.3-18.9-12.5c-5.8-1.6-15.7-5.3-16.1-13.2c-0.1-2.7,0.8-5.1,2.8-7.1c4.3-4.3,12.6-6,19-5.7
						c7.5,0.3,20.8,2.4,24.8,12.3c2,4.9,1.1,10.8,0.3,16.4c-1,7.1-2.1,14.5,2.8,19.7c2.6,2.8,6.5,4,10.7,3.4
						c5.6-0.8,11.1-4.6,13.7-9.4c4.4-8.3,3.4-18,1.9-28c-1.4-8.9-2.9-18.9,1.2-27.3c3.1-6.5,9.1-11.3,17.8-14.1
						c6.7-2.2,14.9-3.2,25-3.3h0.1c10.4,0,23,1.1,29.1,10c4.3,6.3,3.9,14.4,3.4,22.3c-0.2,2.6-0.3,5.3-0.3,7.9
						c0.1,14.3,6.4,28,16.8,36.5c5.3,4.4,11.8,7.4,18.7,8.6c7.1,1.3,14.1,0.7,20.4-1.7c6.1-2.4,11.4-6.3,16.5-10.1
						c3.2-2.4,6.6-4.9,10-6.9c8.9-5.2,21.2-7.4,28.7-0.6c6.3,5.8,7,11.8,7.8,18.1c0.4,3.5,0.8,7.1,2.2,10.9
						c3.7,10,13.5,14.5,31.9,14.5c8.2,0,14.5,1.7,19.5,3c6.3,1.7,10.8,2.8,13.8-1.2c1.7-2.2,2-4.8,0.9-7.2c-1.6-3.4-5.8-6-10.3-6.2
						c-4.1-0.2-8.7,1-13.1,2.1c-3.5,0.9-6.9,1.8-9.9,2c-7.1,0.5-15-2.9-16.1-9.3c-0.4-2.5,0.2-4.9,1.8-7.2
						c3.6-4.8,10.8-7.3,15.8-7.9c22-2.7,45.1,5.6,60.4,21.7c4.2,4.4,8,9.6,11.6,14.5c7.2,9.8,14.7,19.9,25.8,25.1
						c19.1,8.9,41.3,0.2,60.6-8.6c4-1.8,8.5-3.9,11.5-7.5c3-3.5,4.5-9.2,1.6-13.3c-1.5-2.1-4.4-3.3-7.2-2.9c-2,0.3-3.5,1.2-4.4,2.6
						c0-0.1-0.1-0.1-0.1-0.2c-0.2-0.3-0.6-0.3-0.9-0.1c-9,8-21.7,11.5-35,9.6c-13.2-1.9-24.5-8.8-30.9-18.9c-2-3.2-3.7-6.8-5.3-10.2
						c-3.2-6.8-6.5-13.9-12.7-18.4c-6.3-4.6-14.4-5.7-22.2-6.7c-8.4-1.1-16.3-2.1-22.4-7.2c-3.5-3-5.9-6.9-8.4-11.1
						c-1.6-2.8-3.3-5.6-5.4-8.1c-0.1-0.1-0.2-0.3-0.3-0.4c-2.8-3.2-7-4.5-11.2-3.4c-4.2,1.1-7.4,4.4-8.3,8.7c-0.9,4.2-3.8,8-7.6,9.7
						c-7.8,3.6-16.8,0.3-21.5-1.9c-8.4-4.1-16.1-10.4-22.8-19c-5.7-7.3-10.8-16.2-15.1-26.4c-0.3-0.8-0.7-1.6-1-2.4
						c-2.4-5.9-4.9-12-9.3-16.6c-4.9-5.1-13.7-8.4-20.3-4.3c-3,1.9-5,4.9-5.7,8.8c-1,5.3,0.6,11.5,3.9,15.9
						c4.3,5.6,10.4,9.2,16.4,12.8c1.8,1,3.6,2.1,5.3,3.2c6.6,4.3,14.6,11.2,15,20.4c0.2,4.9-2.1,9.6-6.3,13.3
						c-5.4,4.5-13.1,6.6-19.6,5.3c-14.2-2.9-23-16.3-27-24c-2.7-5.2-4.9-10.7-7-16c-2.5-6.2-5-12.7-8.4-18.6
						c-8.6-15.4-22.2-26.5-37.3-30.4c-8-2.1-16.8-2.3-26.3-0.7c-7.9,1.3-16.2,3.9-25.6,7.9c-5.4,2.3-10.8,4.9-16.1,7.3
						c-10.5,5-21.3,10.1-32.6,13.2c-19.6,5.4-37.9,3.1-50.2-6.3c-7.5-5.7-12.6-15.4-13.2-25.2c-0.5-8,1.9-15.2,7-20.2
						c2.4-2.4,5.4-4.5,8.3-6.6c6.8-4.9,13.8-9.9,13.1-18c-0.3-3.6-2.2-6.7-5.5-8.9c-5.2-3.5-13.7-4.3-20.5-2.1
						c-3.4,1.1-6.6,2.6-9.8,4.1c-6.6,3-12.7,5.9-19.6,5.6c-6.7-0.3-12.9-4.5-16.6-11.2c-3.8-6.7-4.1-14.1-0.9-20
						c3.2-5.9,9.6-10,17.3-10.1c15.1-0.3,17.6,8,21.6,10.2c6,3.3,13.1,5.3,20.5,5.7c11.7,0.7,23.3-1.8,34.6-4.3c2.3-0.5,4.7-1,7-1.5
						c12.8-2.6,27.7-4.7,41.1,0c9.2,3.3,12.6,8.5,13.7,11.3c1.6,4,1.4,8.3-0.8,12.6c-3.2,6.4-10.1,11.8-17.5,13.8
						c-6.7,1.8-13.8,1.8-20.6,1.8c-5.5,0-11.1,0.1-16.6,0.9c-6.5,1-12.9,4-17.5,8.1c-3.7,3.3-8,8.8-7.3,16.3
						c1.2,12.7,15.9,19.6,29,20.5c16.7,1.2,33.7-2.9,48.1-11.6c3.6-2.2,7.2-4.7,10.7-7.2c8.1-5.7,16.4-11.7,26.1-13.5
						c8.4-1.6,17,0.1,25.4,1.8c2.9,0.6,6,1.2,9,1.6c6.5,1,12.7,0.9,18-0.2c6.4-1.4,11.4-4.2,14.9-8.6c2.6-3.2,4.1-7.2,5.5-10.9
						c0.7-1.9,1.5-3.9,2.4-5.8l0.1-0.2c2-4.1,6-4.7,8.7-4c2.8,0.7,5.9,3.2,5.7,7.7c-0.1,2.6-0.4,5.2-0.7,7.8c-1,9-2,18.4,3.4,25.7
						c3.1,4.2,7.8,7,13.8,8.1c5.1,1,11.1,0.7,16.8-0.8c4.7-1.2,9.2-3,13.6-4.7c5.6-2.2,11.3-4.5,17.3-5.5
						c13.8-2.4,24.2,3.8,27.2,11.2c2.6,6.2,1,13.3-0.6,20.1c-1.7,7.3-3.4,14.9-0.1,21.6c4.4,8.8,15.5,11.6,24.7,10.5
						c5.7-0.7,11.1-2.5,16.4-4.3c3.4-1.1,6.9-2.3,10.5-3.2c5.1-1.2,17.8-3.3,25.8,4.2c5.1,4.8,6.6,11.7,8.3,19c1,4.4,2,8.9,3.8,12.9
						c4.5,9.9,14.6,17.4,26.9,20.1c3.8,0.8,7.7,1.2,11.9,1.2c6.8,0,14.2-1.1,22.3-3.3c0.3-0.1,0.5-0.4,0.4-0.8s-0.4-0.5-0.8-0.4
						c-12.9,3.5-23.9,4.2-33.6,2.1c-11.9-2.6-21.7-9.9-26-19.5c-1.8-3.9-2.8-8.4-3.8-12.7c-1.6-7.1-3.2-14.5-8.6-19.6
						c-3.2-3-7.5-4.9-12.7-5.5c-4.3-0.5-9.2-0.2-14.2,1.1c-3.6,0.9-7.1,2.1-10.6,3.2c-5.2,1.8-10.6,3.6-16.2,4.3
						c-12.1,1.5-20.5-3.9-23.4-9.8c-3.1-6.3-1.5-13.3,0.2-20.7c1.6-7,3.3-14.3,0.5-20.9c-4.3-10.4-17.6-13.8-28.6-11.9
						c-6.1,1.1-11.9,3.4-17.6,5.6c-4.4,1.7-8.9,3.5-13.4,4.7c-9.4,2.4-22.7,2.1-29.2-6.9c-5.1-7-4.1-15.7-3.2-24.9
						c0.3-2.6,0.6-5.2,0.7-7.8c0.3-5-3.1-8.1-6.6-9c-3.5-0.9-8,0.2-10.1,4.6l-0.1,0.2c-0.9,1.9-1.7,4-2.5,5.9
						c-1.4,3.7-2.9,7.5-5.4,10.6c-3.4,4.4-12.2,11.2-31.7,8.3c-3-0.4-6-1-8.9-1.6c-8.5-1.7-17.3-3.4-25.9-1.8
						c-10,1.9-18.4,7.9-26.6,13.7c-3.4,2.4-7,5-10.6,7.1c-14.1,8.5-30.9,12.6-47.3,11.4c-12.6-0.9-26.7-7.4-27.9-19.4
						c-0.7-7,3.3-12.2,6.8-15.3c4.5-4,10.6-6.8,16.9-7.8c5.4-0.9,11-0.9,16.4-0.9c6.9,0,14.1-0.1,20.9-1.9c7.8-2,15-7.7,18.3-14.4
						c2.3-4.6,2.6-9.3,0.8-13.6c-2.1-5.2-7.2-9.4-14.4-12c-13.6-4.8-28.7-2.7-41.7-0.1c-2.3,0.5-4.7,1-7,1.5
						c-11.2,2.4-22.7,5-34.2,4.2c-7.2-0.4-14.1-2.4-20-5.6c-0.9-0.5-8.3-11.3-22.3-10.3c-8.1,0.5-14.9,4.6-18.3,10.8
						c-3.4,6.2-3,14.2,0.9,21.2c4,7,10.6,11.4,17.6,11.8c7.1,0.3,13.8-2.7,20.2-5.7c3.2-1.5,6.4-3,9.7-4c6.5-2.1,14.5-1.3,19.4,1.9
						c3,2,4.7,4.7,5,8c0.7,7.4-5.8,12-12.6,16.9c-3,2.1-6,4.3-8.5,6.7c-5.3,5.3-7.9,12.8-7.3,21.2c0.7,10.2,5.9,20.1,13.7,26.1
						c8.1,6.2,18.8,9.4,30.7,9.4c6.5,0,13.4-1,20.5-2.9c11.4-3.1,22.3-8.3,32.8-13.3c5.2-2.5,10.6-5,16-7.3
						c20.2-8.5,36.9-10.9,51.1-7.2c14.7,3.8,28,14.7,36.5,29.8c3.3,5.9,5.8,12.3,8.3,18.5c2.1,5.4,4.3,10.9,7,16.1
						c4.1,7.9,13.1,21.6,27.8,24.6c6.9,1.4,15-0.7,20.7-5.5c4.6-3.9,7-9,6.8-14.3c-0.4-9.7-8.7-17-15.6-21.4
						c-1.8-1.1-3.6-2.2-5.4-3.3c-5.9-3.5-11.9-7.1-16-12.5c-3.2-4.2-4.6-10-3.7-15c0.7-3.5,2.4-6.3,5.1-8c6-3.8,14.2-0.7,18.7,4.1
						c4.3,4.5,6.7,10.5,9.1,16.2c0.3,0.8,0.7,1.6,1,2.4c4.3,10.4,9.4,19.4,15.3,26.7c6.8,8.7,14.7,15.2,23.3,19.3
						c8.4,4.1,16.4,4.7,22.5,1.9c4.1-1.9,7.3-6,8.2-10.6c0.8-3.8,3.6-6.7,7.4-7.7c3.7-1,7.5,0.2,10,3c0.1,0.1,0.2,0.2,0.3,0.4
						c2,2.4,3.7,5.2,5.3,8c2.4,4.1,4.9,8.3,8.6,11.4c6.4,5.3,14.8,6.4,23,7.5c7.6,1,15.5,2,21.6,6.5c5.9,4.3,9,10.9,12.3,17.9
						c1.6,3.5,3.3,7.1,5.4,10.3c6.6,10.4,18.2,17.5,31.8,19.5c2.4,0.3,4.8,0.5,7.1,0.5c10.8,0,20.9-3.5,28.5-10.1c0,0,0,0,0,0
						c-0.1,0.3,0.1,0.7,0.4,0.8c0.3,0.1,0.7-0.1,0.8-0.4c0.5-1.5,2-2.6,3.9-2.8c2.4-0.3,4.8,0.6,6.1,2.4c2.5,3.6,1.2,8.7-1.5,11.8
						c-2.9,3.4-7.3,5.4-11.1,7.2c-19.1,8.7-41,17.3-59.6,8.6c-10.8-5.1-18.2-15.1-25.3-24.7c-3.7-5-7.5-10.1-11.7-14.6
						c-15.5-16.4-39-24.8-61.4-22c-5.3,0.7-12.8,3.2-16.6,8.4c-1.9,2.5-2.5,5.2-2,8.1c0.6,3.4,2.8,6.3,6.5,8.2
						c3.1,1.6,7.1,2.4,10.9,2.2c3.2-0.2,6.7-1.1,10.2-2c4.4-1.1,8.9-2.3,12.7-2.1c4,0.2,7.8,2.5,9.2,5.5c0.7,1.4,1.1,3.6-0.7,6
						c-2.6,3.4-6.3,2.4-12.5,0.8c-5.1-1.3-11.4-3-19.8-3c-17.8,0-27.3-4.2-30.8-13.7c-1.3-3.6-1.7-7.2-2.2-10.6
						c-0.8-6.6-1.5-12.7-8.1-18.8c-7.9-7.3-20.8-5.1-30.1,0.4c-3.5,2.1-6.9,4.6-10.1,7c-5.1,3.8-10.3,7.7-16.3,10
						c-6.1,2.3-12.9,2.9-19.7,1.7c-6.7-1.2-13-4.1-18.1-8.4c-10.1-8.3-16.2-21.6-16.3-35.6c0-2.6,0.1-5.2,0.3-7.8
						c0.5-8.1,0.9-16.4-3.6-23c-2.9-4.2-7.3-7.1-13.4-8.7c-5.8-1.6-12.3-1.8-16.7-1.8h-0.1c-10.2,0-18.5,1.1-25.3,3.3
						c-9,2.9-15.2,7.9-18.5,14.7c-4.2,8.8-2.6,19-1.3,28.1c1.5,9.8,2.5,19.3-1.7,27.2c-2.4,4.5-7.6,8.1-12.8,8.8
						c-3.9,0.5-7.3-0.5-9.7-3c-4.6-4.8-3.6-11.5-2.5-18.7c0.8-5.8,1.7-11.8-0.4-17c-4.2-10.6-18-12.7-25.8-13.1
						c-6.1-0.3-15,1.1-19.9,6c-2.2,2.2-3.3,4.9-3.2,8c0.4,8.7,10.8,12.7,17,14.4c8,2.1,16,4.8,18,11.7c1.4,4.9-1.5,11-6.6,13.8
						c-6,3.3-12.8,1.9-16.4,0.9c-7.6-2.3-14.4-7.8-18.8-15.2c-4.4-7.4-5.9-16.1-4.3-23.8c0.3-1.6,0.8-3.2,1.3-4.8
						c1.1-3.8,2.3-7.8,1.7-11.9c-0.5-4-2.8-8-6.5-11.6c-9.5-9.2-24.6-12-36.7-6.7c-12.1,5.3-20.4,18.2-20.1,31.4
						c0.2,7,2.5,13.8,6.8,20.5c3.8,5.8,9.2,11.2,15.5,15.7c8.2,5.8,17.6,10.1,26.6,14.2c4,1.8,8.2,3.7,12.2,5.7
						c7.7,3.9,15.3,8.4,22.6,12.7c10.6,6.3,21.5,12.8,33.1,17.6c39.2,16,82.9,11.1,125.3,6.4c1.7-0.2,3.5-0.4,5.2-0.6
						c21.3-2.3,44-4.3,66.3-2.9c24.5,1.6,44.8,7.1,62,17c6,3.4,9,7.1,8.8,11c-0.2,5.6-6.8,8.8-10.7,10.2
						c-33.1,12-69.2,3.3-104.1-5.1c-5.2-1.2-10.6-2.5-15.8-3.7c-59.6-13.5-121.6-16.6-181.6-19.6c-9.6-0.5-20.3-0.4-26.8,6.7
						c-7.3,8-4.6,21.1,2,28.7c7,7.9,17.5,11.7,26.8,14.6c58,18.2,119.5,22.1,178.9,25.9c19.2,1.2,38.8,2.5,58.4,2.5
						c15.1,0,30.2-0.7,45.1-2.8c12.6-1.7,28.7-4.9,41.5-14.1c6.1-4.4,11.3-10.4,14.5-16.9c3.6-7.1,4.8-14.5,3.6-21.5
						c-1-5.8-3.6-11.4-7.8-16.4c-3.8-4.6-8.7-8.6-14.3-11.7c-10.8-5.9-23.2-8.3-35.1-10.2c-56.3-9.3-113.7-11.7-170.6-7.2
						c-5.2,0.4-12.7,0.5-19-1.4c-6.6-1.9-10.5-5.5-11.6-10.7c-1.8-7.9,4.7-15.3,10.8-19.3c2.4-1.6,5-3,7.5-4.3c4.6-2.4,9.3-5,13-8.7
						c5.8-5.7,8.4-14.5,7-23.5c-1.4-9-6.5-16.7-13.7-20.4c-0.8-0.4-1.6-0.8-2.3-1.1c-2.6-1.2-5.4-2.5-6.9-4.9
						c-1.8-2.8-1.1-5.5-0.1-7.3c2.3-4.3,7.9-7.8,13.2-8c7.9-0.4,16,3.5,21.8,10.2c5.8,6.7,8.3,15.4,6.7,23.1
						c-1.3,6.6-5,12.8-8.6,18.7c-5,8.4-10.2,17-8.5,26.7c0.9,5.2,3.9,10,8.6,13.8c4.2,3.4,9.7,5.9,15.3,6.9c9.3,1.7,18.9,0.4,28.2-1
						c1.6-0.2,3.2-0.5,4.7-0.7c20.7-2.8,41.7-2.9,62.6-0.3c20.9,2.6,41.3,7.7,60.7,15.4c17.6,7,34.6,16.1,51.1,24.9
						c12.2,6.5,24.9,13.3,37.7,19.2c17,7.8,32.5,12.9,47.4,15.8c17.6,3.4,34.1,3.5,49.1,0.1C2462,375.8,2462.2,375.5,2462.2,375.2
						L2462.2,375.2z"/>
				</g>
			</g>
		</g>
	</g>
</g>
<rect x="936" y="-372.3" class="st14" width="51.3" height="51.3"/>
</svg>
