<?xml version="1.0" encoding="UTF-8"?>
<svg id="Layer_2" data-name="Layer 2" xmlns="http://www.w3.org/2000/svg" viewBox="0 0 82.02 84.61">
  <defs>
    <style>
      .cls-1 {
        fill: #ff6b6b;
      }
    </style>
  </defs>
  <g id="Layer_1-2" data-name="Layer 1">
    <path class="cls-1" d="m81.52,33.45s-.08-.02-.12-.04c-.07-.23-.22-.44-.44-.57-.12-.07-.26-.11-.4-.13.23-.88.15-1.84-1-2.5-.24-.14-.57-.17-.84-.09-.09.03-.17.07-.25.11.24-.82.3-1.43-.36-1.81-.25-.14-.57-.18-.84-.09-.17.06-.3.13-.42.25-.09-.69-.33-1.29-.9-1.62-.29-.17-.63-.2-.95-.09-.02,0-.04.01-.05.02,0-.29.02-.58.05-.88.03-.38-.16-.75-.5-.95-.28-.16-.61-.19-.92-.09.1-.88-.04-1.8-1.03-2.37-.14-.08-.3-.13-.46-.13-.17-.81-.61-1.54-1.45-2.02-.24-.14-.56-.17-.82-.09-.18.06-.33.14-.48.3-.31-1.59-.69-2.73-1.46-3.17-.25-.14-.57-.17-.84-.08-.35.12-.51.35-.67.7-.16-.79-.31-1.78-.4-2.74-.03-.31-.2-.58-.45-.75-.09-.06-.2-.1-.3-.13.05-.74-.14-1.46-.91-1.91-.25-.14-.61-.18-.88-.09-.04-.85-.32-1.71-1.25-2.25-.25-.15-.6-.18-.87-.08-.31.11-.51.32-.69.64-.28-2.01-.47-3.09-1.23-3.53-.25-.14-.58-.17-.86-.08-.15.05-.27.13-.38.22-.02-.36-.04-.68-.05-.9-.07-1.41-.08-1.67-.58-1.95-.25-.14-.63-.18-.9-.09-.4.13-.67.44-.96.99,0-.85.05-1.86.16-2.83.04-.4-.15-.78-.49-.98-.25-.14-.63-.18-.9-.09-.12.04-.24.1-.35.18,0-.73-.14-1.3-.7-1.62-.25-.15-.63-.18-.89-.09-.61.21-.88.8-1.39,2.01-.03.08-.07.16-.11.25-1.79-.43-2.89,1.19-3.59,2.21-.05.08-.09.13-.14.2-.06-.04-.11-.08-.18-.11-.25-.15-.59-.18-.87-.08-.42.15-.62.46-.9,1.15-.21-.06-.44-.08-.64,0-.56.2-.73.67-1.18,1.91-.09.24-.22.6-.37.98-.5.09-1.03.26-1.58.45-.37.12-.92.31-1.16.34-.21-.07-.45-.06-.66.01-.42.15-.6.43-.88,1.15-.22-.07-.46-.07-.67,0-.54.19-.68.58-1.16,1.88-.11.3-.28.76-.47,1.22-1.08,0-1.86.75-2.42,1.41-.65.25-1.17.76-1.57,1.22-.06-.02-.11-.05-.18-.09-.24-.14-.56-.17-.82-.09-.26.08-.49.16-1.1,1.16-.16-.02-.32-.02-.46.02-.35.11-.7.22-2.14,3.07-.82.3-1.16.32-1.29.26-.27-.15-.59-.18-.88-.06-.29.12-.5.36-.59.66-.05.19-.11.39-.17.58-.25-.12-.55-.14-.81-.04-.29.12-.5.36-.58.66-.17.63-.39,1.27-.61,1.83-1.04.02-1.8.81-2.26,1.3-.06.06-.11.11-.16.17-.3.13-.57.3-.8.49-.05-.02-.11-.05-.18-.09-.24-.14-.57-.17-.84-.09-.24.07-.5.15-1.13,1.19-.15-.02-.31-.01-.45.03-.36.11-.77.24-2.45,3.63-.9.35-1.21.31-1.3.27-.25-.14-.59-.18-.86-.09-.45.15-.69.5-1.02,1.23-.19-.04-.39-.05-.57,0-.6.2-.84.78-1.38,2.06-.13.31-.31.74-.48,1.09-.54.25-1.14.39-1.61.12-.26-.15-.67-.18-.95-.08-.45.17-.71.58-.98,1.23-.22-.04-.44-.05-.63.02-.67.25-.93,1-1.39,2.36-.03.08-.06.18-.1.28-.07-.09-.16-.16-.26-.22-.25-.15-.64-.18-.91-.08-.05.02-.11.04-.18.08,0,0-.02,0-.03,0-.27.1-1,.38-1.96,3.27-.17.52.11,1.09.63,1.26.14.05.28.06.42.05-.14,2.3.23,2.52.61,2.74.25.14.62.18.89.09-.19,1.08-.17,2.06.69,2.55.23.14.52.17.78.1.3-.08.43-.12.96-1-.04.31-.08.58-.11.77-.19,1.24-.31,2.06.43,2.49.24.14.56.18.83.09.32-.1.54-.31.79-.71-.02.27-.03.51-.05.71-.11,1.52-.19,2.53.62,3,.11.06.23.11.36.12-.21.5-.31,1.02-.18,1.56.14.59.53,1.07,1.16,1.44.24.14.61.17.88.1-.25.96-.21,1.98.9,2.62.25.14.56.17.83.09.34-.11.54-.32.77-.78.28,2.98.54,3.13.93,3.36.03.02.06.04.1.05-.11,1.82.56,2.21.83,2.37.05.03.09.05.14.07.09.88.47,1.67,1.33,2.16.24.14.58.17.85.09.29-.09.58-.19,1.33-1.62.14,1.33-.75,3.18-.76,3.2-.24.47-.07,1.06.39,1.32.24.14.55.17.82.09.43-.13.67-.35,1.46-1.87.31,1.06.29,2.65.12,3.75-.06.41.13.81.49,1.02.07.04.14.07.22.09.08.82.39,1.56,1.14,2,.2.12.42.17.64.15-.06,1.09.05,2.07.87,2.54.25.14.58.18.85.09.05-.02.1-.04.15-.06.41,2.52,1.07,2.9,1.32,3.04.24.14.56.17.83.09.02,0,.04-.01.05-.02-.06,1.33,0,2.41.83,2.89.16.09.37.14.57.14.13,0,.25-.02.36-.06.6-.22.81-.83,1.1-1.66.06-.18.15-.44.23-.62.04-.02.08-.04.11-.07,2.23-1.62,4.7-3.05,5.4-3.1.25.09.57.09.8,0,.67-.26.91-.98,1.37-2.42.19-.59.55-1.71.85-2.22.96.34,1.77-.06,2.24-.3.08-.04.19-.09.27-.13.23.08.48.08.71-.01.28-.11.5-.35.59-.64.44-1.47,1.07-2.98,1.47-3.54,1.29.4,2.4-.69,3.09-1.37.23-.23.59-.59.8-.71.32.14.68.15,1,.01.78-.33,1.01-1.27,1.34-2.56.1-.42.28-1.11.44-1.5.11,0,.21-.02.32-.06l3.45-1.22c.24.04.49,0,.73-.09.9-.38,1.19-1.55,1.55-3.03.11-.46.29-1.17.45-1.55.12,0,.23-.04.34-.09,1.37-.64,3-1.38,3.61-1.61.28.06.56.03.82-.07,1.01-.4,1.5-1.78,2.09-3.68.04-.15.1-.32.15-.47.54.05.97-.1,1.28-.21.1-.04.26-.09.29-.09.25.14.62.18.89.09.7-.22,1.13-1.03,2.17-3.29.2-.45.47-1.03.62-1.29.04-.03.07-.07.11-.1,1.05-1.2,2.69-2.35,3.23-2.04.25.15.56.17.83.08.28-.1.5-.31.6-.58.54-1.41,1.23-2.86,1.62-3.42.9.07,2.2-.46,3.88-1.57.16,0,.33-.03.49-.09.87-.34,1.25-1.4,1.78-3.09.1-.32.23-.76.34-1.02.15-.08.27-.21.36-.36.28-.48.11-1.09-.37-1.37ZM50.41,4.26c-.34.48-.62,1.2-.99,2.18-.07.18-.15.39-.23.6-.12-.16-.21-.32-.31-.51-.06-.12-.13-.24-.2-.36.13-.18.25-.35.36-.51.69-1.01,1.03-1.37,1.36-1.39Zm-4.54,13.58c-1.91,3.82-3.84,8.47-3.26,10.74.19.74.59,1.16.94,1.4-1.62,3.8-2.4,5.98-2.54,7.28-.03,0-.06-.02-.09-.03-.43-.05-.84.18-1.02.57-.24.51-.53,1.09-.76,1.51-.75-.4-1.89-1.02-2.71-1.49-.24-.14-.52-.17-.78-.09-.42.12-.54.36-.83.93-.16.32-.3.6-.43.85-.38-.55-.9-1.12-1.59-1.52-.24-.14-.54-.17-.81-.09-.27.09-.49.28-.6.54-.22.48-.48,1.01-.71,1.45-.14-.35-.22-.73-.24-.96-.04-.44-.37-.81-.8-.9-.44-.08-.88.13-1.08.52-.12.24-.25.49-.39.74-.02-.13-.04-.27-.05-.4-.03-.32-.22-.6-.49-.76-.25-.15-.57-.18-.85-.08-.49.17-.64.54-.92,1.28-.04.11-.1.26-.16.42-.5-.46-1.19-1.1-1.82-1.7-.06-.05-.12-.1-.19-.14-.25-.14-.62-.18-.89-.09-.5.16-.83.61-1.31,1.63-.15-.55-.45-1.13-1.15-1.54-.25-.14-.55-.17-.82-.08-.27.09-.49.3-.6.57-.18.44-.38.89-.57,1.3-.04-.6-.28-1.28-1.15-1.78-.24-.14-.57-.17-.83-.09-.32.1-.63.2-1.63,2.18-.59-.62-1.24-1.28-1.79-1.59-.24-.14-.55-.17-.82-.09-.51.16-.7.55-1.24,1.7-.02.04-.04.08-.06.13-.45-.66-.9-1.21-1.43-1.51-.23-.13-.51-.17-.77-.1-.26.07-.48.25-.61.49-.24.45-.5.92-.75,1.36-.14-.43-.32-.83-.56-1.15.04-.12.09-.24.13-.37,1.24-.14,2.34-.88,2.83-1.25,0,0,.01,0,.02,0,.33-.11.58-.35.83-.74.31-.18.58-.38.82-.58.6-.21.93-.84,1.46-2.06.85-.18,1.67-.56,2.23-.82.09-.04.17-.08.23-.11.03,0,.05-.01.08-.02.27-.08.49-.27.61-.52.06-.13.13-.26.19-.39.19-.09.38-.18.53-.25.1-.05.18-.09.24-.11.02,0,.04-.01.06-.02.27-.08.49-.27.61-.52.33-.69.71-1.45,1.06-2.1.85-.16,1.48-.81,1.89-1.23.04-.04.07-.07.11-.11.32-.13.6-.32.84-.52.05.02.11.05.18.09.39.22.83.25,1.25.08.44-.18.83-.62,1.18-1.2.14-.01.28-.04.42-.09.78-.32,1.43-1.49,1.93-2.79.54-.15,1.06-.35,1.49-.52.14-.06.26-.11.35-.14.07,0,.14-.02.21-.04.26-.08.48-.27.61-.52.08-.16.16-.32.24-.48.07-.03.15-.06.22-.09.15-.06.27-.12.36-.15.07,0,.13-.02.2-.04.26-.08.48-.27.6-.52.26-.53.55-1.1.83-1.63.88-.12,1.55-.74,2.04-1.3.66-.24,1.18-.75,1.58-1.22.06.02.12.05.18.09.35.2.76.24,1.15.1.47-.17.85-.59,1.21-1.2.13,0,.25-.03.38-.07.94-.34,1.53-1.67,2.28-3.66.08-.03.16-.04.24-.07.46-.14,1.31-.4,1.6-.38.33.17.69.18,1.04.06.47-.17.84-.58,1.18-1.21.14,0,.28-.01.41-.06.77-.28,1.25-1.2,1.83-2.69.2-.05.4-.13.58-.23.28.53.68,1.15,1.72,1.76.03.02.06.03.09.04-.16.29-.32.56-.47.82-1.95,3.38-3.55,6.16-2.68,7.61Zm32.27,19.66c-1.1.76-2.44,1.43-2.89,1.47-.27-.12-.57-.13-.87-.02-.3.1-1.05.37-2.5,3.89-.03,0-.06,0-.09,0-1.82,0-3.72,1.89-4.39,2.61-.35.24-.58.74-1.18,2.04-.26.57-.7,1.52-1,2.05-.48-.05-.9.09-1.19.19-.39.14-.44.14-.62.04-.26-.15-.63-.18-.92-.07-.59.23-.76.79-1.14,2.02-.17.57-.55,1.79-.86,2.29-.42-.02-1.27.3-4.27,1.71-.23-.02-.45.01-.66.1-.9.38-1.19,1.55-1.55,3.03-.11.46-.29,1.17-.44,1.55-.08,0-.17.03-.25.05l-3.44,1.22c-.26-.04-.53-.02-.78.09-.92.39-1.22,1.59-1.57,2.98-.08.3-.17.7-.27,1-.93-.05-1.75.74-2.33,1.31-.29.28-.86.83-1.12.86-.37-.21-.79-.24-1.2-.08-1.04.41-1.91,2.39-2.51,4.23-.31.07-.57.21-.78.31-.5.25-.59.25-.76.16-.39-.22-.83-.26-1.24-.1-.97.37-1.44,1.62-2.09,3.64-.11.34-.24.75-.36,1.05-.93.08-2.71.74-6.25,3.3-.04,0-.07.02-.11.03-.03,0-.05.02-.08.03.09-1.41.09-2.42-.69-2.88-.49-.28-1.17-.05-1.42.46-.05.1-.1.2-.14.3-.14-.83-.26-1.9-.31-2.93-.02-.34-.21-.65-.5-.82-.25-.14-.56-.17-.83-.08-.04.01-.08.03-.11.04.13-1.19.15-2.11-.62-2.56-.26-.15-.58-.17-.86-.07-.1.04-.2.1-.28.17.1-.41.23-.85.41-1.28.21-.5-.03-1.08-.52-1.29-.23-.1-.49-.11-.71-.04-.17-1.34-.66-2.71-1.8-3.38-.08-.04-.16-.08-.25-.1-.09-1.1-.55-2.11-1.65-2.74-.24-.14-.54-.17-.8-.09-.27.09-.49.28-.61.54-.14.31-.3.64-.45.95.09-.72.41-1.57.69-2.15.02-.04.04-.08.06-.11.25-.49.06-1.09-.42-1.34-.29-.16-.63-.15-.91-.01.07-.27.14-.54.23-.81.14-.45-.05-.93-.46-1.16-.25-.14-.57-.17-.84-.08-.15.05-.26.12-.36.21-.09-.94-.17-2.02-.24-3.01-.02-.33-.21-.63-.5-.8-.18-.11-.44-.15-.67-.13.23-.99.13-2.03-1.04-2.71-.14-.08-.3-.13-.47-.13.09-.35.11-.72.02-1.09-.14-.59-.53-1.07-1.16-1.44-.24-.14-.56-.17-.83-.09-.11.04-.23.07-.37.19,0-1.28-.19-2.45-1.11-2.98-.23-.13-.52-.17-.77-.1,0-1.08-.24-2.07-1.11-2.57-.23-.14-.51-.17-.77-.1-.04.01-.08.03-.12.04.08-.51.1-.99,0-1.41.17-.27.32-.6.49-1.03.22.65.48,1.23,1.01,1.54.23.13.52.17.78.1.4-.12.5-.14,1.69-2.3.17.24.33.49.44.66.35.55.53.82.83.99.24.14.57.18.83.09.56-.17.8-.63,1.47-2.06,0-.02.02-.04.03-.07.25.24.5.5.7.72.55.58.83.86,1.11,1.02.24.14.53.17.8.09.27-.08.49-.28.61-.53.11-.23.22-.47.34-.71.07.56.35,1.16,1.13,1.61.25.14.64.18.92.08.25-.08.66-.22,1.44-1.73.13.54.4,1.12,1.07,1.51.24.14.56.17.83.09.53-.17.7-.57,1.23-1.75.11-.25.27-.62.43-.94,1.79,1.67,1.94,1.76,2.04,1.82.29.17.64.2.95.09.19-.07.36-.18.5-.33.25.47.5.61.62.68.24.14.53.17.79.1.3-.09.47-.14,1.05-1.14.25.36.57.69.99.93.24.14.58.18.85.09.3-.1.63-.2,1.54-2.01.48.63.7,1.32.71,1.33.07.24.24.45.46.58.24.14.55.17.82.09.47-.14.72-.4,1.74-2.41,1.22.67,2.54,1.37,2.59,1.4.24.14.56.17.83.09.25-.08.47-.15.95-.96.22.31.49.59.82.78.38.22.83.24,1.23.07.98-.43,1.57-2.17,1.89-3.56.07-.31-.02-.62-.21-.85.13-.39.24-.81.36-1.24.08-.31.2-.74.29-1.01.15-.08.27-.21.36-.37.28-.48.11-1.09-.37-1.37-.18-.11-.4-.16-.59-.15.76-1.87,1.62-3.84,2.16-5.05,1.66-3.78,1.73-3.93.87-4.43-.4-.23-.86-.27-1.28-.1-.43.17-.75.51-1.03,1.01,1.22-3.46,3.71-8.19,5.57-11.28.14-.23.18-.51.11-.77-.07-.26-.24-.48-.47-.62-.1-.06-.21-.1-.32-.14.06-.1.12-.2.17-.3,1.04-1.8,1.93-3.36,2.39-4.62.21.07.42.1.63.03.16-.05.27-.11.37-.21.11,1.53.49,2.48,1.13,2.85.25.14.58.17.85.08.26-.08.43-.23.6-.48.15,1.64.35,2.08.84,2.37.28.17.62.2.94.09.24-.08.42-.23.59-.43.02.11.03.22.04.32.27,1.96.42,2.84,1.09,3.23.25.15.65.18.92.09.25-.09.45-.25.62-.47-.12.9-.17,1.94.74,2.46.16.09.38.13.6.14-.12.68-.04,1.36.64,1.76.28.16.62.19.93.08.06-.02.12-.05.18-.08.48,2.33,1.09,2.68,1.33,2.82.29.17.64.2.95.09.27-.1.48-.27.66-.52.12.58.22,1.16.27,1.49.22,1.31.29,1.75.79,2.04.24.14.53.17.8.09.43-.13.55-.38.84-.98.04-.07.08-.17.14-.29.09,1.07-.55,2.52-.56,2.54-.23.49-.03,1.08.45,1.32.34.17.74.13,1.03-.08-.13.88-.02,1.81.95,2.38.25.15.56.17.84.07.07-.03.14-.06.2-.1.21.94.57,1.15.77,1.26.26.15.56.18.84.08.06-.02.12-.05.17-.08-.03,1.02.01,1.81.71,2.21.05.03.1.05.16.07-.08.97.11,1.86.93,2.34.22.13.52.17.77.11-.04.66.2,1.32,1.03,1.8.07.04.15.05.23.08-.02.04-.04.09-.06.13-.18,0-.36.07-.52.17Z"/>
  </g>
</svg>