<?xml version="1.0" encoding="UTF-8"?>
<svg id="Layer_2" data-name="Layer 2" xmlns="http://www.w3.org/2000/svg" xmlns:xlink="http://www.w3.org/1999/xlink" viewBox="0 0 2755.3 2724.79">
  <defs>
    <style>
      .cls-1 {
        clip-path: url(#clippath-1);
      }

      .cls-2 {
        clip-path: url(#clippath);
      }

      .cls-3 {
        fill: none;
      }

      .cls-4 {
        fill: #ff6b6b;
      }
    </style>
    <clipPath id="clippath">
      <rect class="cls-3" x="913.81" y="489.9" width="1440" height="1024"/>
    </clipPath>
    <clipPath id="clippath-1">
      <rect class="cls-3" x="231.8" y="209.12" width="2200" height="2200"/>
    </clipPath>
  </defs>
  <g id="Layer_1-2" data-name="Layer 1">
    <g class="cls-2">
      <g class="cls-1">
        <g>
          <path class="cls-4" d="m434.98,994l467.82-22.13c61.71-2.91,116.39-2.99,160.52,25.73,25.79,16.78,44.35,49.15,46.17,80.55,1.35,23.26-6.58,43.27-22.32,56.33-21.45,17.82-51.23,19.6-80.03,21.33-7.64.46-15.54.93-23.14,1.7-40.66,4.1-81.5,27.48-80.9,64.21.33,19.6,11.91,35.96,33.5,47.31,16.75,8.81,39.88,14.55,63.46,15.75,39.4,2.01,73.43.42,104.01-4.85,36.98-6.38,69.35-18.48,96.21-35.96,29.45-19.18,53.15-47.6,66.72-80.04,14.38-34.36,15.59-70.12,3.42-100.69-11.15-28.01-32.1-50.3-52.36-71.86-13.49-14.35-27.43-29.19-38.33-45.56-3.74-5.61-6.99-11.89-9.64-18.64-6.72-17.08,3.03-30.36,14.94-35.48,12.06-5.18,28.61-3.1,36.46,13.73,45.06,96.45,135.6,168.48,236.29,187.98,18.9,3.66,38.32,5.47,57.93,5.47,46.24,0,93.53-10.06,137.41-29.63,62.49-27.87,115.23-73.74,148.51-129.17l1.74-2.91c9.92-16.6,20.17-33.76,37.51-37.97,13.72-3.33,23.8,3.14,29.84,9.15,14.65,14.6,21.77,42.07,16.56,63.9-3.17,13.28-8.67,26.42-13.99,39.12-8.88,21.2-18.06,43.11-16.82,66.54,1.25,23.63,13.67,45.74,34.95,62.27,19.62,15.23,44.68,23.91,68.92,23.91.4,0,.81,0,1.21,0,42.74-.51,86.5-21.6,130.06-62.67,15.88-14.96,30.76-31.37,45.16-47.24,17.68-19.49,35.96-39.64,56.09-57.09,27.81-24.1,60.98-42.19,93.39-50.94,36.4-9.82,71.22-7.83,100.69,5.76,33.51,15.46,57.65,53.31,60.06,94.19,1.9,32.17-10.54,58.91-34.11,73.36-35.51,21.77-77.65,11.8-122.27,1.23-42.85-10.14-87.16-20.63-124.83-.02-22.49,12.31-37.81,34.76-43.12,63.23-6.25,33.48,2.75,69.52,23.47,94.06,18.2,21.55,44.09,37.1,74.87,44.97,28.23,7.22,59.15,7.83,89.42,1.76,59.74-11.97,112.74-45.29,159.5-74.68,74.57-46.88,128.45-55.76,164.72-27.16,15.26,12.03,25.08,30.74,27.65,52.67,2.44,20.8-1.92,43.07-11.96,61.1-22.63,40.65-66.7,62.71-99.69,74.05-68.05,23.4-142.71,25.21-228.25,5.52-66.3-15.26-137.04-42.79-222.61-86.65-18.06-9.26-36.49-18.93-54.31-28.28-122.53-64.32-249.23-130.83-387.49-133.08-32.43-.53-62.07,3.29-88.11,11.36-30.67,9.51-55.56,24.77-73.96,45.37-22.11,24.74-32.51,61.25-27.14,95.28,4.3,27.28,18.31,49.11,39.44,61.46,20.94,12.24,44.69,14.98,72.64,8.37,24.61-5.82,50.28-18.26,75.11-30.3,44.87-21.75,91.27-44.23,135.33-30.72,48.76,14.95,71.3,65.56,93.09,114.5,7.49,16.81,15.23,34.2,23.92,49.88,22.11,39.88,55.61,73.59,96.88,97.49,40.2,23.28,84.8,35.53,129.23,35.53,1.18,0,2.37,0,3.55-.03,40.23-.6,79.84-10.67,118.14-20.4,19.76-5.02,40.18-10.21,60.42-14.03,92.54-17.46,143.59,6.75,170.11,30.12,21.95,19.35,35.36,49.21,35.87,79.89.42,25.62-8.42,48.28-24.91,63.81-22.35,21.06-56.28,20.19-79.98,9.99-24.47-10.53-39.11-30.17-39.17-52.54-.03-12.4,3.66-24.19,7.56-36.67,1.9-6.06,3.86-12.33,5.33-18.62,5.71-24.33.87-45.37-12.95-56.29-8.9-7.04-20-9.11-28.97-5.41-13.03,5.38-17.4,20.03-18.77,31.41-.81,5.1-17.13,110.32,7.24,157.21,19.24,37.05,58.73,66.11,108.34,79.73,37.63,10.34,76.75,11.71,115.17,11.71,6.91,0,13.8-.04,20.65-.09,1.66-.01,2.99-1.36,2.98-3.02-.01-1.65-1.35-2.98-3-2.98h-.02c-44.54.29-90.59.58-134.2-11.4-48-13.18-86.13-41.14-104.6-76.71-23.55-45.31-6.8-152.47-6.63-153.55,0-.04.01-.08.02-.12,1.68-14.04,6.91-23.25,15.11-26.64,6.96-2.87,15.76-1.12,22.96,4.57,17.7,13.99,12.76,41.97,10.83,50.21-1.42,6.08-3.35,12.24-5.21,18.2-3.87,12.36-7.87,25.15-7.83,38.47.06,24.84,16.06,46.53,42.8,58.04,25.51,10.97,62.14,11.79,86.47-11.13,17.73-16.71,27.25-40.95,26.8-68.28-.54-32.34-14.7-63.85-37.9-84.29-21.45-18.91-49.25-30.8-82.62-35.36-27.79-3.79-58.93-2.5-92.57,3.84-20.42,3.85-40.94,9.07-60.78,14.11-37.97,9.65-77.23,19.63-116.76,20.22-44.48.65-89.35-11.34-129.68-34.7s-73.05-56.28-94.64-95.21c-8.57-15.45-16.25-32.71-23.69-49.41-22.34-50.17-45.45-102.04-96.81-117.8-46.32-14.21-93.8,8.8-139.71,31.06-50.61,24.53-98.41,47.69-142.1,22.15-19.55-11.43-32.52-31.74-36.54-57.21-5.09-32.3,4.75-66.92,25.69-90.35,17.67-19.77,41.64-34.45,71.26-43.63,25.42-7.88,54.44-11.62,86.23-11.1,136.83,2.23,262.89,68.4,384.8,132.39,17.83,9.36,36.27,19.04,54.36,28.31,86.03,44.09,157.21,71.78,224,87.16,40.76,9.38,79.97,13.92,116.57,13.55,40.42-.43,79.1-6.91,114.98-19.24,61.57-21.17,89.99-53.45,102.99-76.81,10.64-19.11,15.26-42.7,12.68-64.72-2.76-23.53-13.38-43.67-29.89-56.69-38.51-30.36-94.64-21.6-171.62,26.8-46.32,29.12-98.83,62.12-157.48,73.88-29.39,5.89-59.39,5.3-86.75-1.69-29.57-7.56-54.39-22.44-71.78-43.03-19.59-23.2-28.08-57.34-22.15-89.09,4.97-26.66,19.22-47.64,40.1-59.07,35.65-19.51,78.82-9.29,120.56.59,43.84,10.38,89.16,21.11,126.79-1.96,25.52-15.65,38.99-44.38,36.96-78.83-2.54-43.03-28.07-82.93-63.53-99.28-30.75-14.19-66.98-16.3-104.76-6.11-33.26,8.97-67.27,27.51-95.76,52.2-20.41,17.69-38.81,37.98-56.61,57.6-14.32,15.78-29.12,32.1-44.83,46.91-42.43,40.01-84.83,60.54-126.02,61.03-23.3.27-47.48-7.98-66.38-22.65-19.89-15.44-31.48-35.98-32.64-57.84-1.17-22.06,7.34-42.39,16.36-63.91,5.41-12.93,11.01-26.29,14.29-40.05,5.66-23.7-2.15-53.6-18.16-69.55-10.22-10.18-22.49-13.89-35.49-10.73-19.78,4.8-31.19,23.89-41.25,40.72l-1.74,2.9c-32.65,54.39-84.43,99.41-145.81,126.78-61.37,27.37-129.47,35.8-191.75,23.75-98.84-19.13-187.73-89.88-231.99-184.62-9.54-20.44-29.64-22.99-44.27-16.7-14.48,6.22-26.34,22.39-18.15,43.19,2.81,7.16,6.26,13.81,10.23,19.77,11.18,16.79,25.3,31.81,38.95,46.34,20.79,22.12,40.43,43.02,51.16,69.97,11.59,29.1,10.39,63.24-3.38,96.15-12.92,30.88-36.42,59.07-64.46,77.32-47.83,31.13-112.16,44.16-196.64,39.85-22.74-1.16-44.96-6.66-60.97-15.07-19.81-10.41-30-24.58-30.29-42.1-.32-19.64,12.85-32.79,23.96-40.36,13.78-9.39,32.57-15.87,51.54-17.79,7.48-.75,15.32-1.22,22.9-1.68,29.76-1.78,60.54-3.62,83.51-22.7,17.25-14.31,25.94-36.08,24.48-61.3-1.96-33.74-21.15-67.19-48.89-85.23-45.64-29.69-101.31-29.66-164.08-26.69l-467.82,22.13c-85.29,4.04-181.02,3.18-237.56-58.42-24.62-26.83-37.84-63.83-37.24-104.19.58-39,14.49-77.75,38.17-106.31,23.55-28.39,56.37-49.43,94.91-60.83,37.24-11.02,76.86-12.35,114.58-3.85,67.23,15.14,124.77,57.41,180.41,98.28,14.32,10.52,29.13,21.4,43.84,31.62,69.58,48.33,133.05,72.61,189.49,72.61,20.15,0,39.42-3.1,57.74-9.3,37.18-12.6,68.37-37.69,98.53-61.95,9.5-7.64,19.32-15.54,29.14-22.9,51.92-38.87,98.67-52.94,138.95-41.8,48.28,13.34,76.63,59.1,104.05,103.35,8.03,12.96,16.33,26.35,24.97,38.65,62.28,88.64,170.96,138.31,278.61,138.31,54.74,0,109.22-12.85,157.18-39.95,32.07-18.12,53.16-38.19,64.48-61.34,12.54-25.64,12.89-63.28-10.69-85.62-31.28-29.6-81.08-16.19-121.1-5.41l-.65.17c-75.29,20.28-142.46,21.2-199.66,2.73-32.49-10.49-62.29-28.32-86.16-51.54-25.16-24.48-42.29-53.8-49.53-84.81-7.38-31.59-2.99-67.19,12.04-97.68,15.62-31.69,40.7-54.57,70.62-64.42,24.46-8.05,52.15-7,77.98,2.97,25.83,9.96,47.05,27.78,59.76,50.17,8.24,14.52,13.41,30.99,18.4,46.91,5.74,18.32,11.67,37.25,22.37,53.71,15.75,24.24,40.98,41.6,72.98,50.21,28.79,7.74,61.45,7.84,91.96.28,48.1-11.91,91.13-38.51,132.73-64.23,9.28-5.74,18.87-11.67,28.33-17.32,35.37-21.11,82.35-45.98,132.05-50.98,10.38-1.04,16.74,5.94,18.43,13.33,1.69,7.37-.99,16.41-10.8,19.99l-.43.16c-9.95,3.5-20.38,4.42-31.42,5.39-6.59.58-13.42,1.18-20.07,2.39-33.72,6.11-62.96,29.65-80.22,64.59-20.62,41.75-21.17,91.6-1.43,130.09,17.49,34.11,47.45,61.76,86.65,79.96,35.79,16.62,78.11,24.54,119.15,22.3,79.91-4.37,157.9-45.88,213.99-113.88,56.09-68,81.99-152.48,71.08-231.76-3.8-27.58-11.35-55.99-18.65-83.46-8.56-32.2-17.41-65.49-20.02-97-2.9-35.01,2.37-64.31,16.11-89.58,12.39-22.78,31.86-41.45,50.69-59.5,21.33-20.45,43.39-41.59,55.61-69,12.67-28.42,12.42-63.04-.7-94.98-12.88-31.37-36.74-57.19-65.45-70.85-57.15-27.19-133.09-11.6-180.58,37.05-21.9,22.45-38.19,51.56-47.13,84.19-8.55,31.22-10.24,64.84-4.89,97.24,9.14,55.31,36.66,105.52,63.27,154.08,24.45,44.62,49.74,90.76,60.55,140.59,20.53,94.62-16.16,199.22-91.29,260.28-20.17,16.39-42.65,28.81-65.01,35.93-25.11,7.99-49.22,9.22-71.66,3.65-25.45-6.32-49.42-25.07-62.55-48.93-10.9-19.81-13.43-41.17-7.12-60.14,12.31-36.97,48.24-54.77,86.29-73.61,14.99-7.43,30.5-15.1,44.24-24.02,68.57-44.49,101.56-136.77,76.75-214.65-24.8-77.89-105.07-134.06-186.77-130.7-31.11,1.28-62.31,11.26-90.21,28.84-18.92,11.92-27.11,33.48-20.86,54.92,6.36,21.81,25.13,35.86,47.89,35.86.1,0,.2,0,.3,0,1.05,0,2.12,0,3.18.02,49.39.83,81.46,29.99,90.34,56.74,5.89,17.73,4.22,37.36-4.84,56.77-8.43,18.07-22.48,34.14-39.57,45.24-34.43,22.36-76.59,27.8-116.82,31.46-35.98,3.27-73.96,5.38-108.04-7.64-43.26-16.53-61.94-52.78-60.98-79.46,1.05-29.62,20.62-52.42,41.34-76.57,11.38-13.25,23.14-26.96,31.68-41.99,17.98-31.64,20.69-70.44,7.61-109.24-16.04-47.6-53.85-89.07-98.66-108.22-37.88-16.19-81.02-21.43-128.22-15.55-40.73,5.07-83.26,18.14-126.42,38.84-24.98,11.98-52.85,27.66-70.17,53.07-16.08,23.61-21.76,60.43-1.52,85.11,14.28,17.41,36.34,24.43,63.81,20.3,21.91-3.29,47.07-13.87,69.03-29.01,1.91-1.32,3.84-2.65,5.78-4,37.35-25.88,79.69-55.2,120.53-40,16.22,6.04,29.29,19.33,36.79,37.42,9.15,22.08,8.86,48.87-.76,69.91-15.69,34.35-52.39,61.44-100.7,74.33-44.28,11.81-92.07,11.12-138.21-2-46.14-13.12-87.14-37.69-118.58-71.04-9.04-9.59-17.64-20.16-25.95-30.39-19.92-24.49-40.51-49.81-69.1-64.27-24.59-12.43-58.24-10.76-81.81,4.07-16.37,10.29-25.2,25.5-24.86,42.82.52,26.62,20.78,44.93,40.38,62.63,11.41,10.31,23.22,20.98,31.2,33.24,26.14,40.19,7.8,96.35-25.04,127.42-34.37,32.52-82.58,46.92-129.55,57.63-145.95,33.29-295.44,42.54-444.34,27.48-68.21-6.89-87.84-32.63-92.29-53.02-2.88-13.19-.33-25.69,7.57-37.17,18.67-27.12,61.92-42.27,93.28-47.01,110.59-16.69,222.88-17.78,333.75-3.24,49.37,6.47,111.1,4.56,124.78-41.24,4.37-14.62,2.43-28.84-5.75-42.28-18.2-29.88-61.25-47.38-92.6-53.29-88.61-16.71-179.59-18.48-270.42-5.25-90.83,13.22-177.53,40.86-257.7,82.14-3.94,2.03-7.88,4.09-11.83,6.17-30.14,15.79-61.31,32.12-94.92,33.5-22.26.91-45.85-7.64-61.55-22.33-11.56-10.82-17.86-23.97-18.22-38.02-.89-35.43,33.61-61.06,62.7-76.32,137.17-71.92,298.46-73.3,454.45-74.64,14.35-.12,29.19-.25,43.71-.43,72.65-.91,167.55-4.49,257.22-24.35,93.5-20.71,167.72-55.61,226.92-106.72,1.25-1.08,1.39-2.98.31-4.23-1.08-1.25-2.98-1.39-4.23-.31-58.43,50.44-131.8,84.92-224.3,105.4-89.14,19.74-183.63,23.31-256,24.21-14.51.18-29.34.31-43.69.43-156.7,1.34-318.74,2.72-457.19,75.32-30.6,16.05-66.88,43.27-65.92,81.78.39,15.69,7.35,30.3,20.11,42.25,16.84,15.75,42.08,24.92,65.9,23.94,34.95-1.44,66.73-18.08,97.45-34.18,3.94-2.06,7.87-4.12,11.8-6.15,79.58-40.97,165.65-68.41,255.82-81.53,90.17-13.13,180.48-11.37,268.44,5.21,32.51,6.13,72.52,24.13,88.59,50.51,7.26,11.92,8.99,24.52,5.12,37.44-12.48,41.75-71.2,43.17-118.26,37-111.43-14.61-224.28-13.52-335.43,3.26-32.55,4.92-77.57,20.84-97.32,49.54-8.88,12.9-11.74,26.98-8.49,41.85,4.88,22.32,25.76,50.45,97.55,57.7,149.54,15.12,299.69,5.84,446.28-27.6,47.81-10.91,96.93-25.62,132.34-59.13,17.95-16.99,31.32-40.46,36.68-64.4,5.81-25.97,2-51.06-10.74-70.65-8.41-12.92-20.5-23.85-32.2-34.42-19.51-17.62-37.93-34.27-38.4-58.3-.29-15.14,7.54-28.5,22.05-37.62,21.54-13.54,53.47-15.14,75.92-3.79,27.45,13.88,47.64,38.7,67.16,62.7,8.39,10.31,17.06,20.97,26.24,30.72,32.18,34.14,74.13,59.27,121.31,72.69,47.18,13.42,96.08,14.12,141.4,2.03,22.91-6.11,44.13-15.68,61.35-27.67,19.88-13.84,34.43-30.65,43.25-49.96,10.44-22.85,10.76-50.78.84-74.7-8.14-19.65-22.43-34.12-40.24-40.75-43.78-16.3-87.48,13.98-126.04,40.69-1.94,1.34-3.86,2.67-5.77,3.99-21.24,14.64-45.48,24.85-66.52,28.02-31.92,4.8-49.31-7.23-58.28-18.17-18.38-22.4-12.98-56.16,1.84-77.93,16.52-24.23,43.55-39.4,67.81-51.03,42.57-20.42,84.49-33.31,124.57-38.29,46.13-5.74,88.22-.65,125.12,15.12,43.29,18.5,79.82,58.59,95.33,104.62,12.52,37.16,9.99,74.22-7.14,104.36-8.25,14.52-19.82,28-31.01,41.04-20.48,23.87-41.66,48.55-42.79,80.26-1.47,41.01,32.58,72.95,64.84,85.28,35.28,13.48,74.04,11.35,110.72,8.02,40.98-3.72,83.96-9.29,119.54-32.4,18.02-11.7,32.84-28.65,41.74-47.73,9.72-20.83,11.48-41.99,5.1-61.2-13.6-40.92-59.26-60.23-95.93-60.84-1.12-.02-2.24-.03-3.33-.02-.09,0-.17,0-.26,0-20.01,0-36.53-12.36-42.12-31.54-5.48-18.8,1.7-37.71,18.3-48.16,27.02-17.03,57.2-26.68,87.26-27.92,79.08-3.28,156.8,51.12,180.81,126.52,24.02,75.4-7.92,164.73-74.29,207.79-13.45,8.72-28.79,16.32-43.63,23.67-37.47,18.56-76.22,37.75-89.32,77.1-6.85,20.57-4.16,43.63,7.56,64.93,14.13,25.66,38.94,45.05,66.37,51.86,23.53,5.84,48.74,4.58,74.92-3.76,23.07-7.34,46.22-20.13,66.97-36.99,76.84-62.45,114.37-169.43,93.37-266.2-10.99-50.67-36.49-97.2-61.15-142.2-26.37-48.12-53.64-97.87-62.61-152.17-10.86-65.72,8.45-133.26,50.4-176.27,45.75-46.88,118.8-61.94,173.7-35.83,27.39,13.03,50.16,37.71,62.48,67.71,12.5,30.43,12.78,63.33.77,90.26-11.75,26.34-33.37,47.07-54.29,67.12-19.16,18.37-38.98,37.36-51.81,60.96-31.83,58.55-13.93,125.88,3.38,190.99,7.26,27.3,14.76,55.53,18.51,82.74,10.69,77.63-14.74,160.41-69.76,227.12-55.02,66.71-131.45,107.43-209.69,111.71-40.08,2.19-81.37-5.53-116.29-21.75-37.97-17.63-66.96-44.35-83.83-77.25-18.89-36.84-18.33-84.62,1.47-124.7,16.41-33.22,44.08-55.58,75.91-61.34,6.39-1.16,13.07-1.75,19.53-2.31,10.92-.96,22.22-1.95,32.94-5.73l.47-.17c13.15-4.81,16.77-17.34,14.56-26.96-2.21-9.63-10.92-19.36-24.87-17.96-50.88,5.12-98.62,30.37-134.53,51.8-9.51,5.68-19.12,11.62-28.42,17.37-41.21,25.48-83.83,51.83-131.02,63.51-29.54,7.32-61.13,7.23-88.96-.25-30.55-8.21-54.58-24.7-69.51-47.68-10.24-15.77-16.05-34.31-21.67-52.24-5.08-16.23-10.34-33-18.9-48.08-27.77-48.92-91.39-73.47-144.84-55.88-31.46,10.36-57.79,34.32-74.12,67.47-15.63,31.71-20.19,68.78-12.5,101.7,7.5,32.12,25.21,62.46,51.19,87.74,24.53,23.87,55.13,42.18,88.5,52.95,58.31,18.84,126.63,17.94,203.06-2.65l.65-.17c38.57-10.39,86.57-23.32,115.41,3.98,21.48,20.34,21,54.95,9.43,78.62-10.77,22.03-31.06,41.25-62.04,58.76-34.04,19.24-71.97,31.55-112.72,36.6-39.29,4.87-79.34,2.8-119.02-6.16-39.68-8.96-76.73-24.28-110.12-45.56-34.63-22.07-63.59-49.48-86.07-81.47-8.55-12.16-16.8-25.48-24.78-38.37-28.03-45.23-57.01-92.01-107.55-105.97-42.16-11.65-90.66,2.74-144.15,42.78-9.91,7.42-19.77,15.35-29.31,23.02-29.75,23.94-60.52,48.69-96.7,60.95-67.73,22.93-149.11,1.89-241.89-62.55-14.65-10.18-29.43-21.03-43.72-31.52-56.14-41.24-114.2-83.88-182.65-99.3-38.72-8.73-79.39-7.36-117.6,3.95-39.69,11.75-73.51,33.45-97.82,62.76-24.54,29.59-38.96,69.7-39.55,110.05-.62,41.9,13.17,80.37,38.82,108.33,58.29,63.51,155.61,64.46,242.26,60.36Z"/>
          <path class="cls-4" d="m2755.23,2539.32c-.36-1.62-1.96-2.65-3.58-2.28-72.32,15.98-151.84,15.76-236.36-.66-71.89-13.97-146.75-39-228.84-76.52-62.11-28.38-123.42-61.23-182.72-93-80.11-42.92-162.94-87.3-248.9-121.3-94.62-37.43-194.35-62.75-296.42-75.27-102.07-12.52-204.96-12.04-305.82,1.41-7.66,1.02-15.47,2.14-23.02,3.21-44.58,6.36-90.69,12.94-135.06,4.75-26.45-4.88-51.91-16.38-71.71-32.39-21.7-17.55-35.43-39.45-39.7-63.32-7.98-44.62,15.61-83.85,40.59-125.38,17.7-29.43,36-59.86,42.65-92.93,7.92-39.39-4.81-83.27-34.05-117.38-29.24-34.11-70.68-53.37-110.81-51.57-27.48,1.24-57.15,19.4-69,42.24-7.45,14.36-7.12,28.63.96,41.28,8.27,12.95,22.36,19.54,35.99,25.92,3.68,1.72,7.48,3.5,11.05,5.36,33.28,17.33,56.95,52.75,63.31,94.74,6.36,41.99-5.75,82.82-32.4,109.24-17.59,17.44-40.08,29.5-61.84,41.17-12.39,6.65-25.21,13.52-37.13,21.37-18,11.84-33.35,27.17-43.24,43.15-11.71,18.93-15.73,38.65-11.62,57.02,6.12,27.36,26.53,46.29,60.67,56.28,31.75,9.29,68.99,8.81,94.64,6.78,276-21.89,554.47-10.17,827.66,34.83,56.86,9.37,116.7,20.87,168.43,49.05,26.55,14.47,50.05,33.57,67.94,55.25,19.7,23.88,32.05,49.81,36.69,77.06,5.55,32.6-.34,67.37-17.04,100.56-15.44,30.68-39.87,59.02-68.8,79.79-61.17,43.92-138.59,59.13-199.2,67.47-166.58,22.93-337.05,12.03-501.91,1.5-288.5-18.43-586.82-37.5-867.89-125.59-44.42-13.92-94.57-31.89-127.59-69.13-39.43-44.47-35.89-102.76-10-131.26,29.61-32.59,80.3-32.94,125.5-30.7,291,14.39,591.91,29.27,881.12,94.92,25.39,5.76,51.47,12.03,76.69,18.09,109.89,26.41,222.17,53.39,331.76,53.39,60.18,0,119.58-8.14,177.28-28.99,24.91-9,54.88-25.83,56.18-54.89.96-21.33-14.48-41.21-45.88-59.09-84.58-48.18-184.02-75.39-303.99-83.2-108.68-7.08-219.58,2.51-323.24,13.92-8.42.93-16.85,1.86-25.3,2.8-204.83,22.71-416.63,46.2-605.68-30.9-55.95-22.82-108.89-54.39-160.08-84.91-35.62-21.24-72.45-43.2-110.12-62.13-19.53-9.81-39.77-19.06-59.35-28-43.54-19.88-88.56-40.45-128.11-68.4-30.17-21.32-55.74-47.14-73.95-74.65-20.65-31.2-31.49-63.57-32.21-96.2-1.37-61.86,37.3-122.32,94.02-147.03,56.72-24.71,127.33-11.85,171.69,31.28,11.87,11.54,26.68,30.07,29.78,52.82,2.51,18.4-2.64,36.25-8.09,55.14-2.22,7.68-4.51,15.62-6.2,23.51-8.37,39.03-.57,82.78,21.41,120.02,21.98,37.24,56.51,65.21,94.73,76.75,31.29,9.44,61.19,7.77,84.19-4.71,12.83-6.96,23.56-18.09,30.2-31.34,6.98-13.92,8.7-28.98,4.85-42.42-10.44-36.43-50.99-50.01-91.63-60.8-28.42-7.54-76.37-25.92-78.15-64.26-.61-13.07,3.98-24.61,13.65-34.28,20.97-20.99,61.44-28.96,92.25-27.54,36.68,1.68,101.08,11.69,120.27,59.85,9.57,24.01,5.41,52.31,1.39,79.68-5.09,34.65-10.35,70.48,13.82,95.69,12.86,13.41,31.35,19.22,52.09,16.38,27.19-3.74,53.95-22.12,66.58-45.73,21.49-40.18,16.56-87.27,9.09-136.04-6.6-43.06-14.08-91.88,5.59-132.88,15.23-31.75,44.28-54.81,86.33-68.54,32.51-10.62,72.18-15.79,121.26-15.82h.45c50.44,0,111.94,5.56,141.34,48.35,21.01,30.57,18.73,70.04,16.53,108.2-.73,12.67-1.49,25.77-1.38,38.38.58,69.67,31.04,136.03,81.48,177.5,25.87,21.27,57.3,35.77,90.88,41.95,34.33,6.32,68.6,3.43,99.12-8.35,29.59-11.42,55.42-30.6,80.4-49.15,15.66-11.63,31.85-23.65,48.77-33.61,43.26-25.46,103.12-36.19,139.33-2.79,30.5,28.13,33.98,57.15,37.66,87.87,2.03,16.96,4.13,34.5,10.78,52.73,17.76,48.78,65.64,70.54,155.22,70.54,39.85,0,70.24,8.04,94.66,14.5,30.37,8.04,52.31,13.84,67.23-5.84,8.25-10.89,9.78-23.39,4.3-35.2-7.74-16.69-28.28-29.15-49.95-30.31-19.81-1.06-42.15,4.73-63.76,10.33-17.18,4.45-33.42,8.66-48.3,9.65-34.31,2.28-73.01-14.03-78.37-45.28-2.12-12.34.86-24.03,8.83-34.77,17.42-23.45,52.25-35.32,76.77-38.35,106.85-13.22,219.24,27.11,293.31,105.24,20.43,21.55,38.75,46.42,56.47,70.47,35.03,47.55,71.25,96.71,125.21,121.95,92.77,43.38,200.69,1.11,294.55-41.92,19.29-8.84,41.14-18.86,56.11-36.52,14.4-17,21.63-44.69,7.58-64.73-7.21-10.27-21.34-15.9-35.17-14.01-9.49,1.3-16.99,5.83-21.3,12.69-.12-.27-.27-.54-.48-.77-1.1-1.24-3-1.36-4.23-.26-43.69,38.67-105.61,55.65-169.9,46.57-64.29-9.08-119.09-42.54-150.35-91.8-9.84-15.5-18.01-32.81-25.92-49.55-15.64-33.11-31.8-67.35-61.69-89.31-30.7-22.56-69.87-27.69-107.75-32.64-40.82-5.34-79.38-10.38-108.9-35.15-17.22-14.45-28.61-33.52-40.67-53.71-8-13.39-16.27-27.23-26.34-39.44-.53-.64-1.07-1.28-1.62-1.91-13.79-15.78-34.22-22-54.65-16.63-20.46,5.38-35.82,21.52-40.09,42.14-4.21,20.33-18.62,38.87-36.69,47.22-37.66,17.4-81.47,1.64-104.23-9.31-41.01-19.72-78.33-50.7-110.94-92.09-27.88-35.4-52.54-78.63-73.29-128.51-1.63-3.93-3.25-7.88-4.86-11.84-11.67-28.63-23.74-58.23-45.41-80.84-23.9-24.94-66.58-40.67-98.61-20.7-14.65,9.14-24.23,23.97-27.7,42.89-4.68,25.54,2.84,55.91,19.17,77.38,20.67,27.17,50.61,44.94,79.56,62.13,8.57,5.09,17.43,10.35,25.87,15.75,32.26,20.66,71.09,54.61,72.84,99.07.94,23.91-10.01,46.81-30.83,64.47-26.05,22.09-63.5,32.11-95.41,25.52-68.77-14.19-111.57-79.15-130.96-116.6-12.99-25.09-23.66-51.89-33.97-77.81-12.03-30.22-24.47-61.48-40.71-90.37-42.02-74.78-108-128.57-181.01-147.58-38.67-10.07-81.71-11.15-127.92-3.22-38.19,6.55-78.85,19.09-124.32,38.31-26.31,11.13-52.59,23.6-78,35.67-50.88,24.16-103.49,49.14-158.5,64.24-95.22,26.13-184.08,15.02-243.8-30.5-36.46-27.79-61.08-74.67-64.25-122.32-2.59-39.02,9.44-73.94,33.88-98.32,11.54-11.51,26.21-21.97,40.39-32.08,33.08-23.58,67.29-47.97,63.82-87.48-1.56-17.71-10.87-32.67-26.94-43.27-25.44-16.78-66.39-20.9-99.58-10.01-16.28,5.34-32.31,12.73-47.81,19.87-31.86,14.69-61.95,28.56-95.17,26.97-32.32-1.55-62.51-21.83-80.77-54.23-18.26-32.41-19.96-68.74-4.54-97.18,15.42-28.45,46.71-48.5,83.9-49.25,73.43-1.48,85.46,38.81,104.97,49.48,29.29,16.01,63.75,25.65,99.65,27.88,56.69,3.51,113.29-8.82,168.03-20.75,11.12-2.42,22.62-4.93,33.91-7.25,62.34-12.84,134.79-22.87,199.57.06,44.91,15.89,60.99,41.16,66.58,54.81,7.89,19.26,6.58,40.43-3.79,61.22-15.5,31.07-48.95,57.31-85.22,66.84-32.47,8.53-66.92,8.71-100.23,8.88-26.49.14-53.89.28-80.45,4.56-31.52,5.07-62.53,19.41-85.07,39.34-18.05,15.96-38.82,42.65-35.27,79.19,6.02,61.94,77.31,95.08,141,99.66,81.04,5.83,163.98-14.11,233.52-56.14,17.7-10.7,35.02-23.05,51.78-34.99,39.18-27.93,79.69-56.81,126.86-65.55,40.71-7.55,82.77.67,123.44,8.63,14.33,2.8,29.15,5.7,43.73,7.88,31.64,4.72,61.8,4.37,87.22-1.01,31.3-6.63,55.61-20.64,72.23-41.64,12.49-15.78,19.82-34.76,26.9-53.12,3.64-9.43,7.4-19.18,11.8-28.31l.39-.8c9.77-19.9,28.95-22.86,42.4-19.35,13.43,3.5,28.7,15.44,27.5,37.54-.68,12.5-2.06,25.35-3.39,37.78-4.72,43.95-9.6,89.39,16.45,125.04,14.82,20.28,37.97,33.94,66.96,39.49,24.88,4.76,53.79,3.43,81.41-3.75,22.6-5.88,44.68-14.59,66.03-23.02,27.11-10.71,55.14-21.77,84.12-26.89,67.17-11.87,117.38,18.3,132.27,54.24,12.51,30.2,4.66,64.55-2.94,97.77-8.13,35.56-16.54,72.34-.43,104.81,21.2,42.73,75.53,56.42,119.96,51.04,27.47-3.33,54.05-12.28,79.75-20.94,16.55-5.58,33.67-11.35,50.81-15.53,24.74-6.04,86.46-16.13,125.31,20.35,24.85,23.34,32.3,56.75,40.18,92.11,4.73,21.24,9.63,43.2,18.64,62.89,22.02,48.06,70.85,84.66,130.62,97.9,18.24,4.04,37.4,6.07,57.64,6.07,32.97,0,68.82-5.38,108.28-16.17,1.6-.44,2.54-2.09,2.1-3.69s-2.1-2.54-3.69-2.1c-62.73,17.16-116.06,20.44-163.04,10.03-57.95-12.84-105.22-48.18-126.46-94.55-8.75-19.11-13.58-40.76-18.24-61.69-7.73-34.7-15.73-70.58-41.93-95.18-15.75-14.79-36.48-23.85-61.62-26.93-21.01-2.57-44.94-.8-69.22,5.12-17.39,4.24-34.63,10.05-51.3,15.67-25.42,8.56-51.7,17.42-78.56,20.67-58.77,7.12-99.52-18.85-113.86-47.75-15.16-30.56-7.36-64.68.91-100.81,7.81-34.14,15.88-69.44,2.64-101.41-20.88-50.4-85.66-67.26-138.86-57.85-29.57,5.23-57.89,16.41-85.28,27.22-21.18,8.36-43.09,17.01-65.34,22.8-45.57,11.85-110.11,10.19-142.01-33.47-24.67-33.77-20.13-76.07-15.33-120.86,1.34-12.51,2.73-25.44,3.42-38.09,1.3-24.06-15.12-39.27-31.98-43.67-16.88-4.4-38.67.85-49.31,22.52l-.4.82c-4.51,9.36-8.32,19.22-12,28.77-6.92,17.94-14.08,36.48-26,51.55-16.76,21.18-59.05,54.59-153.86,40.44-14.45-2.16-29.2-5.04-43.47-7.83-41.22-8.06-83.85-16.39-125.69-8.64-48.48,8.99-89.54,38.26-129.25,66.56-16.66,11.88-33.89,24.16-51.4,34.74-68.49,41.39-150.16,61.04-229.98,55.29-61.26-4.4-129.78-35.78-135.46-94.26-3.31-34.03,16.27-59.09,33.27-74.12,21.72-19.2,51.62-33.01,82.05-37.91,26.11-4.2,53.27-4.34,79.53-4.48,33.69-.17,68.53-.36,101.73-9.08,37.87-9.95,72.83-37.41,89.06-69.96,11.16-22.39,12.54-45.27,3.98-66.18-10.31-25.17-35.21-45.84-70.13-58.19-66.17-23.42-139.64-13.28-202.79-.28-11.32,2.33-22.84,4.84-33.97,7.27-54.34,11.84-110.53,24.08-166.38,20.62-35.03-2.17-68.62-11.56-97.14-27.15-4.46-2.44-40.42-54.69-108.24-50.2-39.19,2.6-72.38,22.11-88.79,52.38-16.41,30.27-14.69,68.77,4.58,102.99,19.28,34.22,51.32,55.63,85.71,57.28,34.7,1.67,66.86-13.17,97.97-27.51,15.35-7.08,31.21-14.39,47.16-19.62,31.57-10.35,70.39-6.52,94.41,9.32,14.48,9.55,22.87,22.96,24.27,38.78,3.17,36.09-28.16,58.42-61.33,82.07-14.38,10.25-29.25,20.85-41.15,32.72-25.69,25.62-38.34,62.18-35.63,102.96,3.28,49.33,28.8,97.88,66.6,126.7,39.54,30.14,91.39,45.61,149.31,45.6,31.76,0,65.35-4.65,99.71-14.09,55.51-15.24,108.37-40.33,159.48-64.6,25.35-12.04,51.57-24.49,77.76-35.56,97.98-41.43,179.23-52.82,248.39-34.82,71.44,18.6,136.06,71.35,177.29,144.71,16.04,28.54,28.41,59.61,40.36,89.65,10.37,26.06,21.09,53,34.22,78.35,19.88,38.41,63.87,105.03,135.08,119.72,33.66,6.94,73.1-3.59,100.5-26.82,22.27-18.88,33.97-43.49,32.95-69.28-1.86-47.04-42.14-82.46-75.6-103.89-8.52-5.46-17.43-10.74-26.04-15.86-28.46-16.89-57.89-34.36-77.85-60.6-15.36-20.18-22.44-48.7-18.05-72.66,3.16-17.21,11.79-30.66,24.97-38.88,29.34-18.3,68.83-3.48,91.1,19.76,20.88,21.78,32.72,50.85,44.18,78.95,1.62,3.98,3.24,7.94,4.88,11.88,20.96,50.38,45.89,94.09,74.12,129.92,33.18,42.12,71.21,73.67,113.05,93.79,40.94,19.68,79.77,23,109.34,9.35,19.75-9.12,35.47-29.31,40.05-51.45,3.81-18.37,17.5-32.76,35.74-37.55,18.17-4.77,36.34.75,48.6,14.78.51.59,1.02,1.18,1.51,1.78,9.78,11.85,17.93,25.5,25.82,38.69,11.78,19.73,23.97,40.13,41.96,55.23,30.86,25.9,72.1,31.29,111.98,36.5,37.12,4.85,75.51,9.87,104.97,31.52,28.66,21.06,43.79,53.11,59.81,87.04,7.98,16.9,16.24,34.38,26.28,50.2,32.21,50.75,88.55,85.2,154.58,94.52,11.65,1.65,23.22,2.46,34.64,2.46,52.51,0,101.56-17.17,138.45-49.07-.03.07-.06.14-.08.21-.55,1.56.27,3.28,1.83,3.83,1.56.55,3.28-.27,3.83-1.83,2.65-7.5,9.54-12.54,18.91-13.82,11.66-1.6,23.49,3.03,29.44,11.51,12.3,17.54,5.67,42.16-7.25,57.4-14.1,16.64-35.31,26.37-54.03,34.95-92.65,42.47-199.07,84.24-289.51,41.94-52.57-24.58-88.34-73.13-122.92-120.07-17.83-24.2-36.26-49.22-56.95-71.04-75.36-79.49-189.69-120.51-298.4-107.07-25.7,3.18-62.3,15.75-80.85,40.73-8.99,12.1-12.33,25.34-9.93,39.36,2.86,16.71,13.79,30.42,31.59,39.67,15.3,7.95,34.65,11.8,53.09,10.58,15.44-1.03,32.71-5.5,49.4-9.82,21.17-5.48,43.06-11.16,61.93-10.14,19.54,1.04,37.98,12.08,44.82,26.84,3.18,6.86,5.14,17.47-3.64,29.05-12.49,16.48-30.72,11.66-60.91,3.66-24.75-6.55-55.56-14.71-96.19-14.71-86.68,0-132.82-20.54-149.59-66.59-6.4-17.58-8.46-34.77-10.46-51.39-3.82-31.85-7.42-61.94-39.55-91.57-38.47-35.49-101.28-24.55-146.45,2.03-17.2,10.12-33.52,22.24-49.3,33.96-24.66,18.31-50.15,37.24-78.98,48.37-29.49,11.38-62.64,14.16-95.87,8.05-32.58-6-63.06-20.06-88.15-40.69-49.09-40.35-78.73-104.99-79.29-172.91-.1-12.4.65-25.41,1.37-37.98,2.26-39.17,4.6-79.68-17.57-111.95-14.07-20.48-35.4-34.35-65.2-42.42-28.13-7.62-59.62-8.53-81.04-8.53h-.5c-49.72.03-90,5.3-123.12,16.12-43.67,14.26-73.91,38.36-89.88,71.65-20.47,42.68-12.85,92.46-6.11,136.39,7.31,47.72,12.17,93.75-8.45,132.3-11.77,22-36.73,39.13-62.11,42.62-18.78,2.58-35.45-2.6-46.94-14.58-22.14-23.09-17.32-55.91-12.21-90.66,4.13-28.15,8.41-57.27-1.75-82.77-20.43-51.29-87.44-61.88-125.57-63.63-29.78-1.37-72.99,5.49-96.77,29.3-10.91,10.92-16.09,23.97-15.4,38.8,1.97,42.16,52.6,61.81,82.61,69.78,38.97,10.34,77.83,23.24,87.4,56.65,6.87,23.98-7.25,53.33-32.14,66.83-29.12,15.8-62.37,9.43-79.59,4.24-36.79-11.1-70.07-38.09-91.29-74.05-21.23-35.96-28.78-78.13-20.72-115.71,1.65-7.69,3.91-15.53,6.1-23.11,5.39-18.66,10.96-37.96,8.27-57.62-2.64-19.34-13.55-38.81-31.55-56.31-46.06-44.78-119.37-58.13-178.27-32.48-58.9,25.66-99.04,88.43-97.62,152.66.75,33.78,11.92,67.22,33.21,99.38,18.62,28.12,44.72,54.49,75.49,76.24,40.01,28.27,85.29,48.96,129.08,68.95,19.53,8.92,39.72,18.14,59.15,27.9,37.47,18.83,74.21,40.74,109.74,61.92,51.38,30.64,104.52,62.32,160.89,85.32,190.46,77.68,403.03,54.1,608.61,31.31,8.45-.94,16.88-1.87,25.29-2.8,103.39-11.38,213.98-20.94,322.19-13.9,119.04,7.75,217.63,34.71,301.41,82.43,29.29,16.68,43.71,34.72,42.86,53.61-1.21,27.1-33.24,42.66-52.23,49.52-161.07,58.2-336.22,16.12-505.6-24.58-25.24-6.06-51.34-12.34-76.76-18.11-289.72-65.77-590.89-80.66-882.15-95.06-46.56-2.3-98.87-1.87-130.24,32.66-35.49,39.07-22.47,102.71,9.95,139.27,34.04,38.39,85.1,56.71,130.28,70.88,281.76,88.31,580.45,107.4,869.31,125.85,93.38,5.97,188.56,12.05,283.87,12.05,73.25,0,146.59-3.59,219.25-13.59,61.29-8.44,139.63-23.85,201.88-68.54,29.7-21.33,54.8-50.44,70.67-81.97,17.28-34.34,23.36-70.39,17.59-104.26-4.82-28.3-17.6-55.18-37.97-79.88-18.37-22.27-42.47-41.87-69.69-56.7-52.55-28.63-112.96-40.25-170.33-49.7-273.67-45.08-552.62-56.82-829.11-34.89-25.15,2-61.61,2.48-92.48-6.56-31.88-9.33-50.9-26.77-56.5-51.83-8.55-38.23,22.83-74.45,52.3-93.85,11.7-7.7,24.39-14.51,36.67-21.09,22.13-11.87,45.02-24.15,63.23-42.2,28-27.76,40.75-70.53,34.11-114.4s-31.5-80.94-66.47-99.16c-3.68-1.92-7.54-3.72-11.28-5.47-12.85-6.02-26.14-12.24-33.47-23.71-8.67-13.57-5.16-26.68-.69-35.29,10.94-21.09,38.44-37.86,63.95-39.01,38.33-1.75,77.93,16.77,105.98,49.49,28.05,32.72,40.28,74.69,32.72,112.29-6.44,32.05-24.48,62.03-41.91,91.02-24.45,40.65-49.73,82.69-41.36,129.53,4.53,25.31,18.99,48.45,41.83,66.92,20.56,16.63,46.98,28.57,74.39,33.63,45.33,8.36,91.93,1.71,136.99-4.71,7.54-1.08,15.33-2.19,22.96-3.21,100.35-13.39,202.73-13.86,304.3-1.4,101.57,12.46,200.8,37.65,294.94,74.89,85.64,33.88,168.32,78.17,248.28,121.01,59.38,31.81,120.78,64.71,183.06,93.17,82.53,37.72,157.82,62.89,230.19,76.95,85.33,16.58,165.67,16.79,238.79.63,1.62-.36,2.64-1.96,2.28-3.58Z"/>
        </g>
      </g>
    </g>
  </g>
</svg>