<?xml version="1.0" encoding="UTF-8"?>
<svg id="Layer_2" data-name="Layer 2" xmlns="http://www.w3.org/2000/svg" viewBox="0 0 123.4 121.01">
  <defs>
    <style>
      .cls-1 {
        fill: #f47c6f;
      }
    </style>
  </defs>
  <g id="Layer_1-2" data-name="Layer 1">
    <g>
      <path class="cls-1" d="m79.19,117.33c-.26-.07-.29-.08-3.38,1.73.94-3.24.92-3.28.77-3.54-.17-.3-.55-.4-.85-.23l-1.17.68c-.18-.22-.45-.55-.86-1.04-.44-.53-.85-1.03-.92-1.12-.08-.11-.2-.2-.34-.23-.14-.04-.28-.02-.41.03-.3-.36-.83-1.01-1.81-2.19-.18-.22-.48-.28-.74-.17l-1.8-2.19c-.18-.22-.48-.29-.74-.17-.3-.36-.83-1.01-1.81-2.19-.08-.1-.2-.17-.32-.21-.16-.04-.26-.03-.41.04-.17-.21-.43-.52-.81-.97-.4-.48-.9-1.08-.97-1.18-.09-.12-.21-.21-.36-.24-.16-.04-.28-.02-.41.04l-1.8-2.19c-.08-.1-.2-.17-.32-.21-.16-.04-.28-.02-.41.04-.3-.36-.83-1.01-1.81-2.19-.18-.22-.48-.28-.74-.17-.19-.24-.49-.59-.94-1.14-.42-.51-.8-.97-.85-1.03-.08-.11-.2-.18-.33-.22-.14-.04-.29-.03-.43.04-.73-.88-1.66-2-1.77-2.15-.08-.12-.21-.21-.36-.25-.16-.04-.28-.02-.41.04l-1.81-2.19c-.18-.22-.49-.29-.74-.17-.74-.89-1.66-2.01-1.77-2.15-.02-.03-.04-.06-.07-.08-.18-.18-.46-.21-.7-.12l-1.81-2.19c-.18-.22-.48-.28-.74-.17-.3-.36-.83-1.01-1.81-2.19-.07-.09-.17-.15-.27-.19,0-.75.03-1.93.05-3.02,0-.11-.03-.22-.08-.32-.08-.15-.22-.25-.39-.29-.29-.08-.38-.1-3.98,2.07-.24-2.71-.26-2.75-.34-2.89-.08-.15-.22-.25-.39-.29-.16-.04-.27-.02-.41.04-.19-.23-.48-.58-.92-1.12-.42-.51-.81-.97-.87-1.05-.08-.11-.2-.19-.33-.23-.16-.04-.26-.04-.43.03-.12-.15-.28-.34-.5-.6-.47-.57-1.18-1.43-1.28-1.55-.08-.12-.2-.2-.34-.24-.16-.04-.27-.03-.42.04-.3-.36-.83-1.01-1.81-2.19-.08-.1-.2-.18-.33-.21-.17-.04-.3,0-.41.04-.1-.12-.22-.26-.38-.45-.49-.58-1.29-1.56-1.4-1.7-.08-.12-.21-.21-.36-.25-.14-.04-.29-.02-.42.04-.74-.89-1.67-2.01-1.77-2.15-.08-.12-.21-.21-.35-.24-.15-.04-.26-.03-.41.04-.06-.07-.13-.15-.21-.25-.6-.73-1.51-1.83-1.59-1.92-.02-.02-.03-.04-.05-.06-.24-.24-.5-.2-.69-.12-.09-.11-.21-.26-.37-.44-.49-.59-1.3-1.57-1.41-1.71-.08-.12-.21-.21-.35-.25-.14-.04-.29-.02-.42.04-.3-.37-.84-1.02-1.8-2.19-.08-.1-.2-.18-.33-.21-.15-.04-.26-.03-.41.04-.76-.92-1.69-2.04-1.78-2.16-.08-.11-.21-.2-.34-.23-.14-.04-.28-.02-.41.04-.3-.36-.83-1.01-1.81-2.19-.08-.1-.19-.17-.32-.2-.15-.04-.26-.04-.42.04-.19-.23-.49-.59-.94-1.14-.41-.5-.78-.94-.85-1.02-.17-.24-.49-.32-.75-.2-.3-.36-.83-1.01-1.81-2.19-.1-.12-.23-.19-.37-.22-.39-2.88-.4-2.88-.47-3.01-.08-.14-.22-.25-.38-.29-.28-.07-.31-.08-3.33,1.7.28-.94.65-2.16.93-3.11.07-.24,0-.51-.21-.67-.2-.16-.48-.18-.7-.05l-1.78,1.03c-.3.17-.4.55-.23.85.17.3.55.4.85.23l.42-.24c-1.01,3.36-.99,3.39-.86,3.61.08.14.22.25.38.29.16.04.33.02.47-.07,1.02-.61,2.52-1.48,3.41-1.99.1.75.25,1.83.37,2.65.03.25.22.46.47.52.15.04.26.03.41-.04.73.88,1.66,2,1.77,2.15.17.25.5.34.77.21.13.16.3.36.54.65.49.59,1.15,1.39,1.24,1.5.05.07.12.14.2.18.17.09.39.09.57.02.73.88,1.66,2,1.77,2.15.08.12.21.21.35.25.15.04.26.03.41-.04.3.36.83,1.01,1.81,2.19.18.22.49.28.74.17.58.71,1.73,2.1,1.8,2.18.08.1.19.18.32.21.14.04.29.03.42-.03.22.26.56.68,1.12,1.35.32.39.59.71.66.8.21.32.51.29.76.19.24.29.63.76,1.28,1.55.29.35.51.62.53.65.07.09.17.16.29.2.15.05.31.04.45-.02.3.36.83,1.01,1.81,2.19.08.1.2.17.33.21.15.04.25.03.41-.04.21.26.56.67,1.11,1.34.34.42.63.76.69.83.08.11.2.19.34.23.16.04.27.03.42-.04.78.94,1.71,2.08,1.79,2.17.07.1.18.17.29.21.18.06.32.04.45-.02.2.24.5.61.98,1.19.4.48.74.9.81.98.08.11.21.2.35.23.14.04.28.02.41-.04.13.16.31.38.56.67.48.58,1.14,1.38,1.23,1.49.08.12.21.2.35.24.01,0,.02,0,.04,0,.07.71.17,1.81.26,2.83.02.21.15.4.34.5.19.1.42.09.6-.02,1.23-.74,2.56-1.53,3.4-2.01-.06,2.92-.04,2.95.06,3.13.08.14.21.24.36.28.16.05.25.05.44-.04.74.89,1.67,2.02,1.78,2.16.08.12.21.21.35.24.16.04.26.03.42-.04l1.8,2.19c.08.1.19.17.32.2.16.04.26.04.42-.03.3.36.83,1.01,1.81,2.19.18.22.48.28.74.17l1.8,2.19c.08.1.2.17.32.21.16.04.28.02.41-.04.3.36.83,1.01,1.81,2.19.18.22.48.28.74.17.13.16.3.36.53.64.55.67,1.18,1.43,1.26,1.52.08.11.2.19.33.22.16.05.25.04.43-.04.74.89,1.67,2.01,1.78,2.15.08.12.21.21.35.24.17.04.29.02.42-.04l1.81,2.19c.08.1.2.17.33.21.16.04.28.02.41-.04.15.18.37.44.67.81.44.53,1.04,1.25,1.1,1.32.07.1.32.4.77.21.74.89,1.67,2.02,1.78,2.16.08.12.21.21.35.24.15.04.26.03.42-.04l1.8,2.19c.18.22.49.29.74.17.73.88,1.66,2,1.77,2.15.08.12.21.21.36.25.15.04.25.04.41-.04.14.17.34.41.62.74.46.55,1.08,1.31,1.17,1.41.08.12.2.2.34.24.16.04.33.02.47-.06l.35-.2c-.24.87-.57,2.03-.89,3.1-.07.24.01.51.21.66.11.09.25.13.38.13.11,0,.22-.03.31-.09,1.5-.88,3.96-2.31,4.19-2.42l-.25-.57.16-.6Z"/>
      <path class="cls-1" d="m108.18,35.42c-.67-.17-3.18,1.18-24.66,14.02-5.9,3.53-12.32,7.36-16.3,9.66l7.22-6.79c.17-.16.23-.39.18-.61-.06-.22-.23-.39-.45-.45-.28-.07-.29-.06-1.29.54-.2.12-.31.34-.3.56l-9.53,8.96c-.21.2-.26.51-.11.76.08.14.23.26.39.3.52.14,1.47-.3,20.84-11.88,4.16-2.49,8.74-5.22,12.77-7.6-5.73,3.66-12.92,8.16-19.33,12.18-6.38,4-12.41,7.77-16.9,10.64-2.41,1.54-4.17,2.69-5.38,3.5-1.95,1.32-2.47,1.67-2.11,2.29.08.14.23.26.39.3.49.13.62.15,19.91-11.42,7.07-4.25,15.64-9.39,21.97-13.06-12.18,7.91-35.03,22.31-51.8,32.79-.28.18-.38.55-.21.84.1.16.25.28.44.33.06.01.12.03.22.03.71,0,3.17-.9,18.64-9.98,6.28-3.68,13.36-7.93,19.66-11.72-2.34,1.52-4.68,3.02-6.84,4.42-4.6,2.97-8.94,5.77-12.13,7.86-1.71,1.12-2.95,1.95-3.8,2.54-1.43,1-1.86,1.3-1.53,1.87.08.14.22.25.39.29.44.12.57.16,23.8-13.48-2.69,1.83-5.43,3.7-7.87,5.4-9.27,6.44-9.16,6.63-8.79,7.27.08.14.25.27.41.31.67.17,2.9-1.02,17.33-9.76,1.2-.73,2.41-1.46,3.55-2.15-2.4,1.77-5.13,3.73-7.36,5.34q-8.44,6.08-8.08,6.7c.08.14.22.25.38.29.29.07.43.11,12.23-6.79-.38.32-.76.66-1.14.98q-6.76,5.86-6.43,6.43c.08.14.22.25.38.29.16.04.33.02.47-.06l6.59-3.8c-.58.82-1.23,1.74-1.76,2.49q-1.36,1.94-1.15,2.3c.08.14.22.25.38.29.16.04.33.02.47-.07.32-.19.71-.42.78-.46l-.16-.36c.65-.94,1.96-2.79,2.82-4.01q1.47-2.09,1.28-2.43c-.08-.15-.22-.25-.38-.3-.16-.04-.33-.02-.48.06l-4.05,2.34c2.61-2.28,5.93-5.14,8.42-7.26.24-.21.29-.57.1-.83-.19-.26-.54-.34-.82-.17-2.68,1.58-5.93,3.48-8.91,5.22,13.93-10.03,13.84-10.19,13.41-10.93-.08-.14-.23-.25-.39-.3-.42-.11-.49-.13-10.83,6.14-3.21,1.95-7.28,4.41-10.59,6.35,5.48-3.87,13.8-9.49,18.69-12.8,1.93-1.31,3.58-2.42,4.75-3.22.59-.4,1.05-.72,1.36-.94.55-.39.95-.67.66-1.17-.08-.14-.22-.25-.38-.29q-.36-.09-14.39,8.15c-2.92,1.71-6.16,3.62-9.3,5.45.9-.58,1.8-1.16,2.71-1.75,5.97-3.85,12.14-7.83,16.92-10.99,8.57-5.68,8.47-5.85,8.1-6.51-.08-.14-.22-.25-.38-.29q-.33-.08-9.85,5.68c-8.34,5.04-23.67,14.32-34.57,20.6,5.31-3.33,11.78-7.41,18.21-11.48,8.8-5.57,15.79-10.03,20.78-13.27,9.9-6.42,9.86-6.49,9.46-7.17-.08-.14-.26-.27-.42-.31-.86-.23-5.8,2.52-25.16,14.1,6.99-4.38,14.11-8.84,19.57-12.34,10.16-6.52,10.06-6.7,9.66-7.38-.08-.14-.24-.26-.4-.3Z"/>
      <path class="cls-1" d="m108.66,30.21q-.34-.09-8.36,4.7c-3.75,2.23-8.91,5.31-12.9,7.63,3.05-2.2,6.82-4.86,9.82-6.96,2.49-1.76,4.85-3.41,6.55-4.63.91-.65,1.57-1.14,2.02-1.48.75-.57,1.17-.89.87-1.41-.08-.15-.22-.25-.39-.29-.16-.04-.34-.01-.48.07-5.39,3.32-12.81,7.8-18.34,11.02,1.52-1.09,3.16-2.28,4.8-3.46,12.45-9.02,12.39-9.12,12.01-9.78-.08-.14-.26-.27-.42-.31-.41-.11-.97-.25-15.13,8.19-6.89,4.11-13.73,8.3-13.8,8.35-.29.18-.38.56-.2.85.18.29.56.38.85.2,7.07-4.34,17.3-10.5,23.31-13.9-4.99,3.71-13.25,9.66-19.38,14.03-.26.19-.34.54-.18.82.08.15.25.27.42.31.41.1.92.23,13.26-7.12-12.54,8.86-12.45,9.01-12.06,9.7.08.14.24.26.4.3.04.01.08.02.14.02.64,0,2.73-1.09,19.47-11.07,3.71-2.22,7.23-4.31,7.74-4.56.05-.01.09-.03.14-.06.3-.17.4-.55.23-.85-.08-.14-.22-.25-.38-.29Zm-.57,1.07s.06.04.09.06c-.03-.02-.06-.03-.09-.06Zm.16.1s.08.03.12.04c-.04,0-.08-.02-.12-.04Zm.18.05c.06,0,.12,0,.18,0-.06.01-.12.01-.18,0Z"/>
      <path class="cls-1" d="m44.41,75.76s.1.02.15.02c.11,0,.23-.03.33-.09,2.39-1.48,5.08-3.08,5.64-3.32.08,0,.17-.03.24-.08.3-.17.4-.55.23-.85-.08-.15-.23-.26-.39-.3-.07-.02-.14-.03-.27,0,1.57-1.31,3.27-2.73,4.76-3.99,1.23-1.03,2.32-1.95,3.1-2.62.4-.34.71-.61.93-.8.4-.35.72-.63.46-1.08-.08-.14-.22-.25-.38-.29-.24-.06-.27-.07-3.65,1.9,13.13-9.51,13.03-9.68,12.62-10.39-.08-.14-.22-.25-.38-.29-.16-.04-.33-.02-.47.06l-10.72,6.19c4.98-3.67,11.02-8.11,15.15-11.14.26-.19.33-.54.17-.81-.08-.15-.24-.26-.41-.31-.36-.1-.74-.19-10.5,5.57.07-.05.15-.11.22-.16,3.75-2.69,6.73-4.85,8.86-6.42,1.27-.93,2.24-1.66,2.91-2.16,1.23-.94,1.52-1.16,1.22-1.69-.08-.14-.22-.25-.38-.29s-.33-.02-.48.07c-6.18,3.77-15.05,9.09-20.5,12.19,9.36-6.5,32.29-20.83,48.61-30.82.29-.18.38-.55.21-.84-.09-.16-.24-.27-.42-.32-.69-.17-4.07,1.21-31.61,17.61,2.99-1.89,5.98-3.77,8.75-5.51,5.51-3.46,10.71-6.74,14.52-9.18,2.04-1.31,3.52-2.28,4.53-2.97,1.69-1.15,2.14-1.46,1.8-2.06-.08-.14-.22-.25-.38-.29-.16-.04-.33-.02-.47.06l-41.8,24.13c10.14-6.75,27.26-17.57,39.99-25.48.29-.18.38-.56.2-.85-.18-.29-.56-.38-.85-.2-12.4,7.61-29.21,17.73-39.59,23.63,4.17-2.71,9.31-6.07,14.42-9.41,6.82-4.46,12.26-8.03,16.14-10.61,2.31-1.53,4.09-2.73,5.3-3.55.64-.44,1.14-.79,1.48-1.03.54-.39.97-.7.67-1.22-.08-.14-.23-.25-.39-.3-.38-.1-.73-.19-24.62,13.77-1.64.96-3.28,1.91-4.88,2.86,9.75-6.43,21.04-13.85,27.24-17.92.28-.18.36-.56.19-.85-.18-.29-.55-.38-.84-.21l-7.5,4.33c-.27.16-.38.49-.27.77-4.19,2.75-9.59,6.3-14.95,9.83-6.58,4.34-11.82,7.8-15.57,10.29-2.12,1.41-3.89,2.59-5.12,3.42-.62.42-1.1.75-1.43.98-.56.39-.97.68-.67,1.19.08.14.22.25.38.29.16.04.33.02.47-.07,11.01-6.51,25.47-15,35.55-20.81-9.91,6.53-24.35,15.95-35.39,23.11-.28.18-.37.55-.2.83.09.16.25.28.44.33.39.1,1.02.26,11.32-5.62-1.33.88-2.54,1.68-3.63,2.41-2.39,1.61-4.22,2.89-5.45,3.81-1.91,1.42-2.41,1.93-2.05,2.54.08.14.22.25.38.29.16.04.33.02.47-.06l30.17-17.42c-.09.06-.18.11-.27.17-30.99,19.48-30.85,19.72-30.34,20.61.08.14.22.25.38.29q.26.07,4.23-2.32c12.22-7.36,22.19-13.31,29.89-17.82-2.58,1.61-5.26,3.29-7.93,4.98-7.77,4.9-13.92,8.86-18.29,11.79-8.71,5.82-8.49,6.2-8.12,6.83.08.14.25.27.41.31.39.1.83.21,13.6-7.37.43-.26.86-.51,1.29-.77-4.89,3.52-10.65,7.64-15.29,10.94-.27.19-.34.57-.16.85.18.28.56.36.84.19,4.64-2.83,10.95-6.63,15.82-9.47-1.59,1.17-3.33,2.45-5.07,3.73-3,2.21-6,4.42-8.25,6.08-1.12.83-2.06,1.52-2.72,2.01-.33.24-.59.44-.76.57-.32.24-.71.53-.43,1.01.17.3.55.4.85.22l13.46-7.77c-2.71,2-5.83,4.26-8.2,5.97-1.91,1.38-3.72,2.69-4.99,3.63-2.41,1.77-2.5,1.84-2.19,2.39.08.14.22.25.38.29.29.08.31.08,7.21-3.94-2.31,1.93-4.88,4.08-6.59,5.51l-1.89,1.58c-.28.23-.49.41-.64.55,0,0,0,0-.01,0h0c-.39.37-.4.52-.21.85.08.14.22.25.39.29Zm5.69-3.5c-.07-.05-.13-.11-.18-.2.05.08.11.15.18.2Z"/>
      <path class="cls-1" d="m123.31,22.71c-.08-.15-.24-.26-.4-.3-.24-.06-.59-.15-6.71,3.52.95-.9,1.94-1.84,2.82-2.68.86-.82,1.64-1.56,2.19-2.09,1.17-1.13,1.24-1.2.99-1.64-.08-.14-.22-.24-.37-.29q-.27-.08-5.07,2.72c-1.05.61-2.22,1.29-3.33,1.94,6.74-6.16,6.71-6.23,6.37-6.81-.08-.14-.22-.25-.38-.29-.16-.04-.33-.02-.47.06l-8.09,4.67c2.26-2.15,4.97-4.74,6.43-6.12.21-.2.25-.51.11-.76-.08-.14-.23-.26-.4-.3-.26-.07-.59-.15-7.98,4.28.27-.25.54-.51.81-.76,1.28-1.21,2.55-2.42,3.5-3.33q1.93-1.86,1.67-2.32c-.08-.15-.22-.25-.38-.29-.16-.04-.33-.02-.48.07-2.69,1.64-6.46,3.9-9.13,5.45,2.16-2.06,5.24-4.89,7.47-6.9.22-.2.27-.52.12-.77-.08-.14-.23-.26-.39-.3-.33-.08-.54-.14-8.5,4.61.76-.7,1.54-1.42,2.24-2.07,1.11-1.02,2.15-1.98,2.91-2.7,1.52-1.42,1.61-1.51,1.34-1.98-.08-.14-.22-.25-.38-.29-.16-.04-.33-.02-.47.06l-8.61,4.97c2.11-2,4.89-4.55,6.94-6.41.24-.22.27-.58.08-.83s-.55-.32-.82-.16c-2.47,1.52-5.87,3.57-8.48,5.09.57-.54,1.17-1.11,1.77-1.67,1.27-1.21,2.55-2.42,3.5-3.33q1.94-1.86,1.67-2.31c-.08-.14-.22-.25-.38-.29-.29-.08-.41-.11-8.39,4.59,1.8-1.78,3.99-3.95,5.73-5.67.22-.22.25-.57.06-.82-.19-.25-.53-.32-.81-.16l-1.62.93c-.3.17-.4.55-.23.85,0,0,0,0,0,0-.82.81-1.85,1.83-2.87,2.84-1.15,1.14-2.29,2.27-3.15,3.13q-1.77,1.77-1.52,2.2c.08.14.22.25.38.29.16.04.33.02.47-.07,2.4-1.42,5.49-3.24,7.93-4.65-2.06,1.96-4.69,4.44-6.74,6.38-.21.2-.26.51-.11.76.08.15.24.26.4.3.25.06.61.15,7.66-4.08-.18.16-.35.33-.53.49-5.49,5.11-5.45,5.18-5.13,5.72.08.14.22.25.38.29.16.04.33.02.47-.06l8.02-4.63c-.11.1-.21.2-.32.29q-6.48,5.98-6.15,6.55c.08.14.22.25.38.29q.26.07,1.36-.6c3.17-1.91,5.49-3.29,7.19-4.28-.46.42-.93.86-1.4,1.3-5.49,5.1-5.44,5.2-5.13,5.74.08.14.23.26.4.3.27.07.6.15,8.38-4.52-1.98,1.87-4.36,4.12-6.26,5.89-.23.22-.26.58-.07.83.19.25.55.32.82.15,2.49-1.52,5.91-3.58,8.52-5.1l-1.79,1.71c-1.27,1.21-2.54,2.42-3.49,3.33-.73.7-1.19,1.13-1.46,1.43h0s0,0,0,0c-.44.48-.38.58-.23.85.17.3.55.4.85.22l8.55-4.94c-1.2,1.11-2.51,2.32-3.54,3.25q-3.74,3.42-3.46,3.9c.32.55.69.33,1.6-.18.47-.27,1.13-.65,1.91-1.1,1.54-.89,3.53-2.05,5.32-3.1.06-.03.11-.07.17-.1-1.63,1.55-3.46,3.28-4.67,4.43l-1.3,1.24c-.69.65-.85.8-.62,1.23.08.15.22.26.39.3.05.01.11.02.16.02.11,0,.23-.03.33-.09,4.69-2.9,10.02-6.07,10.94-6.41.1.01.22-.03.31-.08.3-.17.4-.55.23-.85Z"/>
    </g>
  </g>
</svg>