<?xml version="1.0" encoding="UTF-8"?>
<svg id="Layer_2" data-name="Layer 2" xmlns="http://www.w3.org/2000/svg" viewBox="0 0 81.98 131.97">
  <defs>
    <style>
      .cls-1 {
        fill: #f47c6f;
      }
    </style>
  </defs>
  <g id="Layer_1-2" data-name="Layer 1">
    <g>
      <path class="cls-1" d="m66.03,131.97c-.1,0-.2-.01-.3-.03-.36-.07-.75-.35-.93-.66-.29-.5-.31-.98-.07-1.49-.99.49-1.72.67-2.33.55-.49-.1-.89-.39-1.13-.81-.17-.3-.26-.63-.25-.97-.31.05-.58.04-.82-.01-.47-.1-.85-.38-1.09-.78-.03-.06-.06-.12-.08-.18-.79.26-1.42.34-1.9.23-.51-.11-.94-.41-1.19-.85-1.51-2.61,2.62-6.58,9.48-12.83,2.02-1.84,4.56-4.15,5.99-5.75-3.26,1.66-9.4,5.8-12.72,8.03-5.69,3.83-5.94,3.97-6.71,3.79-.34-.08-.66-.31-.84-.62-.23-.39-.28-.86-.16-1.32.07-.24.18-.48.36-.74-.03-.04-.05-.08-.08-.12-.7-1.22.22-2.12,2.66-3.73-.25-.16-.47-.38-.63-.66-.24-.41-.29-.89-.14-1.36.01-.04.03-.08.04-.12-.02-.46.21-.91.64-1.16.17-.1.36-.15.54-.17.57-.41,1.34-.82,2.3-1.29.7-.45,1.43-.94,2.05-1.34,4.08-2.71,4.64-2.99,5.43-2.81.34.08.68.33.86.63.17.3.25.64.21.98,1.31-.67,2.39-.96,3.26-.8.53.1.98.37,1.29.77,2.06-1.08,3.2-1.38,3.97-1.2.46.11.83.38,1.06.77,1.13,1.95-1.54,4.5-7.67,10.09-2.83,2.58-7.83,7.13-8.79,9.15,2.86-.97,10.81-6.57,13.99-8.81q3.97-2.8,4.67-2.65c.35.08.66.3.84.61.09.15.16.31.21.48,1.37-.77,2.12-.97,2.73-.84.42.09.77.35.99.71.22.38.27.82.15,1.26-.29,1.07-1.65,2.14-4.81,4.04.08.08.15.17.21.28.69,1.2-.08,2.38-2.09,4.08.24.14.44.34.58.59.35.61.14,1.39-.47,1.74-.38.22-.83.22-1.2.04-.9.36-3.03,1.99-4.22,2.91-2.25,1.72-3.11,2.35-3.89,2.35Z"/>
      <path class="cls-1" d="m46.12,95.77c-.12,0-.22-.02-.35-.05-.34-.08-.64-.31-.82-.61-.62-1.08-.22-1.38,2.94-3.69,7.83-5.72,11.06-8.74,12.2-10.33-2.02,1.11-5.44,3.41-7.7,4.94-6.04,4.06-6.92,4.55-7.84,4.34-.34-.08-.7-.34-.88-.65-1.58-2.74,2.22-6.4,8.66-12.12.18-.16.36-.32.55-.49-7.1,4.68-8.79,5.57-9.92,5.31-.4-.09-.73-.34-.92-.68-.63-1.08-.53-1.85,6.4-7.91-1.98,1.15-3.33,1.62-4.28,1.42-.52-.11-.96-.42-1.21-.87-.03-.05-.06-.1-.08-.15-.74.32-1.17.36-1.56.27-.39-.09-.72-.33-.92-.67-.17-.3-.22-.68-.12-1.02.18-.62.44-.84,3.15-2.27-.07,0-.13-.02-.2-.03-.44-.1-.8-.36-1.02-.74-.67-1.17.18-1.79,2.54-3.24-.45-.94.21-1.71,8.65-8.97-2.51,1.53-4.07,2.12-5.12,1.89-.51-.11-.94-.41-1.19-.85-.34-.59-.41-1.26-.21-1.93.17-.54.51-1.08,1.02-1.63-.74-1.97,1.38-4.54,5.41-7.81-.36-.2-.66-.5-.88-.88-1.65-2.86,3.17-5.91,9.27-9.77,1.35-.86,3.11-1.97,4.66-3.04-.43.19-.88.38-1.34.58-1.77,1.2-3.23,2.15-4.44,2.89-4.3,3.24-5.35,3.92-6.35,3.72-.4-.08-.75-.33-.95-.68-.31-.53-.37-1.14-.17-1.73.22-.67.78-1.3,1.64-1.95.67-.7,1.87-1.68,3.83-3.31,6.42-5.3,10.41-9.04,11.91-11.18-1.19.76-2.72,1.8-4.06,2.72-7.61,5.17-10.22,6.72-11.66,6.4-.43-.1-.79-.36-1.01-.73,0-.01-.01-.02-.02-.03-.21.02-.42.01-.61-.02-.52-.1-.96-.4-1.22-.86-1.7-2.95,2.28-8.23,10.32-16.84-2.03,1.32-4.39,2.98-6.26,4.29-7.18,5.04-9.17,6.26-10.47,5.98-.43-.09-.78-.35-.99-.72-.24-.42-.29-.9-.16-1.38.19-.63.71-1.24,1.69-1.94-1.11-2,.77-5.72,4.84-12.32l.11-.18c-2.36,1.39-6.12,4.16-8.85,6.18-7.77,5.74-11.37,8.24-13.37,7.8-.54-.11-.97-.42-1.24-.88-.35-.61-.14-1.39.47-1.75.47-.27,1.03-.21,1.43.1,1.68-.3,7.37-4.51,11.19-7.33,7.62-5.63,10.91-7.88,12.79-7.5.52.11.94.41,1.19.85.46.79.23,1.17-1.55,4.04-1.04,1.69-3.81,6.18-4.59,8.54,1.38-.82,3.51-2.27,5.19-3.42,5.97-4.06,7.62-5.04,8.76-4.79.4.09.74.34.94.69,0,0,.01.02.02.03,1.7-.95,2.8-1.3,3.59-1.13.47.1.86.38,1.09.78.56.98.3,1.26-2.99,4.75-8.54,9.07-10.86,12.82-11.02,14.28.08-.04.17-.08.26-.13.86-1,2.38-2.03,4.5-3.22.6-.47,1.19-.94,1.71-1.36,5.1-4.07,8.31-6.55,10.35-6.15.6.11,1.09.46,1.39.98.12.21.19.44.21.68.01,0,.03,0,.04,0,.35.08.7.33.87.64,1.32,2.28-1.15,5.59-6.85,10.71.8-.49,1.52-.86,2.17-1.12,3.71-2.51,4.38-2.79,5.12-2.62.35.08.7.33.88.64.29.5.34,1.08.16,1.63-.27.8-1.04,1.55-2.31,2.34-.14,1.16-1.16,2.36-2.74,3.65.15,0,.29,0,.43.03.63.1,1.15.47,1.47,1.02.84,1.45-.34,2.27-6.92,6.81-3.51,2.42-10.79,7.46-13.47,10.42,1.01-.61,2.18-1.26,3.49-1.95,1.06-.78,2.12-1.6,3.04-2.29,6.19-4.72,9.09-6.75,10.92-6.39.54.11.99.42,1.25.89.25.43.31.95.16,1.45-.21.71-.84,1.38-2,2.18.01.02.02.04.03.06q.7,1.21-10.02,10.4c-1.07.92-2.23,1.91-3.39,2.91.17-.13.33-.26.49-.38,6.13-4.71,9.01-6.75,10.81-6.38.54.11.99.42,1.25.89.58,1,.58,1.57-3.57,4.26.12.46.11.96-.04,1.47-.08.28-.21.57-.37.86.02.03.04.07.06.1.14.25.2.54.16.83.34.11.62.34.8.65q.64,1.1-6.71,7.29c-2.21,1.87-5.38,4.53-8.08,6.91.85-.55,1.67-1.09,2.37-1.56,5.84-3.85,6.53-4.24,7.38-4.03.34.08.68.33.86.63,1.02,1.76-1.04,3.69-6.19,8.26-1.9,1.69-5.7,5.06-7.36,7.24,1.26-.8,2.87-1.89,4.29-2.84,7.28-4.89,9.58-6.28,10.92-5.97.42.1.76.35.97.71.88,1.52-.05,3.47-2.53,5.99.28-.05.5-.04.7.01.38.09.7.33.89.66.51.89.22,2.1-.38,3.93,2.43-1.74,3.44-2.25,4.34-2.06.42.09.77.34.98.71.24.41.28.89.13,1.35-.37,1.11-1.9,2.02-4.93,3.37-1.75,1.11-2.39,1.33-3.02,1.18-.35-.08-.71-.34-.89-.65-.18-.32-.22-.7-.11-1.05.04-.13.09-.24.16-.34.03-.69.32-1.55.71-2.71.11-.33.26-.78.39-1.22-2.09,1.15-5.71,3.48-7.91,4.9-3.96,2.55-4.74,3.05-5.28,3.05Zm4.24-39.57c-.18.15-.34.29-.48.42.42-.2.92-.46,1.47-.78-.36.17-.68.29-.98.36Zm11.69-16.79c-2.89,1.83-6.72,4.35-7.31,5.58,1.37-.31,4.99-3.52,7-5.31.1-.09.21-.18.31-.27Z"/>
      <path class="cls-1" d="m8.85,33.28c-.1,0-.2-.01-.31-.04-.34-.08-.65-.31-.83-.61-1.38-2.4,2.59-4.87,15.38-12.33,7.91-4.62,23.86-13.92,24.3-17.58-.41.17-.96.46-1.6.83-.01.05-.03.11-.05.16-.78,2.33-4.76,4.62-11.31,7.57-.69.49-1.37.98-2.03,1.46-14.1,10.11-23.62,16.67-27.41,15.86-.28-.06-.54-.16-.77-.29-1.04.41-1.89.55-2.55.42-.63-.12-1.14-.49-1.45-1.02-.65-1.13.3-1.9,2.2-3.45,1.26-1.03,3.02-2.39,5.05-3.96,4.06-3.15,11.55-8.94,14.89-12.31-1.74,1.14-4,2.81-5.72,4.09-6.02,4.47-8.63,6.26-10.26,5.92-.49-.1-.9-.39-1.14-.82-.35-.61-.14-1.39.47-1.75.41-.24.91-.22,1.29,0,1.35-.39,5.4-3.39,8.12-5.42,5.93-4.4,8.5-6.16,10.09-5.83.49.1.89.39,1.13.81,1,1.74-.8,4.12-9.15,10.89.69-.3,1.39-.61,2.13-.92.18-.14.36-.27.53-.4C32.19,5.15,39.96-.5,43.71.25c.57.12,1.06.38,1.43.76,1.56-.83,2.56-1.12,3.26-.97.47.1.85.38,1.08.77,2.83,4.91-8.1,11.77-25.11,21.69-4.68,2.73-10.23,5.97-12.87,7.97.33.61.12,1.38-.49,1.72-.08.05-.17.08-.25.11-.12.07-.27.17-.42.28-.65.43-1.03.69-1.49.69Zm.42-1.56c.14.25.34.42.56.52-.23-.11-.42-.28-.56-.52Zm11.33-14.55c-2.9,2.2-5.46,4.13-7.7,5.75,3.18-1.92,6.93-4.46,10.48-6.93-.92.39-1.85.78-2.78,1.18ZM42.11,2.83c-2.64.66-7.81,4.14-13.1,8.02,1.37-.59,2.79-1.2,4.17-1.82,3.82-2.73,6.71-4.76,8.93-6.19Z"/>
    </g>
  </g>
</svg>