<?xml version="1.0" encoding="UTF-8"?>
<svg id="Layer_2" data-name="Layer 2" xmlns="http://www.w3.org/2000/svg" viewBox="0 0 207.44 271.5">
  <defs>
    <style>
      .cls-1 {
        opacity: .5;
      }

      .cls-2 {
        fill-rule: evenodd;
      }

      .cls-2, .cls-3 {
        fill: #f5b9ab;
      }

      .cls-4 {
        fill: #f47c6f;
      }

      .cls-5 {
        fill: #ff6b6b;
      }

      .cls-6 {
        fill: #eee;
      }
    </style>
  </defs>
  <g id="Layer_1-2" data-name="Layer 1">
    <g>
      <ellipse class="cls-1" cx="72.67" cy="262.32" rx="72.67" ry="9.18"/>
      <rect class="cls-4" x="102.65" y="187.4" width="34.44" height="71.09" rx="2.69" ry="2.69"/>
      <path d="m105.34,186.77c-1.83,0-3.32,1.49-3.32,3.32h1.26c0-1.14.92-2.06,2.06-2.06v-1.26Zm29.07,1.26c1.14,0,2.06.92,2.06,2.06h1.26c0-1.83-1.49-3.32-3.32-3.32v1.26Zm2.06,67.77c0,1.14-.92,2.06-2.06,2.06v1.26c1.83,0,3.32-1.49,3.32-3.32h-1.26Zm-31.13,2.06c-1.14,0-2.06-.92-2.06-2.06h-1.26c0,1.83,1.49,3.32,3.32,3.32v-1.26Zm-2.06-2.06v-65.72h-1.26v65.72h1.26Zm31.13,2.06h-29.07v1.26h29.07v-1.26Zm2.06-67.77v65.72h1.26v-65.72h-1.26Zm-31.13-2.06h29.07v-1.26h-29.07v1.26Z"/>
      <rect class="cls-6" x="12.54" y="207.93" width="34.44" height="50.56" rx="2.69" ry="2.69"/>
      <path d="m15.23,207.3c-1.83,0-3.32,1.49-3.32,3.32h1.26c0-1.14.92-2.06,2.06-2.06v-1.26Zm29.07,1.26c1.14,0,2.06.92,2.06,2.06h1.26c0-1.83-1.49-3.32-3.32-3.32v1.26Zm2.06,47.25c0,1.14-.92,2.06-2.06,2.06v1.26c1.83,0,3.32-1.49,3.32-3.32h-1.26Zm-31.13,2.06c-1.14,0-2.06-.92-2.06-2.06h-1.26c0,1.83,1.49,3.32,3.32,3.32v-1.26Zm-2.06-2.06v-45.19h-1.26v45.19h1.26Zm31.13,2.06H15.23v1.26h29.07v-1.26Zm2.06-47.25v45.19h1.26v-45.19h-1.26Zm-31.13-2.06h29.07v-1.26H15.23v1.26Z"/>
      <rect class="cls-4" x="172.36" y="108.59" width="34.44" height="149.9" rx="2.69" ry="2.69"/>
      <path d="m175.05,107.96c-1.83,0-3.32,1.49-3.32,3.32h1.26c0-1.14.92-2.06,2.06-2.06v-1.26Zm29.07,1.26c1.14,0,2.06.92,2.06,2.06h1.26c0-1.83-1.49-3.32-3.32-3.32v1.26Zm2.06,146.58c0,1.14-.92,2.06-2.06,2.06v1.26c1.83,0,3.32-1.49,3.32-3.32h-1.26Zm-31.13,2.06c-1.14,0-2.06-.92-2.06-2.06h-1.26c0,1.83,1.49,3.32,3.32,3.32v-1.26Zm-2.06-2.06V111.28h-1.26v144.52h1.26Zm31.13,2.06h-29.07v1.26h29.07v-1.26Zm2.06-146.58v144.52h1.26V111.28h-1.26Zm-31.13-2.06h29.07v-1.26h-29.07v1.26Z"/>
      <path class="cls-4" d="m58.26,90.34h35.41s-5.64,51.58-13.33,60.04c-7.68,8.46-47.88,31.65-47.88,31.65l-13.54-8.31,25.24-39.75s-2.78-15.5,14.09-43.63Z"/>
      <path d="m79.95,150.02c-1.87,2.06-5.78,5.07-10.63,8.43-4.84,3.36-10.58,7.04-16.08,10.47-5.5,3.42-10.76,6.59-14.65,8.89-1.94,1.15-3.54,2.09-4.66,2.74-.56.33-.99.58-1.29.75-.15.09-.26.15-.34.2-.04.02-.07.04-.09.05,0,0-.02,0-.02.01,0,0,0,0,0,0,0,0,0,0,0,0s0,0,.27.46q.27.46.27.46s0,0,0,0c0,0,0,0,0,0,0,0,.01,0,.02-.01.02-.01.05-.03.09-.05.08-.04.19-.11.34-.2.3-.17.73-.43,1.29-.75,1.12-.65,2.72-1.59,4.66-2.74,3.89-2.31,9.16-5.47,14.67-8.9,5.51-3.43,11.26-7.13,16.12-10.5,4.84-3.36,8.85-6.43,10.81-8.59l-.79-.72Zm13.72-59.68q-.53-.06-.53-.06s0,0,0,0c0,0,0,0,0,0,0,0,0,.02,0,.03,0,.02,0,.06-.01.11-.01.1-.03.24-.05.43-.04.38-.11.94-.19,1.65-.17,1.43-.42,3.47-.74,5.95-.65,4.96-1.59,11.67-2.78,18.64-1.18,6.97-2.61,14.19-4.21,20.19-.8,3-1.65,5.69-2.52,7.88-.88,2.2-1.78,3.86-2.68,4.85l.79.72c1.03-1.13,1.98-2.93,2.88-5.17.9-2.25,1.76-4.98,2.57-8,1.62-6.05,3.04-13.31,4.23-20.29,1.19-6.98,2.13-13.7,2.78-18.68.32-2.49.58-4.54.75-5.96.08-.71.15-1.27.19-1.65.02-.19.04-.34.05-.43,0-.05,0-.09.01-.11,0-.01,0-.02,0-.03,0,0,0,0,0,0,0,0,0,0,0,0t-.53-.06Zm-49.51,43.63q.53-.09.53-.09h0s0,0,0,0c0,0,0,0,0,0,0,0,0-.02,0-.03,0-.03-.01-.07-.02-.12-.02-.11-.04-.29-.06-.52-.04-.46-.08-1.16-.08-2.09,0-1.86.18-4.64.88-8.3,1.4-7.32,4.9-18.17,13.31-32.19l-.92-.55c-8.46,14.11-12.01,25.08-13.44,32.53-.71,3.73-.9,6.58-.9,8.5,0,.96.04,1.69.09,2.19.02.25.04.44.06.56,0,.06.02.11.02.15,0,.02,0,.03,0,.04,0,0,0,0,0,.01,0,0,0,0,0,0,0,0,0,0,0,0t.53-.09Zm-24.79,40.04l25.24-39.75-.9-.57-25.24,39.75.9.57Zm13.37,7.57l-13.54-8.31-.56.91,13.54,8.31.56-.91Zm25.52-90.69h35.41s0-1.07,0-1.07h-35.41v1.07Zm-14.09,43.09l.45.29.11-.18-.04-.21-.53.09Zm-25.24,39.75l-.45-.29-.29.46.46.28.28-.46Zm13.54,8.31l-.28.46.27.17.28-.16-.27-.46Zm61.21-91.69l.53.06.06-.59h-.6v.53Zm-35.41,0v-.53h-.3l-.16.26.46.28Z"/>
      <path class="cls-6" d="m33.04,181.56l-14.11-7.84-7.14,7.69s12.04,6.98,20.44,9.71l-3.56-4.69,4.37-4.87Z"/>
      <path d="m12.18,181.78l7.14-7.69-.78-.73-7.14,7.69.78.73Zm20.21,8.84c-4.16-1.35-9.24-3.77-13.29-5.85-2.02-1.04-3.79-2-5.04-2.69-.63-.35-1.13-.63-1.47-.83-.17-.1-.3-.17-.39-.22-.04-.03-.08-.05-.1-.06-.01,0-.02-.01-.03-.01,0,0,0,0,0,0,0,0,0,0,0,0,0,0,0,0,0,0t-.27.46q-.27.46-.27.46s0,0,0,0c0,0,0,0,0,0,0,0,0,0,0,0,0,0,.01,0,.03.02.02.01.06.03.1.06.09.05.23.13.4.23.35.2.85.48,1.48.83,1.26.7,3.04,1.66,5.07,2.71,4.06,2.09,9.21,4.53,13.45,5.92l.33-1.02Zm-4.15-3.86l3.56,4.69.85-.65-3.56-4.69-.85.65Zm4.4-5.55l-4.37,4.87.8.71,4.37-4.87-.8-.71Zm-13.97-7.02l14.11,7.84.52-.94-14.11-7.84-.52.94Zm-6.88,7.22l-.39-.36c-.11.12-.16.28-.14.44.02.16.12.3.26.38l.27-.46Zm20.44,9.71l-.17.51c.22.07.47,0,.6-.2s.13-.45,0-.63l-.43.32Zm-3.56-4.69l-.4-.36c-.17.19-.18.48-.03.68l.43-.32Zm4.37-4.87l.4.36c.11-.12.16-.29.13-.45-.03-.16-.13-.3-.27-.38l-.26.47Zm-14.11-7.84l.26-.47c-.22-.12-.48-.08-.65.1l.39.36Z"/>
      <path class="cls-4" d="m58.41,89.59l38.69-.05s21.51,18.92,24.22,30.01c2.71,11.1-.38,51.38-.38,51.38l-15.64,6.91-16.15-42.54s-16.88-15.99-30.75-45.71Z"/>
      <path d="m120.81,119.68c.66,2.71.98,7.25,1.07,12.59.09,5.32-.04,11.39-.26,17.11-.22,5.72-.52,11.1-.77,15.05-.12,1.97-.23,3.59-.31,4.71-.04.56-.07,1-.09,1.3-.01.15-.02.26-.03.34,0,.04,0,.07,0,.09,0,0,0,.02,0,.02,0,0,0,0,0,0,0,0,0,0,0,0s0,0,.53.04q.53.04.53.04s0,0,0,0c0,0,0,0,0,0,0,0,0-.01,0-.02,0-.02,0-.05,0-.09,0-.08.01-.19.03-.34.02-.3.05-.74.09-1.3.08-1.12.19-2.74.31-4.72.25-3.95.55-9.34.77-15.07.22-5.73.35-11.82.26-17.17-.09-5.33-.41-9.99-1.1-12.83l-1.04.25Zm-23.7-30.14q-.35.4-.35.4s0,0,0,0c0,0,0,0,0,0,0,0,0,0,.01,0,.01,0,.03.02.05.04.04.04.1.09.18.16.16.14.39.35.68.62.59.54,1.44,1.32,2.47,2.29,2.05,1.94,4.82,4.64,7.67,7.69,2.85,3.05,5.78,6.44,8.16,9.74,2.39,3.32,4.19,6.51,4.84,9.19l1.04-.25c-.7-2.88-2.61-6.21-5.01-9.56-2.42-3.36-5.38-6.78-8.24-9.85-2.87-3.07-5.65-5.79-7.71-7.74-1.03-.98-1.89-1.76-2.48-2.3-.3-.27-.53-.48-.69-.62-.08-.07-.14-.13-.18-.16-.02-.02-.04-.03-.05-.04,0,0,0,0-.01-.01,0,0,0,0,0,0,0,0,0,0,0,0t-.35.4Zm-7.94,45.76q.37-.39.37-.39h0s0,0,0,0c0,0,0,0,0,0,0,0-.02-.02-.03-.03-.03-.03-.08-.08-.14-.14-.12-.12-.31-.31-.55-.55-.48-.49-1.19-1.23-2.09-2.2-1.79-1.95-4.32-4.87-7.29-8.71-5.93-7.69-13.6-19.08-20.51-33.9l-.97.45c6.95,14.9,14.66,26.36,20.64,34.1,2.99,3.87,5.54,6.81,7.35,8.78.9.99,1.62,1.73,2.12,2.23.25.25.44.44.57.56.06.06.11.11.15.14.02.02.03.03.04.04,0,0,0,0,0,0,0,0,0,0,0,0,0,0,0,0,0,0t.37-.39Zm16.65,42.35l-16.15-42.54-1,.38,16.15,42.54,1-.38Zm14.92-7.21l-15.64,6.91.43.98,15.64-6.91-.43-.98Zm-62.32-80.31l38.69-.05v-1.07s-38.7.05-38.7.05v1.07Zm30.75,45.18l.5-.19-.04-.11-.09-.08-.37.39Zm16.15,42.54l-.5.19.2.53.52-.23-.22-.49Zm15.64-6.91l.22.49.29-.13.02-.32-.53-.04Zm-23.84-81.39l.35-.4-.15-.13h-.2s0,.54,0,.54Zm-38.69.05v-.54c-.18,0-.35.09-.45.25-.1.15-.11.35-.03.51l.48-.23Z"/>
      <path class="cls-2" d="m92.35,26.49c.88-.32,1.72-.79,2.48-1.44,5.77-4.92,3.3-12.34-.2-16.2-3.49-3.86-24.87-2.32-14.79,15.58.04.03.09.05.13.08,1.13,3.59.18,6.66-.96,10.36-.47,1.51-.96,3.11-1.36,4.9l10.69-.77c2.94-3.99,4.05-8.01,4-12.5Z"/>
      <path d="m91.72,26.49c.05,4.36-1.03,8.24-3.88,12.12l1.01.75c3.03-4.11,4.18-8.27,4.12-12.88h-1.26Zm-3.42,11.86l-10.69.77.09,1.25,10.69-.77-.09-1.25Zm-10.04,1.53c.39-1.76.88-3.34,1.35-4.85l-1.2-.37c-.46,1.5-.97,3.13-1.38,4.95l1.23.28Zm1.35-4.85c1.13-3.67,2.16-6.93.96-10.73l-1.2.38c1.06,3.37.18,6.26-.97,9.98l1.2.37Zm.68-11.08s-.08-.05-.12-.07l-.65,1.08s.09.05.14.08l.64-1.08Zm.1.16c-2.48-4.4-2.96-7.68-2.37-10.07.58-2.37,2.26-3.99,4.39-5,2.15-1.02,4.73-1.4,6.98-1.28,1.12.06,2.15.24,2.99.51.85.28,1.45.63,1.78,1l.93-.84c-.54-.6-1.37-1.04-2.32-1.35-.96-.31-2.1-.51-3.31-.57-2.42-.12-5.21.28-7.58,1.4-2.38,1.13-4.38,3.01-5.08,5.84-.69,2.82-.07,6.44,2.5,10.99l1.1-.62Zm13.77-14.84c1.67,1.85,3.1,4.55,3.41,7.35.31,2.77-.45,5.64-3.16,7.95l.82.96c3.07-2.61,3.95-5.91,3.59-9.05-.35-3.1-1.91-6.04-3.73-8.06l-.93.84Zm.25,15.3c-.7.6-1.48,1.03-2.29,1.33l.43,1.18c.95-.35,1.85-.85,2.68-1.55l-.82-.96Zm-6.08,14.42l.04.63c.18-.01.35-.11.46-.25l-.51-.37Zm-10.69.77l-.61-.14c-.04.19,0,.4.14.55.13.15.32.23.52.22l-.04-.63Zm1.36-4.9l-.6-.19.6.19Zm.96-10.36l.6-.19c-.05-.15-.15-.27-.28-.35l-.32.54Zm-.13-.08l-.55.31c.05.09.13.17.22.23l.32-.54Zm14.79-15.58l.47-.42-.47.42Zm-2.29,17.65l-.22-.59c-.25.09-.42.33-.41.6h.63Zm2.48-1.44l.41.48-.41-.48Z"/>
      <path class="cls-5" d="m77.93,13.61c-1.67,2.33.13,8.08,1.46,9.52-11.02-6.11-4.04-19.91-.64-17.39.55-5.1,6.41-6.9,10.4-2.59,10-8.08,10.53,5.69,7,7.78-3.53,2.09-7.81.1-10.04,1.18-2.22,1.08-3.59,7.62-4.31,3.99s-1.77-5.39-3.86-2.48Z"/>
      <path d="m78.38,6.24c-.25-.18-.52-.23-.85-.13-.35.11-.77.38-1.2.85-.87.93-1.67,2.5-2.05,4.36-.75,3.69.19,8.36,5.42,11.26l-.61,1.1c-5.8-3.22-6.87-8.5-6.04-12.61.41-2.04,1.3-3.83,2.36-4.97.53-.57,1.12-1.01,1.76-1.2.66-.2,1.35-.12,1.96.32l-.75,1.01Zm10.31-2.66c-1.86-2.01-4.08-2.54-5.86-2.06-1.77.48-3.2,1.98-3.45,4.28l-1.25-.14c.3-2.8,2.08-4.74,4.37-5.36,2.28-.62,4.98.11,7.11,2.42l-.92.85Zm7.14,6.81c.65-.38,1.23-1.41,1.51-2.82.27-1.37.22-2.92-.2-4.14-.42-1.21-1.17-2-2.25-2.15-1.14-.15-2.87.37-5.33,2.35l-.79-.98c2.54-2.05,4.63-2.84,6.29-2.62,1.72.23,2.76,1.5,3.27,2.98.51,1.47.56,3.25.25,4.8-.3,1.51-.98,2.99-2.1,3.65l-.64-1.08Zm-9.99,1.15c.69-.33,1.49-.41,2.29-.41.79,0,1.69.09,2.55.14,1.77.1,3.56.06,5.15-.88l.64,1.08c-1.94,1.15-4.06,1.16-5.87,1.06-.93-.05-1.74-.13-2.48-.13-.74,0-1.31.08-1.73.28l-.55-1.13Zm-3.42,4.43c.09.44.17.63.21.69.01.02-.02-.04-.13-.08-.13-.05-.24-.02-.29,0-.04.02-.03.03.01-.02.04-.04.09-.11.16-.2.13-.19.29-.46.46-.79.34-.63.76-1.48,1.23-2.21.46-.72,1.04-1.46,1.77-1.82l.55,1.13c-.39.19-.81.66-1.26,1.36-.44.68-.82,1.45-1.19,2.13-.18.33-.36.65-.53.9-.09.13-.18.25-.29.36-.1.1-.23.22-.4.3-.18.08-.42.12-.67.03-.23-.09-.38-.25-.48-.4-.18-.28-.3-.68-.39-1.14l1.23-.24Zm-4.99-2.73c.54-.75,1.08-1.3,1.63-1.55.29-.13.6-.2.92-.15.32.05.59.19.82.39.43.37.74.97.98,1.62.25.67.46,1.5.64,2.42l-1.23.24c-.18-.89-.37-1.65-.59-2.23-.22-.6-.44-.95-.62-1.11-.08-.07-.14-.09-.17-.09-.03,0-.1,0-.21.05-.25.12-.63.44-1.14,1.15l-1.02-.73Zm1.51,10.31c-.41-.44-.8-1.15-1.14-1.95-.35-.82-.66-1.78-.87-2.77-.21-.99-.33-2.03-.28-2.99.05-.95.27-1.88.78-2.6l1.02.73c-.32.44-.51,1.1-.55,1.93-.04.82.06,1.74.26,2.66.2.92.48,1.8.8,2.54.32.75.65,1.3.91,1.58l-.92.85Zm-.18-17.82l.63.07-.12,1.09-.88-.65.37-.51Zm10.4-2.59l.4.49-.46.37-.4-.43.46-.43Zm7,7.78l.32.54-.32-.54Zm-10.04,1.18l-.27-.57.27.57Zm-4.31,3.99l-.62.12.62-.12Zm-3.86-2.48l.51.37-.51-.37Zm1.46,9.52l.46-.43-.77.98.31-.55Z"/>
      <path class="cls-6" d="m98.4,90.42c11.53-7.67,6.72-34.18,5.08-41.72-.3-1.36-.73-2.66-1.26-3.94-4.36-10.54-15.12-19.03-25.42-14.13-21.94,10.43-18.68,43.69-18.47,60.04l40.07-.25Z"/>
      <path d="m102.8,44.52c-2.22-5.37-6.08-10.24-10.73-13.15-4.66-2.92-10.15-3.87-15.54-1.31l.54,1.14c4.92-2.34,9.95-1.5,14.33,1.24,4.39,2.75,8.1,7.39,10.23,12.56l1.16-.48Zm-1.16.48c.52,1.26.94,2.52,1.23,3.83l1.23-.27c-.3-1.4-.75-2.74-1.3-4.05l-1.16.48Zm-42.68,45.65c-.1-8.22-.97-20.54.92-32.13,1.89-11.59,6.5-22.25,17.19-27.33l-.54-1.14c-11.25,5.35-15.98,16.53-17.89,28.27-1.91,11.73-1.04,24.22-.94,32.35l1.26-.02Zm39.44-.87l-40.07.25v1.26s40.08-.25,40.08-.25v-1.26Zm4.47-40.95c.82,3.75,2.42,12.21,2.39,20.67-.02,4.23-.44,8.43-1.56,12.03-1.12,3.6-2.92,6.55-5.64,8.36l.7,1.05c3.05-2.03,4.97-5.27,6.14-9.03,1.17-3.76,1.6-8.1,1.62-12.4.03-8.6-1.59-17.16-2.42-20.94l-1.23.27Zm-.65-4.07l-.58.24.58-.24Zm-25.42-14.13l.27.57-.27-.57Zm-18.47,60.04h-.63c0,.35.29.63.63.63v-.63Zm40.07-.25v.63c.13,0,.25-.04.35-.11l-.35-.52Zm5.08-41.72l.61-.13-.61.13Z"/>
      <path class="cls-6" d="m133.09,54.55l-9.26-11.3-31.19,21.82-10.08-20.29-13.05,20.29s14.14,21.96,21.33,21.33c13.09-1.16,42.26-31.85,42.26-31.85Z"/>
      <path d="m89.47,85.85c-.42.04-1.05-.16-1.91-.71-.84-.53-1.79-1.32-2.82-2.31-2.06-1.98-4.36-4.67-6.51-7.39-2.15-2.72-4.14-5.45-5.6-7.51-.73-1.03-1.32-1.89-1.73-2.49-.21-.3-.37-.54-.47-.7-.05-.08-.1-.14-.12-.18-.01-.02-.02-.04-.03-.05,0,0,0,0,0-.01,0,0,0,0,0,0,0,0,0,0,0,0s0,0-.52.35q-.52.35-.52.35s0,0,0,0c0,0,0,0,0,0,0,0,0,0,0,.01,0,.01.02.03.03.05.03.04.07.1.13.19.11.16.27.4.48.7.41.6,1.01,1.47,1.74,2.5,1.46,2.07,3.47,4.82,5.64,7.56,2.16,2.74,4.5,5.48,6.62,7.52,1.06,1.02,2.09,1.87,3.02,2.47.91.58,1.85.97,2.69.89l-.11-1.25Zm3.64-21.68l-9.3-18.19-1.12.57,9.3,18.19,1.12-.57Zm-.21.81l31.28-21.2-.71-1.04-31.28,21.2.71,1.04Zm40.18-10.42q-.47-.42-.47-.42s0,0,0,0c0,0,0,0,0,0,0,0,0,0-.01.02-.01.01-.03.04-.06.06-.05.06-.13.14-.23.25-.2.22-.51.55-.9.97-.78.83-1.91,2.03-3.32,3.46-2.82,2.87-6.75,6.72-11.18,10.61-4.43,3.89-9.34,7.81-14.14,10.85-4.82,3.05-9.44,5.15-13.3,5.5l.11,1.25c4.17-.37,9.01-2.61,13.87-5.69,4.88-3.08,9.85-7.05,14.3-10.97,4.46-3.91,8.41-7.78,11.24-10.67,1.42-1.44,2.56-2.65,3.34-3.49.39-.42.7-.75.9-.97.1-.11.18-.2.24-.26.03-.03.05-.05.06-.07,0,0,.01-.01.02-.02,0,0,0,0,0,0,0,0,0,0,0,0t-.47-.42Zm-9.74-10.9l9.26,11.3.97-.8-9.26-11.3-.97.8Zm-30.79,20.8l-.56.29.32.63.59-.4-.35-.52Zm-3.03,22.02l-.06-.63.06.63Zm43.56-31.93l.47.42.36-.4-.34-.42-.49.4Zm-9.26-11.3l.49-.4-.36-.44-.48.32.35.52Z"/>
      <path class="cls-3" d="m126.91,41.21l-3.67,2.35,9.2,11.66,2.89-2.35c3.08-2.5,3.57-7.01,1.09-10.1-2.31-2.88-6.42-3.56-9.52-1.56Z"/>
      <path d="m127.25,41.74c2.84-1.82,6.59-1.2,8.69,1.43l.98-.79c-2.51-3.14-6.98-3.87-10.36-1.7l.68,1.06Zm8.69,1.43c2.26,2.83,1.81,6.95-1,9.22l.79.98c3.35-2.71,3.88-7.62,1.19-10.99l-.98.79Zm-3,11.67l-9.2-11.66-.99.78,9.2,11.66.99-.78Zm2.01-2.44l-2.89,2.35.79.98,2.89-2.35-.79-.98Zm-11.36-8.3l3.67-2.35-.68-1.06-3.67,2.35.68,1.06Zm12.85-1.32l-.49.39.49-.39Zm-3.99,12.45l-.49.39c.1.13.26.22.42.24.17.02.33-.03.47-.14l-.4-.49Zm2.89-2.35l-.4-.49.4.49Zm-8.43-11.67l.34.53-.34-.53Zm-3.67,2.35l-.34-.53c-.15.1-.25.25-.28.43-.03.18.02.35.13.49l.49-.39Z"/>
      <polygon class="cls-6" points="121.14 169.46 105.31 177.72 108.03 188.03 129.17 175.01 122.95 175.86 121.14 169.46"/>
      <path d="m108.55,187.89l-2.72-10.31-1.03.27,2.72,10.31,1.03-.27Zm20.34-13.33l-21.14,13.02.56.91,21.14-13.02-.56-.91Zm-5.87,1.83l6.22-.84-.14-1.06-6.22.84.14,1.06Zm-2.4-6.78l1.81,6.39,1.03-.29-1.81-6.39-1.03.29Zm-15.07,8.58l15.83-8.25-.49-.95-15.83,8.25.49.95Zm2.48,9.84l-.52.14c.04.16.16.3.32.36.16.06.33.05.48-.04l-.28-.46Zm21.14-13.02l.28.46c.22-.13.31-.4.22-.64-.09-.24-.33-.38-.58-.35l.07.53Zm-6.22.84l-.51.15c.07.26.32.42.59.38l-.07-.53Zm-1.81-6.39l.51-.15c-.04-.15-.16-.28-.3-.35-.15-.06-.32-.06-.46.02l.25.47Zm-15.83,8.25l-.25-.47c-.22.12-.33.37-.27.61l.52-.14Z"/>
    </g>
  </g>
</svg>